# Blender 3.1.0
# www.blender.org
mtllib NoIceSign.mtl
o yajirusi_l
v -3.750000 43.750000 0.000002
v 0.000000 43.750000 -4.999998
v -2.500000 0.000000 -3.125000
v 2.500000 0.000000 -3.125000
v 18.750000 38.750000 3.750002
v 18.750000 38.750000 -1.874998
v -18.750000 41.250000 3.750002
v -18.750000 41.250000 -1.874998
v -12.500000 12.500000 -1.875000
v 15.000000 15.000000 -1.874999
v -12.500000 12.500000 3.125001
v 15.000000 15.000000 3.125001
v -18.750000 41.250000 -1.874998
v 18.750000 38.750000 -1.874998
v -12.500000 12.500000 -1.875000
v 15.000000 15.000000 -1.874999
v 18.750000 38.750000 3.750002
v 15.000000 15.000000 3.125001
v 18.750000 38.750000 -1.874998
v 15.000000 15.000000 -1.874999
v -18.750000 41.250000 -1.874998
v -12.500000 12.500000 -1.875000
v -18.750000 41.250000 3.750002
v -12.500000 12.500000 3.125001
v -18.750000 41.250000 3.750002
v -12.500000 12.500000 3.125001
v 18.750000 38.750000 3.750002
v 15.000000 15.000000 3.125001
v -3.750000 43.750000 0.000002
v -2.500000 0.000000 -3.125000
v 0.000000 0.000000 0.000000
v 3.750000 43.750000 0.000002
v 0.000000 0.000000 0.000000
v 2.500000 0.000000 -3.125000
v 0.000000 0.000000 0.000000
v 3.750000 43.750000 0.000002
v -3.750000 43.750000 0.000002
v 2.500000 0.000000 -3.125000
v 0.000000 43.750000 -4.999998
v 3.750000 43.750000 0.000002
v -3.750000 43.750000 0.000002
v 3.750000 43.750000 0.000002
v 0.000000 43.750000 -4.999998
vn -0.7998 0.0200 -0.5999
vn -0.0000 -0.0428 -0.9991
vn 0.0665 0.9978 -0.0000
vn 0.0905 -0.9959 -0.0000
vn -0.0000 -0.0000 -1.0000
vn 0.9878 -0.1560 -0.0000
vn -0.9772 -0.2124 -0.0000
vn -0.0015 -0.0221 0.9998
vn 0.0024 -0.0267 0.9996
vn -0.7791 -0.0668 0.6233
vn 0.7791 -0.0668 0.6233
vn -0.0000 -0.0000 1.0000
vn 0.7998 0.0200 -0.5999
vn -0.0000 1.0000 -0.0000
vt 0.021456 0.065883
vt 0.021456 0.399867
vt -2.000000 -0.158203
vt 1.021456 0.192836
vt -1.000000 -0.365234
vt -1.000000 0.056641
vt 5.000000 0.500000
vt 5.000000 0.250000
vt 4.000000 0.500000
vt 4.000000 0.250000
vt 5.000000 -0.250000
vt 4.000000 -0.250000
vt 5.000000 -0.500000
vt 4.000000 -0.500000
vt 3.000000 0.500000
vt 2.000000 0.421875
vt 3.000000 -0.500000
vt 2.000000 -0.402344
vt 1.750000 0.421875
vt 1.750000 -0.402344
vt 2.000000 0.421875
vt 2.000000 -0.402344
vt 3.000000 0.500000
vt 3.000000 -0.500000
vt 3.250000 0.500000
vt 3.250000 -0.500000
vt 0.787562 1.024219
vt 0.803746 0.448004
vt 0.196379 1.022183
vt 0.197933 0.463014
vt -0.043061 0.048270
vt 0.956939 0.048270
vt 0.956939 0.313895
vt -4.000000 0.300781
vt -3.000000 0.136719
vt -3.000000 0.300781
vt -3.000000 0.136719
vt -4.000000 0.300781
vt -4.000000 -0.128906
vt -1.000000 0.056641
vt -2.000000 -0.158203
vt -2.000000 0.181641
vt 0.304688 -0.480469
vt 0.447266 -0.119141
vt 0.013672 -0.156250
s 0
usemtl mat_yajirusi
f 1/1/1 2/2/1 3/4/1
f 2/3/2 4/6/2 3/5/2
f 5/7/3 6/8/3 7/9/3
f 6/8/3 8/10/3 7/9/3
f 9/11/4 10/12/4 11/13/4
f 10/12/4 12/14/4 11/13/4
f 13/15/5 14/16/5 15/17/5
f 14/16/5 16/18/5 15/17/5
f 17/19/6 18/20/6 19/21/6
f 18/20/6 20/22/6 19/21/6
f 21/23/7 22/24/7 23/25/7
f 22/24/7 24/26/7 23/25/7
f 25/27/8 26/28/8 27/29/8
f 26/28/9 28/30/9 27/29/9
f 29/31/10 30/32/10 31/33/10
f 32/34/11 33/35/11 34/36/11
f 35/37/12 36/38/12 37/39/12
f 38/40/13 39/41/13 40/42/13
f 41/43/14 42/44/14 43/45/14
