# Created by MKDS Course Modifier
mtllib bonzaibill.mtl
g polygon0
usemtl mat_m_killer
v 5.144531 1.237305 0.4438477
v 5.069824 1.399902 1.275146
v 5.43457 0.0002441406 0.1169434
v 5.39502 0.0002441406 1.860107
v 4.740479 -2.688721 1.262207
v 4.892822 -1.180664 3.217041
v 4.411865 -2.510498 3.21875
vn 0.9726563 0.2265625 0.03320313
vn 0.9726563 0.2265625 0.03320313
vn 0.9980469 0 0
vn 0.9941406 -0.09179688 0.05859375
vn 0.9042969 -0.4160156 0.09765625
vn 0.9160156 -0.3027344 0.2675781
vn 0.7695313 -0.5351563 0.3476563
vt 0.4589844 -0.1503906
vt 0.4052734 -0.140625
vt 0.4804688 -0.2451172
vt 0.3720703 -0.2407227
vt 0.4111328 -0.3950195
vt 0.3110352 -0.3061523
vt 0.2832031 -0.3769531
f 1/1/1 2/2/2 3/3/3
f 2/2/2 4/4/4 3/3/3
f 3/3/3 4/4/4 5/5/5
f 4/4/4 6/6/6 5/5/5
f 5/5/5 6/6/6 7/7/7
v -2.449219 4.806885 1.275146
v -4.664063 2.682373 1.275146
v -3.860352 3.127686 3.214111
v -4.358643 2.512695 3.214111
v -3.546387 1.96875 5.184326
v -5.141846 0.1391602 3.214111
vn -0.6875 0.7167969 0.1210938
vn -0.8144531 0.5566406 0.1601563
vn -0.7246094 0.640625 0.25
vn -0.859375 0.4238281 0.2851563
vn -0.7871094 0.4296875 0.4433594
vn -0.90625 0.2988281 0.3007813
vt 0.04736328 -0.015625
vt 0.2158203 -0.009765625
vt 0.1835938 -0.1542969
vt 0.2285156 -0.1542969
vt 0.2719727 -0.2998047
vt 0.4072266 -0.1630859
f 8/8/8 9/9/9 10/10/10
f 9/9/9 11/11/11 10/10/10
f 10/10/10 11/11/11 12/12/12
f 11/11/11 13/13/13 12/12/12
v 2.756348 -4.296631 3.172119
v 2.206299 -3.470703 5.167969
v 1.319824 -4.836182 3.091553
v 0 -4.062256 5.213867
v 0 -4.946777 3.241943
v -1.319824 -4.836182 3.091553
vn 0.46875 -0.8242188 0.3183594
vn 0.4042969 -0.7109375 0.5742188
vn 0.2480469 -0.8867188 0.390625
vn 0 -0.8203125 0.5703125
vn 0 -0.9121094 0.4101563
vn -0.2480469 -0.8867188 0.390625
vt 1.037598 -0.3808594
vt 1.081543 -0.5175781
vt 1.102539 -0.3300781
vt 1.169434 -0.4770508
vt 1.167969 -0.3320313
vt 1.102539 -0.3300781
f 14/14/14 15/15/15 16/16/16
f 15/15/15 17/17/17 16/16/16
f 16/16/16 17/17/17 18/18/18
f 17/17/17 19/19/19 18/18/18
v 0 -4.062256 5.213867
v -2.206299 -3.470703 5.167969
v -1.319824 -4.836182 3.091553
v -2.756348 -4.296631 3.172119
v -2.931152 -4.454834 2.372803
v -4.411865 -2.510498 3.21875
vn 0 -0.8203125 0.5703125
vn -0.4042969 -0.7109375 0.5742188
vn -0.2480469 -0.8867188 0.390625
vn -0.46875 -0.8242188 0.3183594
vn -0.6347656 -0.7480469 0.1914063
vn -0.7695313 -0.5351563 0.3476563
vt 1.169434 -0.4770508
vt 1.081543 -0.5175781
vt 1.102539 -0.3300781
vt 1.037598 -0.3808594
vt 1.01709 -0.3330078
vt 0.8925781 -0.5463867
f 20/20/20 21/21/21 22/22/22
f 21/21/21 23/23/23 22/22/22
f 22/22/22 23/23/23 24/24/24
f 23/23/23 25/25/25 24/24/24
v 2.449219 4.806885 1.275146
v 3.860352 3.127686 3.214111
v 4.664063 2.682373 1.275146
v 4.358643 2.512695 3.214111
v 5.069824 1.399902 1.275146
v 5.141846 0.1391602 3.214111
vn 0.6875 0.7167969 0.1210938
vn 0.7246094 0.640625 0.25
vn 0.8144531 0.5566406 0.1601563
vn 0.859375 0.4238281 0.2851563
vn 0.9375 0.3027344 0.1699219
vn 0.90625 0.2988281 0.3007813
vt 0.04736328 -0.015625
vt 0.1835938 -0.1542969
vt 0.2158203 -0.009765625
vt 0.2285156 -0.1542969
vt 0.3110352 -0.01416016
vt 0.4072266 -0.1630859
f 26/26/26 27/27/27 28/28/28
f 27/27/27 29/29/29 28/28/28
f 28/28/28 29/29/29 30/30/30
f 29/29/29 31/31/31 30/30/30
v 4.411865 -2.510498 3.21875
v 2.931152 -4.454834 2.372803
v 4.740479 -2.688721 1.262207
v 4.771484 -2.70459 0.03271484
v 5.43457 0.0002441406 0.1169434
vn 0.7695313 -0.5351563 0.3476563
vn 0.6347656 -0.7480469 0.1914063
vn 0.9042969 -0.4160156 0.09765625
vn 0.8652344 -0.5 0
vn 0.9980469 0 0
vt 0.2832031 -0.3769531
vt 0.3334961 -0.5043945
vt 0.4111328 -0.3950195
vt 0.4838867 -0.4047852
vt 0.4804688 -0.2451172
f 32/32/32 33/33/33 34/34/34
f 33/33/33 35/35/35 34/34/34
f 34/34/34 35/35/35 36/36/36
v 3.283203 -3.471924 -4.253906
v 3.283203 -3.471924 -2.849609
v 0 -4.910156 -4.253906
v 0 -4.910156 -2.849609
v -3.283203 -3.471924 -2.849609
vn 0.6972656 -0.7167969 0
vn 0.6972656 -0.7167969 0
vn 0 -1 0
vn 0 -1 0
vn -0.6972656 -0.7167969 0
vt 0.4384766 -0.02734375
vt 0.4389648 -0.02685547
vt 0.4384766 -0.02734375
vt 0.4379883 -0.02734375
vt 0.4389648 -0.02685547
f 37/37/37 38/38/38 39/39/39
f 38/38/38 40/40/40 39/39/39
f 39/39/39 40/40/40 41/41/41
v 1.511963 -2.4021 6.452393
v 2.206299 -3.470703 5.167969
v 3.500488 -2.058838 5.073486
v 4.411865 -2.510498 3.21875
v 4.892822 -1.180664 3.217041
vn 0.3476563 -0.6015625 0.7207031
vn 0.4042969 -0.7109375 0.5742188
vn 0.703125 -0.4101563 0.5820313
vn 0.7695313 -0.5351563 0.3476563
vn 0.9160156 -0.3027344 0.2675781
vt 0.2231445 -0.3374023
vt 0.2104492 -0.4150391
vt 0.1254883 -0.3359375
vt 0.04003906 -0.4272461
vt -0.006347656 -0.3349609
f 42/42/42 43/43/43 44/44/44
f 43/43/43 45/45/45 44/44/44
f 44/44/44 45/45/45 46/46/46
v 2.206299 -3.470703 5.167969
v 1.511963 -2.4021 6.452393
v 0 -4.062256 5.213867
v 0 -2.533936 6.764893
v -1.511963 -2.4021 6.452393
vn 0.4042969 -0.7109375 0.5742188
vn 0.3476563 -0.6015625 0.7207031
vn 0 -0.8203125 0.5703125
vn 0 -0.6933594 0.7207031
vn -0.3476563 -0.6015625 0.7207031
vt 1.206543 0.5751953
vt 1.168945 0.6645508
vt 1.09375 0.5073242
vt 1.094238 0.6640625
vt 1.168945 0.6645508
f 47/47/47 48/48/48 49/49/49
f 48/48/48 50/50/50 49/49/49
f 49/49/49 50/50/50 51/51/51
v -1.511963 -2.4021 6.452393
v -3.500488 -2.058838 5.073486
v -2.206299 -3.470703 5.167969
v -4.411865 -2.510498 3.21875
v -2.756348 -4.296631 3.172119
vn -0.3476563 -0.6015625 0.7207031
vn -0.703125 -0.4101563 0.5820313
vn -0.4042969 -0.7109375 0.5742188
vn -0.7695313 -0.5351563 0.3476563
vn -0.46875 -0.8242188 0.3183594
vt 0.2231445 -0.3374023
vt 0.1254883 -0.3359375
vt 0.2104492 -0.4150391
vt 0.04003906 -0.4272461
vt 0.1445313 -0.5268555
f 52/52/52 53/53/53 54/54/54
f 53/53/53 55/55/55 54/54/54
f 54/54/54 55/55/55 56/56/56
v -3.283203 -3.471924 -4.253906
v -3.283203 -3.471924 -2.849609
v -4.910645 0.0004882813 -4.253906
v -4.910645 0.0004882813 -2.849609
v -3.297607 3.4729 -2.849609
vn -0.6972656 -0.7167969 0
vn -0.6972656 -0.7167969 0
vn -1 0 0
vn -1 0 0
vn -0.6992188 0.7148438 0
vt 0.4384766 -0.02734375
vt 0.4272461 -0.02636719
vt 0.4384766 -0.02734375
vt 0.4311523 -0.02636719
vt 0.4379883 -0.02636719
f 57/57/57 58/58/58 59/59/59
f 58/58/58 60/60/60 59/59/59
f 59/59/59 60/60/60 61/61/61
v -4.771484 -2.70459 0.03271484
v -2.931152 -4.454834 2.372803
v -4.740479 -2.688721 1.262207
v -4.411865 -2.510498 3.21875
v -4.892822 -1.180664 3.217041
vn -0.8652344 -0.5 0
vn -0.6347656 -0.7480469 0.1914063
vn -0.9042969 -0.4160156 0.09765625
vn -0.7695313 -0.5351563 0.3476563
vn -0.9160156 -0.3027344 0.2675781
vt 0.4838867 -0.4047852
vt 0.3334961 -0.5043945
vt 0.4111328 -0.3950195
vt 0.2832031 -0.3769531
vt 0.3110352 -0.3061523
f 62/62/62 63/63/63 64/64/64
f 63/63/63 65/65/65 64/64/64
f 64/64/64 65/65/65 66/66/66
v -4.892822 -1.180664 3.217041
v -5.39502 0.0002441406 1.860107
v -4.740479 -2.688721 1.262207
v -5.43457 0.0002441406 0.1169434
v -4.771484 -2.70459 0.03271484
vn -0.9160156 -0.3027344 0.2675781
vn -0.9941406 -0.09179688 0.05859375
vn -0.9042969 -0.4160156 0.09765625
vn -1 0 0
vn -0.8652344 -0.5 0
vt 0.3110352 -0.3061523
vt 0.3720703 -0.2407227
vt 0.4111328 -0.3950195
vt 0.4804688 -0.2451172
vt 0.4838867 -0.4047852
f 67/67/67 68/68/68 69/69/69
f 68/68/68 70/70/70 69/69/69
f 69/69/69 70/70/70 71/71/71
v -5.141846 0.1391602 3.214111
v -4.358643 2.512695 3.214111
v -5.069824 1.399902 1.275146
v -4.664063 2.682373 1.275146
vn -0.90625 0.2988281 0.3007813
vn -0.859375 0.4238281 0.2851563
vn -0.9375 0.3027344 0.1699219
vn -0.8144531 0.5566406 0.1601563
vt 0.4072266 -0.1630859
vt 0.2285156 -0.1542969
vt 0.3110352 -0.01416016
vt 0.2158203 -0.009765625
f 72/72/72 73/73/73 74/74/74
f 73/73/73 75/75/75 74/74/74
v -3.297607 3.4729 -4.253906
v -3.297607 3.4729 -2.849609
v 0 4.911377 -4.253906
v 0 4.911377 -2.849609
vn -0.6992188 0.7148438 0
vn -0.6992188 0.7148438 0
vn 0 0.9980469 0
vn 0 0.9980469 0
vt 0.4384766 -0.02685547
vt 0.4379883 -0.02685547
vt 0.4384766 -0.02685547
vt 0.4379883 -0.02685547
f 76/76/76 77/77/77 78/78/78
f 77/77/77 79/79/79 78/78/78
v 4.411865 -2.510498 3.21875
v 2.756348 -4.296631 3.172119
v 2.931152 -4.454834 2.372803
v 1.319824 -4.836182 3.091553
vn 0.7695313 -0.5351563 0.3476563
vn 0.46875 -0.8242188 0.3183594
vn 0.6347656 -0.7480469 0.1914063
vn 0.2480469 -0.8867188 0.390625
vt 0.8925781 -0.5463867
vt 1.037598 -0.3808594
vt 1.01709 -0.3330078
vt 1.102539 -0.3300781
f 80/80/80 81/81/81 82/82/82
f 81/81/81 83/83/83 82/82/82
v -5.144531 1.237305 0.4438477
v -5.43457 0.0002441406 0.1169434
v -5.069824 1.399902 1.275146
v -5.39502 0.0002441406 1.860107
vn -0.9726563 0.2265625 0.03320313
vn -1 0 0
vn -0.9726563 0.2265625 0.03320313
vn -0.9941406 -0.09179688 0.05859375
vt 0.4589844 -0.1503906
vt 0.4804688 -0.2451172
vt 0.4052734 -0.140625
vt 0.3720703 -0.2407227
f 84/84/84 85/85/85 86/86/86
f 85/85/85 87/87/87 86/86/86
v 3.283203 -3.471924 -4.253906
v 4.910645 0.0004882813 -4.253906
v 3.283203 -3.471924 -2.849609
v 4.910645 0.0004882813 -2.849609
vn 0.6972656 -0.7167969 0
vn 0.9980469 0 0
vn 0.6972656 -0.7167969 0
vn 0.9980469 0 0
vt 0.4384766 -0.02734375
vt 0.4384766 -0.02734375
vt 0.4272461 -0.02636719
vt 0.4311523 -0.02636719
f 88/88/88 89/89/89 90/90/90
f 89/89/89 91/91/91 90/90/90
v 5.141846 0.1391602 3.214111
v 4.358643 2.512695 3.214111
v 3.546387 1.96875 5.184326
v 3.860352 3.127686 3.214111
vn 0.90625 0.2988281 0.3007813
vn 0.859375 0.4238281 0.2851563
vn 0.7871094 0.4296875 0.4433594
vn 0.7246094 0.640625 0.25
vt 0.4072266 -0.1630859
vt 0.2285156 -0.1542969
vt 0.2719727 -0.2998047
vt 0.1835938 -0.1542969
f 92/92/92 93/93/93 94/94/94
f 93/93/93 95/95/95 94/94/94
v 3.297607 3.4729 -4.253906
v 0 4.911377 -4.253906
v 3.297607 3.4729 -2.849609
v 0 4.911377 -2.849609
vn 0.6992188 0.7148438 0
vn 0 0.9980469 0
vn 0.6992188 0.7148438 0
vn 0 0.9980469 0
vt 0.4384766 -0.02685547
vt 0.4384766 -0.02685547
vt 0.4379883 -0.02685547
vt 0.4379883 -0.02685547
f 96/96/96 97/97/97 98/98/98
f 97/97/97 99/99/99 98/98/98
v 3.297607 3.4729 -4.253906
v 3.297607 3.4729 -2.849609
v 4.910645 0.0004882813 -4.253906
v 4.910645 0.0004882813 -2.849609
vn 0.6992188 0.7148438 0
vn 0.6992188 0.7148438 0
vn 0.9980469 0 0
vn 0.9980469 0 0
vt 0.4384766 -0.02685547
vt 0.4379883 -0.02636719
vt 0.4384766 -0.02734375
vt 0.4311523 -0.02636719
f 100/100/100 101/101/101 102/102/102
f 101/101/101 103/103/103 102/102/102
v 0 -4.910156 -4.253906
v -3.283203 -3.471924 -2.849609
v -3.283203 -3.471924 -4.253906
v -4.910645 0.0004882813 -4.253906
v -3.297607 3.4729 -2.849609
v -3.297607 3.4729 -4.253906
v 0 -4.062256 5.213867
v -1.511963 -2.4021 6.452393
v -2.206299 -3.470703 5.167969
v 4.411865 -2.510498 3.21875
v 2.206299 -3.470703 5.167969
v 2.756348 -4.296631 3.172119
v -4.892822 -1.180664 3.217041
v -4.411865 -2.510498 3.21875
v -3.500488 -2.058838 5.073486
vn 0 -1 0
vn -0.6972656 -0.7167969 0
vn -0.6972656 -0.7167969 0
vn -1 0 0
vn -0.6992188 0.7148438 0
vn -0.6992188 0.7148438 0
vn 0 -0.8203125 0.5703125
vn -0.3476563 -0.6015625 0.7207031
vn -0.4042969 -0.7109375 0.5742188
vn 0.7695313 -0.5351563 0.3476563
vn 0.4042969 -0.7109375 0.5742188
vn 0.46875 -0.8242188 0.3183594
vn -0.9160156 -0.3027344 0.2675781
vn -0.7695313 -0.5351563 0.3476563
vn -0.703125 -0.4101563 0.5820313
vt 0.4384766 -0.02734375
vt 0.4389648 -0.02685547
vt 0.4384766 -0.02734375
vt 0.4384766 -0.02734375
vt 0.4379883 -0.02636719
vt 0.4384766 -0.02685547
vt 1.09375 0.5073242
vt 1.168945 0.6645508
vt 1.206543 0.5751953
vt 0.04003906 -0.4272461
vt 0.2104492 -0.4150391
vt 0.1445313 -0.5268555
vt -0.006347656 -0.3349609
vt 0.04003906 -0.4272461
vt 0.1254883 -0.3359375
f 104/104/104 105/105/105 106/106/106
f 107/107/107 108/108/108 109/109/109
f 110/110/110 111/111/111 112/112/112
f 113/113/113 114/114/114 115/115/115
f 116/116/116 117/117/117 118/118/118
g polygon1
usemtl mat_m_kil_env
v 4.607666 2.660156 -6.744385
v 4.607666 2.660156 -4.112549
v 5.320557 0 -6.744385
v 5.320557 0 -4.112549
v 4.607666 -2.660156 -6.744385
v 4.607666 -2.660156 -4.112549
v 2.660156 -4.607666 -6.744385
v 2.660156 -4.607666 -4.112549
v 0 -5.320557 -6.744385
v 0 -5.320557 -4.112549
v -2.660156 -4.607666 -6.744385
v -2.660156 -4.607666 -4.112549
v -4.607666 -2.660156 -6.744385
v -4.607666 -2.660156 -4.112549
v -5.320557 0 -6.744385
v -5.320557 0 -4.112549
v -4.607666 2.660156 -6.744385
v -4.607666 2.660156 -4.112549
v -2.660156 4.607666 -6.744385
v -2.660156 4.607666 -4.112549
v 0 5.320557 -6.744385
v 0 5.320557 -4.112549
v 2.660156 4.607666 -6.744385
v 2.660156 4.607666 -4.112549
v 4.607666 2.660156 -6.744385
v 4.607666 2.660156 -4.112549
vn 0.8652344 0.5 0
vn 0.8652344 0.5 0
vn 0.9980469 0 0
vn 0.9980469 0 0
vn 0.8652344 -0.5 0
vn 0.8652344 -0.5 0
vn 0.5 -0.8652344 0
vn 0.5 -0.8652344 0
vn 0 -1 0
vn 0 -1 0
vn -0.5 -0.8652344 0
vn -0.5 -0.8652344 0
vn -0.8652344 -0.5 0
vn -0.8652344 -0.5 0
vn -1 0 0
vn -1 0 0
vn -0.8652344 0.5 0
vn -0.8652344 0.5 0
vn -0.5 0.8652344 0
vn -0.5 0.8652344 0
vn 0 0.9980469 0
vn 0 0.9980469 0
vn 0.5 0.8652344 0
vn 0.5 0.8652344 0
vn 0.8652344 0.5 0
vn 0.8652344 0.5 0
vt NaN 0
vt NaN 0
vt NaN 0
vt NaN 0
vt NaN 0
vt NaN 0
vt NaN 0
vt NaN 0
vt NaN 0
vt NaN 0
vt NaN 0
vt NaN 0
vt NaN 0
vt NaN 0
vt NaN 0
vt NaN 0
vt NaN 0
vt NaN 0
vt NaN 0
vt NaN 0
vt NaN 0
vt NaN 0
vt NaN 0
vt NaN 0
vt NaN 0
vt NaN 0
f 119/119/119 120/120/120 121/121/121
f 120/120/120 122/122/122 121/121/121
f 121/121/121 122/122/122 123/123/123
f 122/122/122 124/124/124 123/123/123
f 123/123/123 124/124/124 125/125/125
f 124/124/124 126/126/126 125/125/125
f 125/125/125 126/126/126 127/127/127
f 126/126/126 128/128/128 127/127/127
f 127/127/127 128/128/128 129/129/129
f 128/128/128 130/130/130 129/129/129
f 129/129/129 130/130/130 131/131/131
f 130/130/130 132/132/132 131/131/131
f 131/131/131 132/132/132 133/133/133
f 132/132/132 134/134/134 133/133/133
f 133/133/133 134/134/134 135/135/135
f 134/134/134 136/136/136 135/135/135
f 135/135/135 136/136/136 137/137/137
f 136/136/136 138/138/138 137/137/137
f 137/137/137 138/138/138 139/139/139
f 138/138/138 140/140/140 139/139/139
f 139/139/139 140/140/140 141/141/141
f 140/140/140 142/142/142 141/141/141
f 141/141/141 142/142/142 143/143/143
f 142/142/142 144/144/144 143/143/143
v 4.607666 2.660156 -4.112549
v 4.277832 2.469727 -3.745361
v 5.320557 0 -4.112549
v 4.939697 0 -3.745361
v 4.607666 -2.660156 -4.112549
v 4.277832 -2.469727 -3.745361
v 2.660156 -4.607666 -4.112549
v 2.469727 -4.277832 -3.745361
v 0 -5.320557 -4.112549
v 0 -4.939697 -3.745361
v -2.660156 -4.607666 -4.112549
v -2.469727 -4.277832 -3.745361
v -4.607666 -2.660156 -4.112549
v -4.277832 -2.469727 -3.745361
v -5.320557 0 -4.112549
v -4.939697 0 -3.745361
v -4.607666 2.660156 -4.112549
v -4.277832 2.469727 -3.745361
v -2.660156 4.607666 -4.112549
v -2.469727 4.277832 -3.745361
v 0 5.320557 -4.112549
v 0 4.939697 -3.745361
v 2.660156 4.607666 -4.112549
v 2.469727 4.277832 -3.745361
v 4.607666 2.660156 -4.112549
v 4.277832 2.469727 -3.745361
vn 0.6015625 0.3476563 0.7207031
vn 0.6015625 0.3476563 0.7207031
vn 0.6933594 0 0.7207031
vn 0.6933594 0 0.7207031
vn 0.6015625 -0.3476563 0.7207031
vn 0.6015625 -0.3476563 0.7207031
vn 0.3476563 -0.6015625 0.7207031
vn 0.3476563 -0.6015625 0.7207031
vn 0 -0.6933594 0.7207031
vn 0 -0.6933594 0.7207031
vn -0.3476563 -0.6015625 0.7207031
vn -0.3476563 -0.6015625 0.7207031
vn -0.6015625 -0.3476563 0.7207031
vn -0.6015625 -0.3476563 0.7207031
vn -0.6933594 0 0.7207031
vn -0.6933594 0 0.7207031
vn -0.6015625 0.3476563 0.7207031
vn -0.6015625 0.3476563 0.7207031
vn -0.3476563 0.6015625 0.7207031
vn -0.3476563 0.6015625 0.7207031
vn 0 0.6933594 0.7207031
vn 0 0.6933594 0.7207031
vn 0.3476563 0.6015625 0.7207031
vn 0.3476563 0.6015625 0.7207031
vn 0.6015625 0.3476563 0.7207031
vn 0.6015625 0.3476563 0.7207031
vt NaN 0
vt NaN 0
vt NaN 0
vt NaN 0
vt NaN 0
vt NaN 0
vt NaN 0
vt NaN 0
vt NaN 0
vt NaN 0
vt NaN 0
vt NaN 0
vt NaN 0
vt NaN 0
vt NaN 0
vt NaN 0
vt NaN 0
vt NaN 0
vt NaN 0
vt NaN 0
vt NaN 0
vt NaN 0
vt NaN 0
vt NaN 0
vt NaN 0
vt NaN 0
f 145/145/145 146/146/146 147/147/147
f 146/146/146 148/148/148 147/147/147
f 147/147/147 148/148/148 149/149/149
f 148/148/148 150/150/150 149/149/149
f 149/149/149 150/150/150 151/151/151
f 150/150/150 152/152/152 151/151/151
f 151/151/151 152/152/152 153/153/153
f 152/152/152 154/154/154 153/153/153
f 153/153/153 154/154/154 155/155/155
f 154/154/154 156/156/156 155/155/155
f 155/155/155 156/156/156 157/157/157
f 156/156/156 158/158/158 157/157/157
f 157/157/157 158/158/158 159/159/159
f 158/158/158 160/160/160 159/159/159
f 159/159/159 160/160/160 161/161/161
f 160/160/160 162/162/162 161/161/161
f 161/161/161 162/162/162 163/163/163
f 162/162/162 164/164/164 163/163/163
f 163/163/163 164/164/164 165/165/165
f 164/164/164 166/166/166 165/165/165
f 165/165/165 166/166/166 167/167/167
f 166/166/166 168/168/168 167/167/167
f 167/167/167 168/168/168 169/169/169
f 168/168/168 170/170/170 169/169/169
v 4.223145 2.438232 -6.756592
v 4.607666 2.660156 -6.744385
v 4.876221 0 -6.756592
v 5.320557 0 -6.744385
v 4.223145 -2.438232 -6.756592
v 4.607666 -2.660156 -6.744385
v 2.438232 -4.223145 -6.756592
v 2.660156 -4.607666 -6.744385
v 0 -4.876221 -6.756592
v 0 -5.320557 -6.744385
v -2.438232 -4.223145 -6.756592
v -2.660156 -4.607666 -6.744385
v -4.223145 -2.438232 -6.756592
v -4.607666 -2.660156 -6.744385
v -4.876221 0 -6.756592
v -5.320557 0 -6.744385
v -4.223145 2.438232 -6.756592
v -4.607666 2.660156 -6.744385
v -2.438232 4.223145 -6.756592
v -2.660156 4.607666 -6.744385
v 0 4.876221 -6.756592
v 0 5.320557 -6.744385
v 2.438232 4.223145 -6.756592
v 2.660156 4.607666 -6.744385
v 4.223145 2.438232 -6.756592
v 4.607666 2.660156 -6.744385
vn 0 0 -1
vn 0 0 -1
vn 0 0 -1
vn 0 0 -1
vn 0 0 -1
vn 0 0 -1
vn 0 0 -1
vn 0 0 -1
vn 0 0 -1
vn 0 0 -1
vn 0 0 -1
vn 0 0 -1
vn 0 0 -1
vn 0 0 -1
vn 0 0 -1
vn 0 0 -1
vn 0 0 -1
vn 0 0 -1
vn 0 0 -1
vn 0 0 -1
vn 0 0 -1
vn 0 0 -1
vn 0 0 -1
vn 0 0 -1
vn 0 0 -1
vn 0 0 -1
vt NaN 0
vt NaN 0
vt NaN 0
vt NaN 0
vt NaN 0
vt NaN 0
vt NaN 0
vt NaN 0
vt NaN 0
vt NaN 0
vt NaN 0
vt NaN 0
vt NaN 0
vt NaN 0
vt NaN 0
vt NaN 0
vt NaN 0
vt NaN 0
vt NaN 0
vt NaN 0
vt NaN 0
vt NaN 0
vt NaN 0
vt NaN 0
vt NaN 0
vt NaN 0
f 171/171/171 172/172/172 173/173/173
f 172/172/172 174/174/174 173/173/173
f 173/173/173 174/174/174 175/175/175
f 174/174/174 176/176/176 175/175/175
f 175/175/175 176/176/176 177/177/177
f 176/176/176 178/178/178 177/177/177
f 177/177/177 178/178/178 179/179/179
f 178/178/178 180/180/180 179/179/179
f 179/179/179 180/180/180 181/181/181
f 180/180/180 182/182/182 181/181/181
f 181/181/181 182/182/182 183/183/183
f 182/182/182 184/184/184 183/183/183
f 183/183/183 184/184/184 185/185/185
f 184/184/184 186/186/186 185/185/185
f 185/185/185 186/186/186 187/187/187
f 186/186/186 188/188/188 187/187/187
f 187/187/187 188/188/188 189/189/189
f 188/188/188 190/190/190 189/189/189
f 189/189/189 190/190/190 191/191/191
f 190/190/190 192/192/192 191/191/191
f 191/191/191 192/192/192 193/193/193
f 192/192/192 194/194/194 193/193/193
f 193/193/193 194/194/194 195/195/195
f 194/194/194 196/196/196 195/195/195
v 2.238281 1.292236 6.529785
v 1.225098 0.7072754 7.236816
v 2.584717 0 6.529785
v 1.414795 0 7.236816
v 2.238281 -1.292236 6.529785
v 1.225098 -0.7072754 7.236816
v 1.292236 -2.238281 6.529785
v 0.7072754 -1.225098 7.236816
v 0 -2.584717 6.529785
v 0 -1.414795 7.236816
v -1.292236 -2.238281 6.529785
v -0.7072754 -1.225098 7.236816
v -2.238281 -1.292236 6.529785
v -1.225098 -0.7072754 7.236816
v -2.584717 0 6.529785
v -1.414795 0 7.236816
v -2.238281 1.292236 6.529785
v -1.225098 0.7072754 7.236816
v -1.292236 2.238281 6.529785
v -0.7072754 1.225098 7.236816
v 0 2.584717 6.529785
v 0 1.414795 7.236816
v 1.292236 2.238281 6.529785
v 0.7072754 1.225098 7.236816
v 2.238281 1.292236 6.529785
v 1.225098 0.7072754 7.236816
vn 0.5449219 0.3164063 0.7773438
vn 0.3164063 0.1816406 0.9316406
vn 0.6289063 0 0.7773438
vn 0.3652344 0 0.9316406
vn 0.5449219 -0.3144531 0.7773438
vn 0.3164063 -0.1816406 0.9316406
vn 0.3144531 -0.5449219 0.7773438
vn 0.1816406 -0.3164063 0.9316406
vn 0 -0.6308594 0.7773438
vn 0 -0.3652344 0.9316406
vn -0.3144531 -0.5449219 0.7773438
vn -0.1816406 -0.3164063 0.9316406
vn -0.5449219 -0.3144531 0.7773438
vn -0.3164063 -0.1816406 0.9316406
vn -0.6289063 0 0.7773438
vn -0.3652344 0 0.9316406
vn -0.5449219 0.3164063 0.7773438
vn -0.3164063 0.1816406 0.9316406
vn -0.3144531 0.546875 0.7753906
vn -0.1816406 0.3164063 0.9316406
vn 0 0.6308594 0.7753906
vn 0 0.3652344 0.9316406
vn 0.3144531 0.546875 0.7753906
vn 0.1816406 0.3164063 0.9316406
vn 0.5449219 0.3164063 0.7773438
vn 0.3164063 0.1816406 0.9316406
vt NaN 0
vt NaN 0
vt NaN 0
vt NaN 0
vt NaN 0
vt NaN 0
vt NaN 0
vt NaN 0
vt NaN 0
vt NaN 0
vt NaN 0
vt NaN 0
vt NaN 0
vt NaN 0
vt NaN 0
vt NaN 0
vt NaN 0
vt NaN 0
vt NaN 0
vt NaN 0
vt NaN 0
vt NaN 0
vt NaN 0
vt NaN 0
vt NaN 0
vt NaN 0
f 197/197/197 198/198/198 199/199/199
f 198/198/198 200/200/200 199/199/199
f 199/199/199 200/200/200 201/201/201
f 200/200/200 202/202/202 201/201/201
f 201/201/201 202/202/202 203/203/203
f 202/202/202 204/204/204 203/203/203
f 203/203/203 204/204/204 205/205/205
f 204/204/204 206/206/206 205/205/205
f 205/205/205 206/206/206 207/207/207
f 206/206/206 208/208/208 207/207/207
f 207/207/207 208/208/208 209/209/209
f 208/208/208 210/210/210 209/209/209
f 209/209/209 210/210/210 211/211/211
f 210/210/210 212/212/212 211/211/211
f 211/211/211 212/212/212 213/213/213
f 212/212/212 214/214/214 213/213/213
f 213/213/213 214/214/214 215/215/215
f 214/214/214 216/216/216 215/215/215
f 215/215/215 216/216/216 217/217/217
f 216/216/216 218/218/218 217/217/217
f 217/217/217 218/218/218 219/219/219
f 218/218/218 220/220/220 219/219/219
f 219/219/219 220/220/220 221/221/221
f 220/220/220 222/222/222 221/221/221
v 0 -5.369141 -3.127441
v 0 -5.369141 0.6291504
v -2.68457 -4.649902 -3.127441
v -2.68457 -4.649902 0.6291504
v -4.649902 -2.68457 -3.127441
v -4.649902 -2.68457 0.6291504
v -5.369141 0 -3.127441
v -5.369141 0 0.6291504
v -4.649902 2.68457 -3.127441
v -4.649902 2.68457 0.6291504
v -2.68457 4.649902 -3.127441
v -2.68457 4.649902 0.6291504
v 0 5.369141 -3.127441
v 0 5.369141 0.6291504
v 2.68457 4.649902 -3.127441
v 2.68457 4.649902 0.6291504
v 4.649902 2.68457 -3.127441
v 4.649902 2.68457 0.6291504
v 5.369141 0 -3.127441
v 5.369141 0 0.6291504
v 4.649902 -2.68457 -3.127441
v 4.649902 -2.68457 0.6291504
v 2.68457 -4.649902 -3.127441
v 2.68457 -4.649902 0.6291504
v 0 -5.369141 -3.127441
v 0 -5.369141 0.6291504
vn 0 -1 0
vn 0 -0.9960938 0.09375
vn -0.5 -0.8652344 0
vn -0.4960938 -0.8632813 0.08789063
vn -0.8652344 -0.5 0
vn -0.8613281 -0.5 0.08203125
vn -1 0 0
vn -0.9960938 0 0.078125
vn -0.8652344 0.5 0
vn -0.8632813 0.5 0.08007813
vn -0.5 0.8652344 0
vn -0.4941406 0.8652344 0.0859375
vn 0 0.9980469 0
vn 0 0.9960938 0.08984375
vn 0.5 0.8652344 0
vn 0.4941406 0.8652344 0.0859375
vn 0.8652344 0.5 0
vn 0.8632813 0.5 0.08007813
vn 0.9980469 0 0
vn 0.9960938 0 0.078125
vn 0.8652344 -0.5 0
vn 0.8613281 -0.5 0.08203125
vn 0.5 -0.8652344 0
vn 0.4960938 -0.8632813 0.08789063
vn 0 -1 0
vn 0 -0.9960938 0.09375
vt NaN 0
vt NaN 0
vt NaN 0
vt NaN 0
vt NaN 0
vt NaN 0
vt NaN 0
vt NaN 0
vt NaN 0
vt NaN 0
vt NaN 0
vt NaN 0
vt NaN 0
vt NaN 0
vt NaN 0
vt NaN 0
vt NaN 0
vt NaN 0
vt NaN 0
vt NaN 0
vt NaN 0
vt NaN 0
vt NaN 0
vt NaN 0
vt NaN 0
vt NaN 0
f 223/223/223 224/224/224 225/225/225
f 224/224/224 226/226/226 225/225/225
f 225/225/225 226/226/226 227/227/227
f 226/226/226 228/228/228 227/227/227
f 227/227/227 228/228/228 229/229/229
f 228/228/228 230/230/230 229/229/229
f 229/229/229 230/230/230 231/231/231
f 230/230/230 232/232/232 231/231/231
f 231/231/231 232/232/232 233/233/233
f 232/232/232 234/234/234 233/233/233
f 233/233/233 234/234/234 235/235/235
f 234/234/234 236/236/236 235/235/235
f 235/235/235 236/236/236 237/237/237
f 236/236/236 238/238/238 237/237/237
f 237/237/237 238/238/238 239/239/239
f 238/238/238 240/240/240 239/239/239
f 239/239/239 240/240/240 241/241/241
f 240/240/240 242/242/242 241/241/241
f 241/241/241 242/242/242 243/243/243
f 242/242/242 244/244/244 243/243/243
f 243/243/243 244/244/244 245/245/245
f 244/244/244 246/246/246 245/245/245
f 245/245/245 246/246/246 247/247/247
f 246/246/246 248/248/248 247/247/247
v 2.68457 4.649902 0.6291504
v 2.484131 4.275635 3.162354
v 4.649902 2.68457 0.6291504
v 4.30249 2.484131 3.162354
v 5.369141 0 0.6291504
v 4.968018 0 3.162354
v 4.649902 -2.68457 0.6291504
v 4.30249 -2.484131 3.162354
v 2.68457 -4.649902 0.6291504
v 2.484131 -4.223389 3.162354
v 0 -5.369141 0.6291504
v 0 -4.896729 3.162354
v -2.68457 -4.649902 0.6291504
v -2.484131 -4.223389 3.162354
v -4.649902 -2.68457 0.6291504
v -4.30249 -2.484131 3.162354
v -5.369141 0 0.6291504
v -4.968018 0 3.162354
v -4.649902 2.68457 0.6291504
v -4.30249 2.484131 3.162354
v -2.68457 4.649902 0.6291504
v -2.484131 4.275635 3.162354
v 0 5.369141 0.6291504
v 0 4.868896 3.162354
v 2.68457 4.649902 0.6291504
v 2.484131 4.275635 3.162354
vn 0.4941406 0.8652344 0.0859375
vn 0.4648438 0.8242188 0.3222656
vn 0.8632813 0.5 0.08007813
vn 0.8183594 0.4765625 0.3203125
vn 0.9960938 0 0.078125
vn 0.9472656 0 0.3183594
vn 0.8613281 -0.5 0.08203125
vn 0.8183594 -0.4785156 0.3183594
vn 0.4960938 -0.8632813 0.08789063
vn 0.46875 -0.8242188 0.3183594
vn 0 -0.9960938 0.09375
vn 0 -0.9472656 0.3203125
vn -0.4960938 -0.8632813 0.08789063
vn -0.46875 -0.8242188 0.3183594
vn -0.8613281 -0.5 0.08203125
vn -0.8183594 -0.4785156 0.3183594
vn -0.9960938 0 0.078125
vn -0.9472656 0 0.3183594
vn -0.8632813 0.5 0.08007813
vn -0.8183594 0.4765625 0.3203125
vn -0.4941406 0.8652344 0.0859375
vn -0.4648438 0.8242188 0.3222656
vn 0 0.9960938 0.08984375
vn 0 0.9472656 0.3203125
vn 0.4941406 0.8652344 0.0859375
vn 0.4648438 0.8242188 0.3222656
vt NaN 0
vt NaN 0
vt NaN 0
vt NaN 0
vt NaN 0
vt NaN 0
vt NaN 0
vt NaN 0
vt NaN 0
vt NaN 0
vt NaN 0
vt NaN 0
vt NaN 0
vt NaN 0
vt NaN 0
vt NaN 0
vt NaN 0
vt NaN 0
vt NaN 0
vt NaN 0
vt NaN 0
vt NaN 0
vt NaN 0
vt NaN 0
vt NaN 0
vt NaN 0
f 249/249/249 250/250/250 251/251/251
f 250/250/250 252/252/252 251/251/251
f 251/251/251 252/252/252 253/253/253
f 252/252/252 254/254/254 253/253/253
f 253/253/253 254/254/254 255/255/255
f 254/254/254 256/256/256 255/255/255
f 255/255/255 256/256/256 257/257/257
f 256/256/256 258/258/258 257/257/257
f 257/257/257 258/258/258 259/259/259
f 258/258/258 260/260/260 259/259/259
f 259/259/259 260/260/260 261/261/261
f 260/260/260 262/262/262 261/261/261
f 261/261/261 262/262/262 263/263/263
f 262/262/262 264/264/264 263/263/263
f 263/263/263 264/264/264 265/265/265
f 264/264/264 266/266/266 265/265/265
f 265/265/265 266/266/266 267/267/267
f 266/266/266 268/268/268 267/267/267
f 267/267/267 268/268/268 269/269/269
f 268/268/268 270/270/270 269/269/269
f 269/269/269 270/270/270 271/271/271
f 270/270/270 272/272/272 271/271/271
f 271/271/271 272/272/272 273/273/273
f 272/272/272 274/274/274 273/273/273
v 3.409912 1.96875 5.089844
v 2.238281 1.292236 6.529785
v 3.937256 0 5.089844
v 2.584717 0 6.529785
v 3.409912 -1.96875 5.089844
v 2.238281 -1.292236 6.529785
v 1.96875 -3.409912 5.089844
v 1.292236 -2.238281 6.529785
v 0 -3.919189 5.089844
v 0 -2.584717 6.529785
v -1.96875 -3.409912 5.089844
v -1.292236 -2.238281 6.529785
v -3.409912 -1.96875 5.089844
v -2.238281 -1.292236 6.529785
v -3.937256 0 5.089844
v -2.584717 0 6.529785
v -3.409912 1.96875 5.089844
v -2.238281 1.292236 6.529785
v -1.96875 3.382813 5.089844
v -1.292236 2.238281 6.529785
v 0 3.925537 5.089844
v 0 2.584717 6.529785
v 1.96875 3.382813 5.089844
v 1.292236 2.238281 6.529785
v 3.409912 1.96875 5.089844
v 2.238281 1.292236 6.529785
vn 0.7011719 0.4082031 0.5839844
vn 0.5449219 0.3164063 0.7773438
vn 0.8125 0 0.5839844
vn 0.6289063 0 0.7773438
vn 0.703125 -0.4101563 0.5820313
vn 0.5449219 -0.3144531 0.7773438
vn 0.4042969 -0.7109375 0.5742188
vn 0.3144531 -0.5449219 0.7773438
vn 0 -0.8203125 0.5703125
vn 0 -0.6308594 0.7773438
vn -0.4042969 -0.7109375 0.5742188
vn -0.3144531 -0.5449219 0.7773438
vn -0.703125 -0.4101563 0.5820313
vn -0.5449219 -0.3144531 0.7773438
vn -0.8125 0 0.5839844
vn -0.6289063 0 0.7773438
vn -0.7011719 0.4082031 0.5839844
vn -0.5449219 0.3164063 0.7773438
vn -0.4042969 0.7089844 0.578125
vn -0.3144531 0.546875 0.7753906
vn 0 0.8203125 0.5722656
vn 0 0.6308594 0.7753906
vn 0.4042969 0.7089844 0.578125
vn 0.3144531 0.546875 0.7753906
vn 0.7011719 0.4082031 0.5839844
vn 0.5449219 0.3164063 0.7773438
vt NaN 0
vt NaN 0
vt NaN 0
vt NaN 0
vt NaN 0
vt NaN 0
vt NaN 0
vt NaN 0
vt NaN 0
vt NaN 0
vt NaN 0
vt NaN 0
vt NaN 0
vt NaN 0
vt NaN 0
vt NaN 0
vt NaN 0
vt NaN 0
vt NaN 0
vt NaN 0
vt NaN 0
vt NaN 0
vt NaN 0
vt NaN 0
vt NaN 0
vt NaN 0
f 275/275/275 276/276/276 277/277/277
f 276/276/276 278/278/278 277/277/277
f 277/277/277 278/278/278 279/279/279
f 278/278/278 280/280/280 279/279/279
f 279/279/279 280/280/280 281/281/281
f 280/280/280 282/282/282 281/281/281
f 281/281/281 282/282/282 283/283/283
f 282/282/282 284/284/284 283/283/283
f 283/283/283 284/284/284 285/285/285
f 284/284/284 286/286/286 285/285/285
f 285/285/285 286/286/286 287/287/287
f 286/286/286 288/288/288 287/287/287
f 287/287/287 288/288/288 289/289/289
f 288/288/288 290/290/290 289/289/289
f 289/289/289 290/290/290 291/291/291
f 290/290/290 292/292/292 291/291/291
f 291/291/291 292/292/292 293/293/293
f 292/292/292 294/294/294 293/293/293
f 293/293/293 294/294/294 295/295/295
f 294/294/294 296/296/296 295/295/295
f 295/295/295 296/296/296 297/297/297
f 296/296/296 298/298/298 297/297/297
f 297/297/297 298/298/298 299/299/299
f 298/298/298 300/300/300 299/299/299
v 4.30249 2.484131 3.162354
v 3.409912 1.96875 5.089844
v 4.968018 0 3.162354
v 3.937256 0 5.089844
v 4.30249 -2.484131 3.162354
v 3.409912 -1.96875 5.089844
v 2.484131 -4.223389 3.162354
v 1.96875 -3.409912 5.089844
v 0 -4.896729 3.162354
v 0 -3.919189 5.089844
v -2.484131 -4.223389 3.162354
v -1.96875 -3.409912 5.089844
v -4.30249 -2.484131 3.162354
v -3.409912 -1.96875 5.089844
v -4.968018 0 3.162354
v -3.937256 0 5.089844
v -4.30249 2.484131 3.162354
v -3.409912 1.96875 5.089844
v -2.484131 4.275635 3.162354
v -1.96875 3.382813 5.089844
v 0 4.868896 3.162354
v 0 3.925537 5.089844
v 2.484131 4.275635 3.162354
v 1.96875 3.382813 5.089844
v 4.30249 2.484131 3.162354
v 3.409912 1.96875 5.089844
vn 0.8183594 0.4765625 0.3203125
vn 0.7011719 0.4082031 0.5839844
vn 0.9472656 0 0.3183594
vn 0.8125 0 0.5839844
vn 0.8183594 -0.4785156 0.3183594
vn 0.703125 -0.4101563 0.5820313
vn 0.46875 -0.8242188 0.3183594
vn 0.4042969 -0.7109375 0.5742188
vn 0 -0.9472656 0.3203125
vn 0 -0.8203125 0.5703125
vn -0.46875 -0.8242188 0.3183594
vn -0.4042969 -0.7109375 0.5742188
vn -0.8183594 -0.4785156 0.3183594
vn -0.703125 -0.4101563 0.5820313
vn -0.9472656 0 0.3183594
vn -0.8125 0 0.5839844
vn -0.8183594 0.4765625 0.3203125
vn -0.7011719 0.4082031 0.5839844
vn -0.4648438 0.8242188 0.3222656
vn -0.4042969 0.7089844 0.578125
vn 0 0.9472656 0.3203125
vn 0 0.8203125 0.5722656
vn 0.4648438 0.8242188 0.3222656
vn 0.4042969 0.7089844 0.578125
vn 0.8183594 0.4765625 0.3203125
vn 0.7011719 0.4082031 0.5839844
vt NaN 0
vt NaN 0
vt NaN 0
vt NaN 0
vt NaN 0
vt NaN 0
vt NaN 0
vt NaN 0
vt NaN 0
vt NaN 0
vt NaN 0
vt NaN 0
vt NaN 0
vt NaN 0
vt NaN 0
vt NaN 0
vt NaN 0
vt NaN 0
vt NaN 0
vt NaN 0
vt NaN 0
vt NaN 0
vt NaN 0
vt NaN 0
vt NaN 0
vt NaN 0
f 301/301/301 302/302/302 303/303/303
f 302/302/302 304/304/304 303/303/303
f 303/303/303 304/304/304 305/305/305
f 304/304/304 306/306/306 305/305/305
f 305/305/305 306/306/306 307/307/307
f 306/306/306 308/308/308 307/307/307
f 307/307/307 308/308/308 309/309/309
f 308/308/308 310/310/310 309/309/309
f 309/309/309 310/310/310 311/311/311
f 310/310/310 312/312/312 311/311/311
f 311/311/311 312/312/312 313/313/313
f 312/312/312 314/314/314 313/313/313
f 313/313/313 314/314/314 315/315/315
f 314/314/314 316/316/316 315/315/315
f 315/315/315 316/316/316 317/317/317
f 316/316/316 318/318/318 317/317/317
f 317/317/317 318/318/318 319/319/319
f 318/318/318 320/320/320 319/319/319
f 319/319/319 320/320/320 321/321/321
f 320/320/320 322/322/322 321/321/321
f 321/321/321 322/322/322 323/323/323
f 322/322/322 324/324/324 323/323/323
f 323/323/323 324/324/324 325/325/325
f 324/324/324 326/326/326 325/325/325
v 4.277832 -2.469727 -3.745361
v 4.939697 0 -3.745361
v -4.939697 0 -3.745361
v 4.277832 2.469727 -3.745361
v -4.277832 2.469727 -3.745361
v 2.469727 4.277832 -3.745361
v -2.469727 4.277832 -3.745361
v 0 4.939697 -3.745361
vn 0 0 0.9980469
vn 0 0 0.9980469
vn 0 0 0.9980469
vn 0 0 0.9980469
vn 0 0 0.9980469
vn 0 0 0.9980469
vn 0 0 0.9980469
vn 0 0 0.9980469
vt NaN 0
vt NaN 0
vt NaN 0
vt NaN 0
vt NaN 0
vt NaN 0
vt NaN 0
vt NaN 0
f 327/327/327 328/328/328 329/329/329
f 328/328/328 330/330/330 329/329/329
f 329/329/329 330/330/330 331/331/331
f 330/330/330 332/332/332 331/331/331
f 331/331/331 332/332/332 333/333/333
f 332/332/332 334/334/334 333/333/333
v -4.876221 0 -6.756592
v -4.223145 2.438232 -6.756592
v 4.223145 2.438232 -6.756592
v -2.438232 4.223145 -6.756592
v 2.438232 4.223145 -6.756592
v 0 4.876221 -6.756592
vn 0 0 -1
vn 0 0 -1
vn 0 0 -1
vn 0 0 -1
vn 0 0 -1
vn 0 0 -1
vt NaN 0
vt NaN 0
vt NaN 0
vt NaN 0
vt NaN 0
vt NaN 0
f 335/335/335 336/336/336 337/337/337
f 336/336/336 338/338/338 337/337/337
f 337/337/337 338/338/338 339/339/339
f 338/338/338 340/340/340 339/339/339
v -2.438232 -4.223145 -6.756592
v -4.223145 -2.438232 -6.756592
v 4.223145 -2.438232 -6.756592
v -4.876221 0 -6.756592
v 4.876221 0 -6.756592
v 4.223145 2.438232 -6.756592
vn 0 0 -1
vn 0 0 -1
vn 0 0 -1
vn 0 0 -1
vn 0 0 -1
vn 0 0 -1
vt NaN 0
vt NaN 0
vt NaN 0
vt NaN 0
vt NaN 0
vt NaN 0
f 341/341/341 342/342/342 343/343/343
f 342/342/342 344/344/344 343/343/343
f 343/343/343 344/344/344 345/345/345
f 344/344/344 346/346/346 345/345/345
v -2.68457 -4.649902 -3.127441
v -4.649902 -2.68457 -3.127441
v 4.649902 -2.68457 -3.127441
v -5.369141 0 -3.127441
v 5.369141 0 -3.127441
v 4.649902 2.68457 -3.127441
vn 0 0 -1
vn 0 0 -1
vn 0 0 -1
vn 0 0 -1
vn 0 0 -1
vn 0 0 -1
vt NaN 0
vt NaN 0
vt NaN 0
vt NaN 0
vt NaN 0
vt NaN 0
f 347/347/347 348/348/348 349/349/349
f 348/348/348 350/350/350 349/349/349
f 349/349/349 350/350/350 351/351/351
f 350/350/350 352/352/352 351/351/351
v -5.369141 0 -3.127441
v -4.649902 2.68457 -3.127441
v 4.649902 2.68457 -3.127441
v -2.68457 4.649902 -3.127441
v 2.68457 4.649902 -3.127441
v 0 5.369141 -3.127441
vn 0 0 -1
vn 0 0 -1
vn 0 0 -1
vn 0 0 -1
vn 0 0 -1
vn 0 0 -1
vt NaN 0
vt NaN 0
vt NaN 0
vt NaN 0
vt NaN 0
vt NaN 0
f 353/353/353 354/354/354 355/355/355
f 354/354/354 356/356/356 355/355/355
f 355/355/355 356/356/356 357/357/357
f 356/356/356 358/358/358 357/357/357
v 1.225098 0.7072754 7.236816
v 0.7072754 1.225098 7.236816
v 0 0 7.529297
v 0 1.414795 7.236816
v -0.7072754 1.225098 7.236816
vn 0.3164063 0.1816406 0.9316406
vn 0.1816406 0.3164063 0.9316406
vn 0 0 0.9980469
vn 0 0.3652344 0.9316406
vn -0.1816406 0.3164063 0.9316406
vt NaN 0
vt NaN 0
vt NaN 0
vt NaN 0
vt NaN 0
f 359/359/359 360/360/360 361/361/361
f 360/360/360 362/362/362 361/361/361
f 361/361/361 362/362/362 363/363/363
v 1.225098 0.7072754 7.236816
v 0 0 7.529297
v 1.414795 0 7.236816
v 1.225098 -0.7072754 7.236816
vn 0.3164063 0.1816406 0.9316406
vn 0 0 0.9980469
vn 0.3652344 0 0.9316406
vn 0.3164063 -0.1816406 0.9316406
vt NaN 0
vt NaN 0
vt NaN 0
vt NaN 0
f 364/364/364 365/365/365 366/366/366
f 365/365/365 367/367/367 366/366/366
v 1.225098 -0.7072754 7.236816
v 0 0 7.529297
v 0.7072754 -1.225098 7.236816
v 0 -1.414795 7.236816
vn 0.3164063 -0.1816406 0.9316406
vn 0 0 0.9980469
vn 0.1816406 -0.3164063 0.9316406
vn 0 -0.3652344 0.9316406
vt NaN 0
vt NaN 0
vt NaN 0
vt NaN 0
f 368/368/368 369/369/369 370/370/370
f 369/369/369 371/371/371 370/370/370
v 0 -1.414795 7.236816
v 0 0 7.529297
v -0.7072754 -1.225098 7.236816
v -1.225098 -0.7072754 7.236816
vn 0 -0.3652344 0.9316406
vn 0 0 0.9980469
vn -0.1816406 -0.3164063 0.9316406
vn -0.3164063 -0.1816406 0.9316406
vt NaN 0
vt NaN 0
vt NaN 0
vt NaN 0
f 372/372/372 373/373/373 374/374/374
f 373/373/373 375/375/375 374/374/374
v -1.225098 -0.7072754 7.236816
v 0 0 7.529297
v -1.414795 0 7.236816
v -1.225098 0.7072754 7.236816
vn -0.3164063 -0.1816406 0.9316406
vn 0 0 0.9980469
vn -0.3652344 0 0.9316406
vn -0.3164063 0.1816406 0.9316406
vt NaN 0
vt NaN 0
vt NaN 0
vt NaN 0
f 376/376/376 377/377/377 378/378/378
f 377/377/377 379/379/379 378/378/378
v 0 -5.369141 -3.127441
v -2.68457 -4.649902 -3.127441
v 2.68457 -4.649902 -3.127441
v 4.649902 -2.68457 -3.127441
vn 0 0 -1
vn 0 0 -1
vn 0 0 -1
vn 0 0 -1
vt NaN 0
vt NaN 0
vt NaN 0
vt NaN 0
f 380/380/380 381/381/381 382/382/382
f 381/381/381 383/383/383 382/382/382
v 0 -4.876221 -6.756592
v -2.438232 -4.223145 -6.756592
v 2.438232 -4.223145 -6.756592
v 4.223145 -2.438232 -6.756592
vn 0 0 -1
vn 0 0 -1
vn 0 0 -1
vn 0 0 -1
vt NaN 0
vt NaN 0
vt NaN 0
vt NaN 0
f 384/384/384 385/385/385 386/386/386
f 385/385/385 387/387/387 386/386/386
v 2.469727 -4.277832 -3.745361
v 4.277832 -2.469727 -3.745361
v -4.277832 -2.469727 -3.745361
v -4.939697 0 -3.745361
vn 0 0 0.9980469
vn 0 0 0.9980469
vn 0 0 0.9980469
vn 0 0 0.9980469
vt NaN 0
vt NaN 0
vt NaN 0
vt NaN 0
f 388/388/388 389/389/389 390/390/390
f 389/389/389 391/391/391 390/390/390
v 0 -4.939697 -3.745361
v 2.469727 -4.277832 -3.745361
v -2.469727 -4.277832 -3.745361
v -4.277832 -2.469727 -3.745361
vn 0 0 0.9980469
vn 0 0 0.9980469
vn 0 0 0.9980469
vn 0 0 0.9980469
vt NaN 0
vt NaN 0
vt NaN 0
vt NaN 0
f 392/392/392 393/393/393 394/394/394
f 393/393/393 395/395/395 394/394/394
v -0.7072754 1.225098 7.236816
v -1.225098 0.7072754 7.236816
v 0 0 7.529297
vn -0.1816406 0.3164063 0.9316406
vn -0.3164063 0.1816406 0.9316406
vn 0 0 0.9980469
vt NaN 0
vt NaN 0
vt NaN 0
f 396/396/396 397/397/397 398/398/398
