# Blender 3.1.0
# www.blender.org
mtllib Head.mtl
o cloud_head
v 4.123290 17.012695 -2.024762
v 4.489825 14.972125 -0.792175
v 3.941772 14.675572 0.741705
v 2.877012 13.632739 0.413524
v -0.000000 14.104945 -0.075188
v 2.560299 14.811531 1.611652
v -1.038201 16.987606 -5.769928
v 1.038201 16.987606 -5.769928
v 1.660930 17.913122 -5.246705
v 0.980984 19.312174 -4.477691
v 0.000000 19.510763 -4.314081
v -0.980984 19.312174 -4.477691
v -1.281644 18.954464 -5.654024
v -0.622135 19.043463 -6.471373
v -0.961471 17.741364 -6.477307
v 0.000000 17.477060 -6.679541
v 0.961471 17.741364 -6.477307
v 2.593211 12.942146 -2.830919
v 1.456799 12.394015 -3.589576
v 1.515589 12.040160 -1.964830
v 0.000000 11.778387 -2.393906
v -1.515589 12.040160 -1.964830
v -2.593211 12.942146 -2.830919
v -1.898398 13.625154 -4.269179
v -3.319365 18.079744 -0.357775
v -4.099561 17.008183 0.138105
v -3.941772 14.675572 0.741705
v -2.560299 14.811531 1.611652
v -2.877012 13.632739 0.413524
v -3.043485 17.631447 1.199133
v -1.817503 19.170395 1.224939
v -1.072256 19.277464 -1.327022
v 0.000000 19.485626 -1.253304
v 1.072256 19.277464 -1.327022
v 0.622135 19.043463 -6.471373
v 0.000000 18.614586 -6.750360
v 0.000000 19.708595 -5.617736
v -3.770072 14.669695 -2.493357
v -3.062437 13.321352 -1.067211
v -4.489825 14.972125 -0.792175
v 1.592379 16.439886 3.185373
v 3.319365 18.079744 -0.357775
v 4.099561 17.008183 0.138105
v 3.146286 16.450939 1.660854
v 1.281644 18.954464 -5.654024
v 3.770072 14.669695 -2.493357
v 3.062437 13.321352 -1.067211
v 1.817503 19.170395 1.224939
v 3.043485 17.631447 1.199133
v -0.000000 16.755341 3.420627
v -1.456799 12.394015 -3.589576
v 0.000000 12.495498 -4.075044
v 0.000000 18.033646 3.206023
v -1.592379 16.439886 3.185373
v -1.683314 18.485273 2.518269
v -3.146286 16.450939 1.660854
v -1.660930 17.913122 -5.246705
v 0.000000 19.489304 1.828015
v 1.683314 18.485273 2.518269
v -4.123290 17.012695 -2.024762
v 1.898398 13.625154 -4.269179
v 2.457927 18.805038 -3.599314
v 2.547942 18.056982 -2.270394
v 2.831059 16.929827 -3.157832
v 2.471873 16.556288 -4.695738
v 2.689081 15.796239 -3.448058
v 1.426967 16.051205 -5.632918
v 1.201462 14.696465 -4.529039
v 0.000000 16.087791 -5.893266
v 0.000000 14.423476 -4.761311
v -1.201462 14.696465 -4.529039
v -2.689081 15.796239 -3.448058
v -2.547942 18.056982 -2.270394
v -1.426967 16.051205 -5.632918
v -2.471873 16.556288 -4.695738
v -2.831059 16.929827 -3.157832
v 1.242124 19.761513 -2.993488
v -2.457927 18.805038 -3.599314
v -1.242124 19.761513 -2.993488
v 0.000000 19.946760 -2.974297
vn 0.2669 -0.6443 0.7167
vn -0.0000 -0.7997 0.6004
vn 0.1870 -0.8703 0.4556
vn -0.0000 -0.3251 -0.9457
vn -0.0000 -0.4611 -0.8874
vn -0.5364 -0.2155 -0.8160
vn 0.5364 -0.2155 -0.8160
vn 0.7754 0.5688 -0.2744
vn 0.4627 0.8506 -0.2496
vn 0.8178 0.2099 -0.5359
vn -0.0000 0.9689 -0.2475
vn -0.0000 0.9939 -0.1099
vn -0.4627 0.8506 -0.2496
vn -0.3820 0.5672 -0.7296
vn -0.7754 0.5688 -0.2744
vn -0.5840 -0.1956 -0.7878
vn 0.5840 -0.1956 -0.7878
vn 0.2820 -0.9116 0.2990
vn -0.0000 -0.9900 0.1411
vn 0.3673 -0.7723 -0.5183
vn -0.2820 -0.9116 0.2990
vn -0.5378 -0.8223 0.1860
vn -0.7121 -0.6350 -0.2995
vn -0.9629 -0.2697 -0.0071
vn -0.7563 -0.3846 0.5293
vn -0.8894 0.3554 0.2877
vn -0.1870 -0.8703 0.4556
vn -0.2669 -0.6443 0.7167
vn -0.4834 0.5442 0.6857
vn -0.7364 0.0529 0.6744
vn -0.6842 0.3860 0.6188
vn -0.7581 0.4572 0.4650
vn -0.4857 0.8510 0.1995
vn -0.0000 0.9248 0.3805
vn -0.4146 0.9048 0.0968
vn -0.0000 0.9904 0.1385
vn 0.4146 0.9048 0.0968
vn 0.3820 0.5672 -0.7296
vn -0.0000 0.2039 -0.9790
vn -0.8336 -0.2626 -0.4859
vn 0.7581 0.4572 0.4650
vn 0.8894 0.3554 0.2877
vn 0.6537 0.7567 0.0082
vn 0.7364 0.0529 0.6744
vn 0.7563 -0.3846 0.5293
vn 0.6842 0.3860 0.6188
vn 0.5378 -0.8223 0.1860
vn 0.4834 0.5442 0.6857
vn 0.4857 0.8510 0.1995
vn -0.4884 -0.2713 -0.8294
vn -0.3673 -0.7723 -0.5183
vn -0.0000 -0.6757 -0.7372
vn -0.0000 0.4245 0.9054
vn 0.0001 0.4995 0.8663
vn 0.9629 -0.2697 -0.0071
vn -0.8301 0.3927 -0.3959
vn 0.7121 -0.6350 -0.2995
vn 0.8336 -0.2626 -0.4859
vn 0.8301 0.3927 -0.3959
vn -0.8178 0.2099 -0.5359
vn -0.6537 0.7567 0.0082
vn 0.4884 -0.2713 -0.8294
vn 0.8637 0.2136 -0.4565
vn 0.8136 0.5520 -0.1825
vn 0.7372 0.6692 -0.0933
vn 0.8451 -0.1350 -0.5174
vn 0.7751 -0.0863 -0.6259
vn 0.4672 -0.3332 -0.8190
vn 0.4258 -0.2832 -0.8594
vn -0.0000 -0.4018 -0.9157
vn -0.4258 -0.2832 -0.8594
vn -0.7751 -0.0863 -0.6259
vn -0.7372 0.6692 -0.0933
vn -0.4672 -0.3332 -0.8190
vn -0.8451 -0.1350 -0.5174
vn -0.8637 0.2136 -0.4565
vn 0.4084 0.9127 0.0106
vn -0.8136 0.5520 -0.1825
vn -0.4084 0.9127 0.0106
vn -0.0000 0.9997 -0.0231
vt 0.389285 0.398304
vt 0.462103 0.586425
vt 0.538994 0.558455
vt 0.561452 0.651751
vt 0.568088 0.618632
vt 0.595807 0.487198
vt 0.192770 0.513514
vt 0.192772 0.513513
vt 0.201721 0.420360
vt 0.210226 0.260225
vt 0.216940 0.232182
vt 0.210226 0.260225
vt 0.162597 0.308816
vt 0.126636 0.335297
vt 0.144310 0.467136
vt 0.138190 0.502255
vt 0.144310 0.467136
vt 0.417237 0.856765
vt 0.390204 0.934414
vt 0.477861 0.913522
vt 0.458996 0.958946
vt 0.477858 0.913524
vt 0.417237 0.856765
vt 0.356106 0.845139
vt 0.431126 0.248635
vt 0.458029 0.364359
vt 0.538994 0.558455
vt 0.595807 0.487198
vt 0.561452 0.651751
vt 0.525557 0.236360
vt 0.496395 0.080706
vt 0.363645 0.141582
vt 0.370391 0.134737
vt 0.363645 0.141582
vt 0.126636 0.335297
vt 0.113192 0.376719
vt 0.151385 0.242431
vt 0.409671 0.658653
vt 0.506353 0.723380
vt 0.499964 0.737883
vt 0.462103 0.586425
vt 0.629631 0.423133
vt 0.631689 0.298739
vt 0.991740 0.269925
vt 0.431126 0.248635
vt 0.458029 0.364359
vt 0.571518 0.366779
vt 0.162594 0.308818
vt 0.409671 0.658653
vt 0.499964 0.737883
vt 0.506353 0.723380
vt 0.496395 0.080706
vt 0.525557 0.236360
vt 0.656735 0.361165
vt 0.890082 0.270952
vt 0.390204 0.934414
vt 0.362659 0.956576
vt 0.890082 0.420185
vt 0.629631 0.423133
vt 0.631689 0.298739
vt 0.991740 0.269925
vt 0.561231 0.093452
vt 0.981430 0.496840
vt 0.571518 0.366779
vt 0.201718 0.420362
vt 0.890082 0.513981
vt 0.524347 0.025964
vt 0.561231 0.093452
vt 0.981430 0.496840
vt 0.389287 0.398302
vt 0.356106 0.845139
vt 0.269133 0.277117
vt 0.345598 0.297177
vt 0.320504 0.447844
vt 0.254758 0.526524
vt 0.327222 0.574758
vt 0.220470 0.602147
vt 0.304153 0.713444
vt 0.208112 0.617108
vt 0.297327 0.733625
vt 0.304155 0.713451
vt 0.327222 0.574758
vt 0.345598 0.297177
vt 0.220470 0.602147
vt 0.254758 0.526524
vt 0.320504 0.447839
vt 0.274421 0.148435
vt 0.269133 0.277117
vt 0.274420 0.148430
vt 0.269803 0.121695
s 1
usemtl cloud_acessory_tx
f 6/6/1 5/5/2 4/4/3
f 16/16/4 69/79/5 7/7/6
f 16/16/4 8/8/7 69/79/5
f 45/48/8 10/10/9 9/9/10
f 37/37/11 11/11/12 10/10/9
f 37/37/11 12/12/13 11/11/12
f 14/14/14 13/13/15 12/12/13
f 14/14/14 15/15/16 13/13/15
f 8/8/7 16/16/4 17/17/17
f 20/20/18 21/21/19 19/19/20
f 5/5/2 22/22/21 21/21/19
f 39/40/22 23/23/23 22/22/21
f 40/41/24 27/27/25 26/26/26
f 29/29/27 28/28/28 27/27/25
f 29/29/27 39/40/22 5/5/2
f 55/62/29 56/64/30 54/60/31
f 55/62/29 30/30/32 56/64/30
f 55/62/29 31/31/33 30/30/32
f 58/67/34 32/32/35 31/31/33
f 58/67/34 33/33/36 32/32/35
f 34/34/37 33/33/36 58/67/34
f 37/37/11 35/35/38 36/36/39
f 14/14/14 12/12/13 37/37/11
f 39/39/22 40/41/24 38/38/40
f 49/53/41 43/46/42 42/45/43
f 44/47/44 43/46/42 49/53/41
f 44/47/44 3/3/45 43/46/42
f 44/47/44 6/6/1 3/3/45
f 41/43/46 6/6/1 44/47/44
f 4/4/3 5/5/2 47/50/47
f 9/9/10 17/17/17 45/48/8
f 8/8/7 17/17/17 9/9/10
f 28/28/28 5/5/2 54/59/31
f 28/28/28 29/29/27 5/5/2
f 58/67/34 31/31/33 55/62/29
f 59/68/48 48/52/49 58/67/34
f 49/53/41 48/52/49 59/68/48
f 38/38/40 23/23/23 39/39/22
f 38/38/40 24/24/50 23/23/23
f 36/36/39 14/14/14 37/37/11
f 51/56/51 23/23/23 24/24/50
f 52/57/52 21/21/19 51/56/51
f 19/19/20 21/21/19 52/57/52
f 41/44/46 53/58/53 50/55/54
f 55/63/29 54/61/31 53/58/53
f 27/27/25 40/41/24 39/40/22
f 3/3/45 2/2/55 43/46/42
f 26/26/26 56/64/30 30/30/32
f 26/26/26 27/27/25 56/64/30
f 3/3/45 47/50/47 2/2/55
f 3/3/45 4/4/3 47/50/47
f 41/42/46 5/5/2 6/6/1
f 29/29/27 27/27/25 39/40/22
f 22/22/21 51/56/51 21/21/19
f 49/53/41 59/68/48 44/47/44
f 15/15/16 16/16/4 7/7/6
f 53/58/53 58/66/34 55/63/29
f 53/58/53 59/69/48 58/66/34
f 40/41/24 26/26/26 60/70/56
f 18/18/57 46/49/58 47/51/47
f 2/2/55 46/49/58 1/1/59
f 41/42/46 50/54/54 5/5/2
f 13/13/15 57/65/60 12/12/13
f 15/15/16 57/65/60 13/13/15
f 15/15/16 7/7/6 57/65/60
f 38/38/40 40/41/24 60/70/56
f 54/59/31 5/5/2 50/54/54
f 14/14/14 16/16/4 15/15/16
f 14/14/14 36/36/39 16/16/4
f 56/64/30 28/28/28 54/60/31
f 27/27/25 28/28/28 56/64/30
f 35/35/38 10/10/9 45/48/8
f 35/35/38 37/37/11 10/10/9
f 39/40/22 22/22/21 5/5/2
f 30/30/32 25/25/61 26/26/26
f 4/4/3 3/3/45 6/6/1
f 23/23/23 51/56/51 22/22/21
f 41/43/46 44/47/44 59/68/48
f 41/44/46 59/69/48 53/58/53
f 54/61/31 50/55/54 53/58/53
f 34/34/37 58/67/34 48/52/49
f 18/18/57 61/71/62 46/49/58
f 18/18/57 19/19/20 61/71/62
f 20/20/18 5/5/2 21/21/19
f 35/35/38 16/16/4 36/36/39
f 35/35/38 17/17/17 16/16/4
f 20/20/18 47/50/47 5/5/2
f 47/50/47 20/20/18 18/18/57
f 35/35/38 45/48/8 17/17/17
f 20/20/18 19/19/20 18/18/57
f 46/49/58 2/2/55 47/51/47
f 1/1/59 43/46/42 2/2/55
f 64/74/63 62/72/64 63/73/65
f 64/74/63 65/75/66 62/72/64
f 66/76/67 67/77/68 65/75/66
f 68/78/69 67/77/68 66/76/67
f 68/78/69 69/79/5 67/77/68
f 70/80/70 69/79/5 68/78/69
f 70/80/70 71/81/71 69/79/5
f 24/24/50 72/82/72 71/81/71
f 38/38/40 72/82/72 24/24/50
f 31/31/33 25/25/61 30/30/32
f 31/31/33 73/83/73 25/25/61
f 32/32/35 73/83/73 31/31/33
f 62/72/64 34/34/37 63/73/65
f 9/9/10 10/10/9 62/72/64
f 66/76/67 65/75/66 64/74/63
f 74/84/74 71/81/71 72/82/72
f 8/8/7 9/9/10 67/77/68
f 66/76/67 64/74/63 1/1/59
f 74/84/74 7/7/6 69/79/5
f 72/82/72 75/85/75 74/84/74
f 72/82/72 76/86/76 75/85/75
f 38/38/40 60/70/56 72/82/72
f 62/72/64 77/87/77 34/34/37
f 75/85/75 78/88/78 57/65/60
f 76/86/76 78/88/78 75/85/75
f 76/86/76 73/83/73 78/88/78
f 48/52/49 63/73/65 34/34/37
f 48/52/49 42/45/43 63/73/65
f 49/53/41 42/45/43 48/52/49
f 42/45/43 43/46/42 1/1/59
f 78/88/78 12/12/13 57/65/60
f 32/32/35 79/89/79 78/88/78
f 78/88/78 79/89/79 12/12/13
f 32/32/35 33/33/36 79/89/79
f 24/24/50 52/57/52 51/56/51
f 24/24/50 70/80/70 52/57/52
f 68/78/69 61/71/62 70/80/70
f 67/77/68 69/79/5 8/8/7
f 61/71/62 68/78/69 66/76/67
f 19/19/20 52/57/52 61/71/62
f 77/87/77 10/10/9 11/11/12
f 77/87/77 62/72/64 10/10/9
f 76/86/76 60/70/56 73/83/73
f 79/89/79 11/11/12 12/12/13
f 79/89/79 80/90/80 11/11/12
f 74/84/74 69/79/5 71/81/71
f 60/70/56 25/25/61 73/83/73
f 46/49/58 66/76/67 1/1/59
f 32/32/35 78/88/78 73/83/73
f 63/73/65 1/1/59 64/74/63
f 42/45/43 1/1/59 63/73/65
f 9/9/10 65/75/66 67/77/68
f 72/82/72 60/70/56 76/86/76
f 57/65/60 7/7/6 74/84/74
f 62/72/64 65/75/66 9/9/10
f 70/80/70 24/24/50 71/81/71
f 61/71/62 66/76/67 46/49/58
f 74/84/74 75/85/75 57/65/60
f 26/26/26 25/25/61 60/70/56
f 77/87/77 33/33/36 34/34/37
f 77/87/77 80/90/80 33/33/36
f 80/90/80 79/89/79 33/33/36
f 61/71/62 52/57/52 70/80/70
f 11/11/12 80/90/80 77/87/77
