# Blender 3.1.0
# www.blender.org
mtllib Scarf.mtl
o cloud_scarf
v 2.358328 10.749477 -0.574320
v 1.694880 10.034874 -1.433856
v 1.937392 10.314750 -1.811856
v 1.971381 11.032436 -1.883667
v 1.392672 10.805914 -2.209368
v 0.718926 11.154829 -2.445493
v 0.000000 11.359862 0.193359
v 0.000000 11.162230 -2.619404
v -0.718926 11.154829 -2.445493
v -1.160270 11.209779 -1.859749
v -2.115793 11.455947 -0.895937
v -2.248787 11.165043 -0.189397
v -2.119440 11.279669 0.449317
v -2.451242 10.737226 0.125706
v -1.979599 11.060301 1.211883
v -1.942089 10.169396 1.269089
v -0.903077 9.739670 2.119268
v -0.960302 9.509148 1.712010
v 2.458298 10.985124 -0.874008
v 2.248787 11.165043 -0.189397
v 2.451242 10.737226 0.125706
v 1.979599 11.060301 1.211883
v 1.942089 10.169396 1.269089
v 1.327898 10.712850 1.709431
v 0.844417 10.498368 2.291703
v 0.000000 10.642523 2.405732
v -0.844417 10.498368 2.291703
v -1.327898 10.712850 1.709431
v -1.392672 10.805914 -2.209368
v -1.971381 11.032436 -1.883667
v -1.937392 10.314750 -1.811856
v -2.358328 10.749477 -0.574320
v -1.694880 10.034874 -1.433856
v -1.950200 10.506350 -0.608400
v -1.083547 9.988339 -2.282817
v -0.719873 10.374166 -2.713219
v -0.906157 9.790593 -1.968430
v 0.000000 10.268661 -2.803418
v 0.719873 10.374166 -2.713219
v 0.000000 9.655395 -1.979920
v 1.083547 9.988339 -2.282817
v 1.160270 11.209779 -1.859749
v -2.458298 10.985124 -0.874008
v 2.119440 11.279669 0.449317
v -1.949937 10.257891 0.328479
v 1.950200 10.506350 -0.608400
v 2.002925 10.516600 -0.224611
v 1.949937 10.257891 0.328479
v 0.903077 9.739670 2.119268
v 0.000000 9.714229 2.412218
v -2.002925 10.516600 -0.224610
v 2.115793 11.455947 -0.895937
v 0.960302 9.509148 1.712010
v -1.249381 9.937161 -1.813558
v 0.000000 9.375000 1.935062
v 1.249381 9.937161 -1.813558
v 0.906157 9.790593 -1.968430
vn 0.6223 -0.7797 -0.0698
vn 0.7252 -0.4672 -0.5058
vn 0.8916 -0.4462 0.0772
vn 0.4301 -0.6404 -0.6363
vn 0.5893 0.4459 -0.6738
vn 0.4950 0.2891 -0.8194
vn 0.2784 0.7665 -0.5788
vn 0.0091 0.7245 -0.6892
vn -0.0043 0.9944 0.1052
vn -0.9835 -0.1803 0.0127
vn -0.5611 0.5773 0.5931
vn -0.4956 0.8579 0.1354
vn -0.7498 -0.5012 0.4321
vn 0.9860 0.1140 -0.1218
vn 0.6125 0.7790 0.1340
vn 0.5459 0.6074 0.5771
vn 0.7501 -0.4605 0.4747
vn 0.9791 -0.1985 0.0442
vn 0.4062 0.5178 0.7529
vn -0.0226 0.5962 0.8025
vn 0.4400 0.3398 0.8313
vn -0.4377 0.5448 0.7152
vn -0.5960 -0.4729 0.6490
vn -0.4475 0.3293 0.8314
vn -0.7224 -0.4760 -0.5016
vn -0.9880 0.1197 -0.0971
vn -0.5912 0.4472 -0.6712
vn -0.8776 -0.4725 0.0813
vn -0.6223 -0.7797 -0.0698
vn -0.4863 -0.8634 0.1342
vn -0.4987 0.2628 -0.8260
vn -0.3451 -0.1583 -0.9251
vn -0.4288 -0.6530 -0.6243
vn -0.2743 0.7693 -0.5771
vn -0.4565 -0.8440 -0.2815
vn -0.6768 0.7361 0.0118
vn -0.5862 -0.6173 0.5247
vn -0.3165 -0.8572 -0.4062
vn -0.0034 -0.3500 -0.9368
vn 0.3462 -0.1582 -0.9247
vn -0.0022 -0.8160 -0.5780
vn 0.1424 0.9364 -0.3209
vn 0.4015 0.9141 -0.0558
vn -0.4428 0.8957 -0.0407
vn -0.1167 0.9334 -0.3393
vn -0.6249 -0.7778 -0.0668
vn 0.5177 0.8411 0.1567
vn 0.4863 -0.8634 0.1342
vn 0.3008 -0.9052 -0.3001
vn 0.6249 -0.7778 -0.0668
vn 0.5845 -0.4671 0.6635
vn 0.0004 -0.4645 0.8856
vn -0.3008 -0.9052 -0.3001
vn 0.6271 -0.5758 0.5247
vn -0.0000 -0.8282 0.5604
vn 0.4565 -0.8440 -0.2815
vn 0.3165 -0.8572 -0.4062
vt 0.673932 0.874843
vt 0.611024 0.612339
vt 0.574469 0.717693
vt 0.570607 0.719365
vt 0.506894 0.608427
vt 0.499860 0.318539
vt 0.765202 0.045989
vt 0.486847 0.045989
vt 0.499860 0.318539
vt 0.543559 0.517445
vt 0.641304 0.793166
vt 0.705684 0.781714
vt 0.764294 0.844944
vt 0.746469 0.934758
vt 0.827776 0.784074
vt 0.851093 0.757068
vt 0.948452 0.318063
vt 0.913821 0.348034
vt 0.640995 0.899908
vt 0.705684 0.781714
vt 0.746469 0.934758
vt 0.827776 0.784074
vt 0.851093 0.757069
vt 0.920738 0.509758
vt 0.958935 0.296978
vt 0.979607 0.045989
vt 0.958935 0.296978
vt 0.920738 0.509760
vt 0.506893 0.608427
vt 0.570606 0.719368
vt 0.574469 0.717693
vt 0.673932 0.874843
vt 0.611024 0.612339
vt 0.672146 0.721681
vt 0.503715 0.448474
vt 0.470407 0.294530
vt 0.551586 0.366753
vt 0.444556 0.045989
vt 0.470407 0.294530
vt 0.551910 0.045989
vt 0.503715 0.448474
vt 0.543559 0.517445
vt 0.640995 0.899908
vt 0.764294 0.844944
vt 0.745373 0.765800
vt 0.672146 0.721681
vt 0.704697 0.769822
vt 0.745374 0.765799
vt 0.948452 0.318063
vt 0.993627 0.045989
vt 0.704697 0.769822
vt 0.641304 0.793166
vt 0.913821 0.348034
vt 0.559336 0.497748
vt 0.942609 0.045989
vt 0.559336 0.497748
vt 0.551586 0.366753
s 1
usemtl cloud_acessory_tx
f 2/2/1 3/3/2 1/1/3
f 41/41/4 4/4/5 3/3/2
f 41/41/4 5/5/6 4/4/5
f 6/6/7 8/8/8 7/7/9
f 14/14/10 15/15/11 13/13/12
f 14/14/10 16/16/13 15/15/11
f 3/3/2 19/19/14 1/1/3
f 4/4/5 19/19/14 3/3/2
f 19/19/14 20/20/15 1/1/3
f 22/22/16 23/23/17 21/21/18
f 24/24/19 23/23/17 22/22/16
f 26/26/20 24/24/19 7/7/9
f 26/26/20 25/25/21 24/24/19
f 28/28/22 17/17/23 27/27/24
f 31/31/25 43/43/26 30/30/27
f 32/32/28 43/43/26 31/31/25
f 33/33/29 34/34/30 32/32/28
f 32/32/28 31/31/25 33/33/29
f 29/29/31 36/36/32 35/35/33
f 9/9/34 36/36/32 29/29/31
f 35/35/33 54/54/35 31/31/25
f 9/9/34 8/8/8 36/36/32
f 13/13/12 7/7/9 12/12/36
f 18/18/37 28/28/22 16/16/13
f 18/18/37 17/17/23 28/28/22
f 35/35/33 37/37/38 54/54/35
f 8/8/8 38/38/39 36/36/32
f 8/8/8 39/39/40 38/38/39
f 6/6/7 39/39/40 8/8/8
f 6/6/7 5/5/6 39/39/40
f 35/35/33 40/40/41 37/37/38
f 38/38/39 40/40/41 35/35/33
f 38/38/39 41/41/4 40/40/41
f 39/39/40 41/41/4 38/38/39
f 36/36/32 38/38/39 35/35/33
f 5/5/6 41/41/4 39/39/40
f 26/26/20 28/28/22 27/27/24
f 7/7/9 28/28/22 26/26/20
f 15/15/11 16/16/13 28/28/22
f 7/7/9 42/42/42 6/6/7
f 52/52/43 4/4/5 42/42/42
f 30/30/27 11/11/44 10/10/45
f 32/32/28 12/12/36 43/43/26
f 32/32/28 14/14/10 12/12/36
f 45/45/46 14/14/10 32/32/28
f 22/22/16 7/7/9 24/24/19
f 21/21/18 20/20/15 44/44/47
f 16/16/13 45/45/46 18/18/37
f 16/16/13 14/14/10 45/45/46
f 1/1/3 46/46/48 2/2/1
f 1/1/3 47/47/49 46/46/48
f 1/1/3 48/48/50 47/47/49
f 21/21/18 48/48/50 1/1/3
f 11/11/44 43/43/26 12/12/36
f 25/25/21 49/49/51 24/24/19
f 25/25/21 50/50/52 49/49/51
f 26/26/20 50/50/52 25/25/21
f 26/26/20 27/27/24 50/50/52
f 27/27/24 17/17/23 50/50/52
f 32/32/28 51/51/53 45/45/46
f 11/11/44 30/30/27 43/43/26
f 20/20/15 7/7/9 44/44/47
f 20/20/15 52/52/43 7/7/9
f 28/28/22 7/7/9 15/15/11
f 35/35/33 30/30/27 29/29/31
f 31/31/25 30/30/27 35/35/33
f 24/24/19 53/53/54 23/23/17
f 49/49/51 53/53/54 24/24/19
f 4/4/5 52/52/43 19/19/14
f 42/42/42 7/7/9 52/52/43
f 42/42/42 4/4/5 5/5/6
f 7/7/9 13/13/12 15/15/11
f 29/29/31 10/10/45 9/9/34
f 30/30/27 10/10/45 29/29/31
f 23/23/17 53/53/54 48/48/50
f 21/21/18 23/23/17 48/48/50
f 5/5/6 6/6/7 42/42/42
f 44/44/47 22/22/16 21/21/18
f 31/31/25 54/54/35 33/33/29
f 55/55/55 17/17/23 18/18/37
f 55/55/55 50/50/52 17/17/23
f 44/44/47 7/7/9 22/22/16
f 20/20/15 19/19/14 52/52/43
f 56/56/56 3/3/2 2/2/1
f 11/11/44 12/12/36 7/7/9
f 11/11/44 7/7/9 10/10/45
f 9/9/34 10/10/45 7/7/9
f 9/9/34 7/7/9 8/8/8
f 3/3/2 56/56/56 41/41/4
f 56/56/56 57/57/57 41/41/4
f 57/57/57 40/40/41 41/41/4
f 21/21/18 1/1/3 20/20/15
f 49/49/51 55/55/55 53/53/54
f 49/49/51 50/50/52 55/55/55
f 32/32/28 34/34/30 51/51/53
f 12/12/36 14/14/10 13/13/12
