# Blender 3.1.0
# www.blender.org
mtllib Boomerang.mtl
o Boomerang
v -0.006348 -0.925577 -6.632828
v -0.004395 -5.035981 -3.197767
v -1.241699 -0.611039 -3.245413
v -0.923340 -6.009635 0.959246
v -0.009277 -0.615874 -0.354839
v 0.006836 -8.867066 5.136286
v 0.925293 -6.009635 0.959246
v 0.001953 -11.407886 5.163561
v -0.002930 -10.841646 2.564392
v -0.006348 -0.925577 -6.632828
v -1.241699 -0.611039 -3.245413
v -0.007812 3.311539 -3.974272
v -0.917480 5.934186 0.875349
v -0.009277 11.596218 2.170446
v -0.009277 12.553987 4.921535
v -0.009277 -0.615874 -0.354839
v 0.925293 -6.009635 0.959246
v 1.241699 -0.611039 -3.245413
v -0.004395 -5.035981 -3.197767
v -0.006348 -0.925577 -6.632828
v -0.009277 12.553987 4.921535
v -0.009277 10.042516 5.322042
v 0.908203 5.934186 0.875349
v -0.009277 -0.615874 -0.354839
v 1.241699 -0.611039 -3.245413
v -1.241699 -0.611039 -3.245413
v -0.009277 -0.615874 -0.354839
v -0.917480 5.934186 0.875349
v -0.009277 10.042516 5.322042
v -0.009277 12.553987 4.921535
v -0.004395 -5.035981 -3.197767
v -0.002930 -10.841646 2.564392
v -0.923340 -6.009635 0.959246
v 0.001953 -11.407886 5.163561
v 0.006836 -8.867066 5.136286
v -0.006348 -0.925577 -6.632828
v -0.007812 3.311539 -3.974272
v 1.241699 -0.611039 -3.245413
v 0.908203 5.934186 0.875349
v -0.009277 12.553987 4.921535
v 0.908203 5.934186 0.875349
v -0.009277 11.596218 2.170446
v -0.007812 3.311539 -3.974272
v -0.004395 -5.035981 -3.197767
v 0.925293 -6.009635 0.959246
v -0.002930 -10.841646 2.564392
vn -0.9149 -0.2592 -0.3096
vn -0.9240 -0.2614 -0.2792
vn -0.9895 -0.1115 -0.0915
vn -0.9566 0.1467 0.2519
vn -0.8093 0.3194 0.4929
vn 0.9353 0.0909 0.3419
vn 0.9354 0.1719 0.3091
vn 0.9910 -0.1061 0.0814
vn 0.9781 -0.2032 -0.0461
vn -0.9095 0.2207 -0.3522
vn -0.9152 0.2259 -0.3337
vn -0.9220 0.2285 -0.3126
vn -0.9385 0.2155 -0.2699
vn -0.9786 0.1798 -0.0999
vn -0.9834 0.1714 -0.0597
vn 0.8890 0.2479 0.3851
vn 0.9976 -0.0675 -0.0117
vn 0.9895 -0.1113 -0.0919
vn 0.9227 -0.2629 -0.2819
vn 0.9135 -0.2606 -0.3124
vn 0.9838 0.0282 0.1769
vn 0.9785 -0.0045 0.2061
vn 0.9174 -0.1778 0.3561
vn 0.9010 -0.1986 0.3857
vn 0.8995 -0.1990 0.3890
vn -0.9019 -0.1972 0.3842
vn -0.9033 -0.1968 0.3812
vn -0.9189 -0.1763 0.3529
vn -0.9789 -0.0045 0.2041
vn -0.9841 0.0279 0.1752
vn -0.9265 -0.2652 -0.2669
vn -0.9732 -0.2136 -0.0850
vn -0.9552 -0.2302 -0.1862
vn -0.9910 -0.1026 0.0864
vn -0.9755 0.0042 0.2201
vn 0.9078 0.2232 -0.3552
vn 0.9186 0.2334 -0.3189
vn 0.9135 0.2285 -0.3365
vn 0.9229 0.2377 -0.3029
vn 0.9831 0.1731 -0.0603
vn 0.9404 0.2130 -0.2651
vn 0.9782 0.1816 -0.1008
vn 0.9307 0.2180 -0.2937
vn 0.9252 -0.2673 -0.2695
vt -0.089844 0.039062
vt 0.234375 0.039062
vt -0.039062 0.703125
vt 0.546875 0.710938
vt -0.039062 0.039062
vt 1.070312 0.046875
vt 0.546875 0.710938
vt 1.230469 0.710938
vt 1.070312 0.046875
vt 0.101562 0.054688
vt 0.058594 0.773438
vt 0.269531 0.054688
vt 0.320312 0.671875
vt 0.585938 0.054688
vt 0.589844 0.546875
vt -0.039062 0.039062
vt 0.546875 0.710938
vt -0.039062 0.703125
vt 0.234375 0.039062
vt -0.089844 0.039062
vt 0.105469 0.703125
vt 0.207031 0.039062
vt 0.308594 0.703125
vt 0.546875 0.039062
vt 0.511719 0.703125
vt 0.511719 0.703125
vt 0.546875 0.039062
vt 0.308594 0.703125
vt 0.207031 0.039062
vt 0.105469 0.703125
vt 0.234375 0.039062
vt 1.070312 0.046875
vt 0.546875 0.710938
vt 1.230469 0.710938
vt 1.070312 0.046875
vt 0.101562 0.054688
vt 0.269531 0.054688
vt 0.058594 0.773438
vt 0.320312 0.671875
vt 0.589844 0.546875
vt 0.320312 0.671875
vt 0.585938 0.054688
vt 0.269531 0.054688
vt 0.234375 0.039062
vt 0.546875 0.710938
vt 1.070312 0.046875
s 1
usemtl lambert2
f 1/1/1 2/2/2 3/3/3
f 2/2/2 4/4/4 3/3/3
f 3/3/3 4/4/4 5/5/5
f 4/4/4 6/6/6 5/5/5
f 5/5/5 6/6/6 7/7/7
f 6/6/6 8/8/8 7/7/7
f 7/7/7 8/8/8 9/9/9
f 10/10/10 11/11/11 12/12/12
f 11/11/11 13/13/13 12/12/12
f 12/12/12 13/13/13 14/14/14
f 13/13/13 15/15/15 14/14/14
f 16/16/16 17/17/17 18/18/18
f 17/17/17 19/19/19 18/18/18
f 18/18/18 19/19/19 20/20/20
f 21/21/21 22/22/22 23/23/23
f 22/22/22 24/24/24 23/23/23
f 23/23/23 24/24/24 25/25/25
f 26/26/26 27/27/27 28/28/28
f 27/27/27 29/29/29 28/28/28
f 28/28/28 29/29/29 30/30/30
f 31/31/31 32/32/32 33/33/33
f 32/32/32 34/34/34 33/33/33
f 33/33/33 34/34/34 35/35/35
f 36/36/36 37/37/37 38/38/38
f 37/37/37 39/39/39 38/38/38
f 40/40/40 41/41/41 42/42/42
f 41/41/41 43/43/43 42/42/42
f 44/44/44 45/45/44 46/46/44
