# Blender 3.1.0
# www.blender.org
mtllib cloud_block.mtl
o cloud_platform
v 0.201035 0.152666 -0.827168
v 0.213984 0.032080 -0.882129
v 0.177539 0.025517 -0.865781
v 0.233174 0.156680 -0.841260
v 0.265283 0.249375 -0.747568
v 0.384199 0.196055 -0.844834
v 0.429522 0.304160 -0.718359
v 0.521777 0.230859 -0.841436
v 0.586963 0.296396 -0.772148
v 0.650156 0.234258 -0.828106
v 0.694483 0.310459 -0.694483
v 0.758555 0.238066 -0.758555
v 0.828106 0.234258 -0.650156
v 0.878232 0.139658 -0.680449
v 0.841436 0.230859 -0.521777
v 0.907500 0.133974 -0.540059
v 0.844834 0.196055 -0.384199
v 0.930352 0.036416 -0.359297
v 0.841260 0.156680 -0.233174
v 0.882129 0.032080 -0.213984
v 0.827168 0.152666 -0.201035
v 0.865781 0.025517 -0.177539
v 0.872490 0.151348 -0.068438
v 0.900996 0.036328 -0.061670
v 0.872490 0.151348 0.068437
v 0.900996 0.036328 0.061670
v 0.865781 0.025518 0.177539
v -0.827168 0.152666 -0.201035
v -0.882129 0.032080 -0.213984
v -0.865781 0.025518 -0.177539
v -0.841260 0.156680 -0.233174
v -0.747568 0.249375 -0.265283
v -0.844834 0.196055 -0.384199
v -0.718359 0.304160 -0.429522
v -0.841436 0.230859 -0.521777
v -0.772148 0.296397 -0.586963
v -0.828106 0.234258 -0.650156
v -0.694482 0.310459 -0.694483
v -0.758555 0.238066 -0.758555
v -0.650156 0.234258 -0.828106
v -0.680449 0.139658 -0.878232
v -0.521777 0.230859 -0.841436
v -0.540059 0.133975 -0.907500
v -0.384199 0.196055 -0.844834
v -0.359297 0.036416 -0.930352
v -0.233174 0.156680 -0.841260
v -0.213984 0.032080 -0.882129
v -0.201035 0.152666 -0.827168
v -0.177539 0.025517 -0.865781
v -0.068437 0.151348 -0.872490
v -0.061670 0.036328 -0.900996
v 0.068438 0.151348 -0.872490
v 0.061670 0.036328 -0.900996
v -0.201035 0.152666 0.827168
v -0.213984 0.032080 0.882129
v -0.177539 0.025518 0.865781
v -0.233174 0.156680 0.841260
v -0.265283 0.249375 0.747568
v -0.384199 0.196055 0.844834
v -0.429521 0.304160 0.718359
v -0.521777 0.230860 0.841436
v -0.586963 0.296397 0.772148
v -0.650156 0.234258 0.828106
v -0.694482 0.310459 0.694482
v -0.758555 0.238067 0.758555
v -0.828106 0.234258 0.650156
v -0.878232 0.139658 0.680449
v -0.841436 0.230860 0.521777
v -0.907500 0.133975 0.540059
v -0.844834 0.196055 0.384199
v -0.930352 0.036416 0.359297
v -0.841260 0.156680 0.233174
v -0.882129 0.032080 0.213984
v -0.827168 0.152666 0.201035
v -0.865781 0.025518 0.177539
v -0.872490 0.151348 0.068437
v -0.900996 0.036328 0.061670
v -0.872490 0.151348 -0.068438
v -0.900996 0.036328 -0.061670
v 0.827168 0.152666 0.201035
v 0.882129 0.032080 0.213984
v 0.841260 0.156680 0.233174
v 0.747568 0.249375 0.265283
v 0.844834 0.196055 0.384199
v 0.718359 0.304160 0.429521
v 0.841436 0.230859 0.521777
v 0.772148 0.296397 0.586963
v 0.828106 0.234258 0.650156
v 0.694483 0.310459 0.694482
v 0.758555 0.238066 0.758555
v 0.650156 0.234258 0.828106
v 0.680449 0.139658 0.878232
v 0.521777 0.230859 0.841436
v 0.540059 0.133975 0.907500
v 0.384199 0.196055 0.844834
v 0.359297 0.036416 0.930352
v 0.233174 0.156680 0.841260
v 0.213984 0.032080 0.882129
v 0.201035 0.152666 0.827168
v 0.177539 0.025518 0.865781
v 0.068438 0.151348 0.872490
v 0.061670 0.036328 0.900996
v -0.068437 0.151348 0.872490
v -0.061670 0.036328 0.900996
v -0.451406 -0.310810 0.793477
v -0.365244 -0.333515 0.706582
v -0.287344 -0.276885 0.799834
v -0.467168 -0.358183 0.645000
v -0.590713 -0.323496 0.764326
v -0.588223 -0.368877 0.588223
v -0.698438 -0.323994 0.698438
v -0.764326 -0.323496 0.590713
v -0.857461 -0.233730 0.637998
v -0.888955 -0.228545 0.485479
v -0.892090 -0.122021 0.676787
v -0.937647 -0.113730 0.512168
v -0.900674 0.012393 0.685723
v -0.939756 0.027363 0.533818
v 0.793477 -0.310811 0.451406
v 0.706582 -0.333516 0.365244
v 0.799834 -0.276885 0.287344
v 0.645000 -0.358184 0.467168
v 0.764326 -0.323496 0.590713
v 0.588223 -0.368877 0.588223
v 0.698438 -0.323994 0.698438
v 0.590713 -0.323496 0.764326
v 0.637998 -0.233730 0.857461
v 0.485479 -0.228545 0.888955
v 0.676787 -0.122021 0.892090
v 0.512168 -0.113730 0.937647
v 0.685723 0.012393 0.900674
v 0.533818 0.027363 0.939756
v 0.451406 -0.310811 -0.793477
v 0.365244 -0.333516 -0.706582
v 0.287344 -0.276885 -0.799834
v 0.467168 -0.358184 -0.645000
v 0.590713 -0.323496 -0.764326
v 0.588223 -0.368877 -0.588223
v 0.698438 -0.323994 -0.698438
v 0.764326 -0.323496 -0.590713
v 0.857461 -0.233731 -0.637998
v 0.888955 -0.228545 -0.485478
v 0.892090 -0.122022 -0.676787
v 0.937647 -0.113731 -0.512168
v 0.900674 0.012392 -0.685723
v 0.939756 0.027363 -0.533818
v -0.588223 -0.368877 -0.588223
v -0.590713 -0.323496 -0.764326
v -0.467168 -0.358184 -0.645000
v -0.698438 -0.323994 -0.698438
v -0.764326 -0.323496 -0.590713
v -0.857461 -0.233730 -0.637998
v -0.888955 -0.228545 -0.485478
v -0.892090 -0.122021 -0.676787
v -0.937647 -0.113730 -0.512168
v -0.900674 0.012393 -0.685723
v -0.939756 0.027363 -0.533818
v -0.878232 0.139658 -0.680449
v -0.907500 0.133975 -0.540059
v 0.879756 -0.219316 0.343594
v 0.888955 -0.228545 0.485479
v 0.934189 -0.103418 0.351621
v 0.937647 -0.113731 0.512168
v 0.939756 0.027363 0.533818
v 0.900674 0.012393 0.685723
v 0.878232 0.139658 0.680449
v 0.806250 0.132422 0.806250
v -0.265283 0.249375 -0.747568
v -0.148828 0.319365 -0.690205
v -0.134912 0.252773 -0.797051
v -0.299795 0.291533 -0.571289
v -0.429521 0.304160 -0.718359
v -0.414258 0.334014 -0.585733
v -0.533467 0.335830 -0.670957
v -0.519609 0.351973 -0.519609
v -0.606211 0.344971 -0.606211
v -0.670957 0.335830 -0.533467
v -0.343594 -0.219316 0.879756
v -0.485479 -0.228545 0.888955
v -0.351621 -0.103418 0.934189
v -0.512168 -0.113730 0.937647
v -0.533818 0.027363 0.939756
v -0.685723 0.012393 0.900674
v -0.680449 0.139658 0.878232
v -0.806250 0.132422 0.806250
v 0.343594 -0.219317 -0.879756
v 0.485479 -0.228545 -0.888955
v 0.351621 -0.103418 -0.934189
v 0.512168 -0.113731 -0.937647
v 0.533818 0.027363 -0.939756
v 0.685723 0.012392 -0.900674
v 0.680449 0.139658 -0.878232
v 0.806250 0.132422 -0.806250
v -0.213691 -0.081709 -0.888633
v -0.351621 -0.103418 -0.934189
v -0.343594 -0.219316 -0.879756
v -0.240732 -0.201768 -0.854092
v -0.287344 -0.276885 -0.799834
v -0.203203 -0.212080 -0.838330
v -0.245273 -0.290654 -0.745313
v -0.058682 -0.234404 -0.851279
v -0.077080 -0.322002 -0.775635
v 0.058682 -0.234404 -0.851279
v 0.077080 -0.322002 -0.775635
v 0.797051 0.252773 0.134912
v 0.807100 0.264228 -0.000000
v 0.690205 0.319365 0.148828
v 0.704209 0.334980 -0.000000
v 0.590859 0.367148 -0.000000
v 0.690205 0.319365 -0.148828
v 0.583184 0.344678 -0.160342
v 0.571289 0.291533 -0.299795
v -0.533818 0.027363 -0.939756
v -0.512168 -0.113731 -0.937647
v -0.685723 0.012393 -0.900674
v -0.676787 -0.122022 -0.892090
v -0.807949 -0.127676 -0.807949
v -0.768281 -0.235107 -0.768281
v 0.134912 0.252773 -0.797051
v 0.000000 0.264228 -0.807100
v 0.148828 0.319365 -0.690205
v 0.000000 0.334980 -0.704209
v 0.000000 0.367148 -0.590859
v -0.160342 0.344678 -0.583184
v -0.134912 0.252774 0.797051
v 0.000000 0.264229 0.807100
v -0.148828 0.319365 0.690205
v 0.000000 0.334981 0.704209
v 0.000000 0.367148 0.590859
v 0.148828 0.319365 0.690205
v 0.160342 0.344678 0.583184
v 0.299795 0.291533 0.571289
v -0.797051 0.252773 -0.134912
v -0.807100 0.264229 -0.000000
v -0.690205 0.319365 -0.148828
v -0.704209 0.334981 -0.000000
v -0.590859 0.367148 -0.000000
v -0.690205 0.319365 0.148828
v -0.583184 0.344678 0.160342
v -0.571289 0.291533 0.299795
v 0.240732 -0.201767 0.854092
v 0.343594 -0.219316 0.879756
v 0.213691 -0.081709 0.888633
v 0.287344 -0.276885 0.799834
v 0.203203 -0.212080 0.838330
v 0.245273 -0.290654 0.745313
v 0.058682 -0.234404 0.851279
v 0.077080 -0.322002 0.775635
v -0.058682 -0.234404 0.851279
v -0.077080 -0.322002 0.775635
v -0.854092 -0.201767 0.240732
v -0.879756 -0.219316 0.343594
v -0.888633 -0.081709 0.213691
v -0.799834 -0.276885 0.287344
v -0.838330 -0.212080 0.203203
v -0.745313 -0.290654 0.245273
v -0.851279 -0.234404 0.058682
v -0.775635 -0.322002 0.077080
v -0.851279 -0.234404 -0.058682
v -0.775635 -0.322002 -0.077080
v -0.806250 0.132422 -0.806250
v -0.818701 0.007588 -0.818701
v 0.854092 -0.201768 -0.240732
v 0.879756 -0.219317 -0.343594
v 0.888633 -0.081709 -0.213691
v 0.799834 -0.276885 -0.287344
v 0.838330 -0.212080 -0.203203
v 0.745313 -0.290654 -0.245273
v 0.851279 -0.234404 -0.058682
v 0.775635 -0.322002 -0.077080
v 0.851279 -0.234404 0.058682
v 0.775635 -0.322002 0.077080
v 0.467168 -0.358184 0.645000
v 0.451406 -0.310811 0.793477
v 0.351621 -0.103418 0.934189
v -0.519609 0.351973 0.519609
v -0.533467 0.335830 0.670957
v -0.414258 0.334014 0.585732
v -0.606211 0.344971 0.606211
v -0.670957 0.335830 0.533467
v -0.772148 0.296397 0.586963
v -0.540059 0.133975 0.907500
v -0.359297 0.036416 0.930352
v -0.637998 -0.233730 0.857461
v -0.676787 -0.122021 0.892090
v -0.768281 -0.235107 0.768281
v -0.807949 -0.127676 0.807949
v 0.637998 -0.233731 -0.857461
v 0.676787 -0.122022 -0.892090
v 0.768281 -0.235108 -0.768281
v 0.807949 -0.127676 -0.807949
v 0.540059 0.133974 -0.907500
v 0.359297 0.036416 -0.930352
v 0.519609 0.351973 0.519609
v 0.670957 0.335830 0.533467
v 0.585733 0.334014 0.414258
v 0.606211 0.344971 0.606211
v 0.533467 0.335830 0.670957
v 0.586963 0.296397 0.772148
v -0.645000 -0.358183 0.467168
v -0.793477 -0.310810 0.451406
v -0.934189 -0.103418 0.351621
v 0.519609 0.351973 -0.519609
v 0.533467 0.335830 -0.670957
v 0.414258 0.334014 -0.585733
v 0.606211 0.344971 -0.606211
v 0.670957 0.335830 -0.533467
v 0.772148 0.296396 -0.586963
v 0.907500 0.133975 0.540059
v 0.930352 0.036416 0.359297
v 0.645000 -0.358184 -0.467168
v 0.793477 -0.310811 -0.451406
v 0.934189 -0.103418 -0.351621
v 0.857461 -0.233730 0.637998
v 0.892090 -0.122021 0.676787
v 0.768281 -0.235107 0.768281
v 0.807949 -0.127676 0.807949
v 0.585733 0.334014 -0.414258
v 0.718359 0.304160 -0.429522
v 0.747568 0.249375 -0.265283
v 0.797051 0.252773 -0.134912
v -0.585732 0.334014 0.414258
v -0.718359 0.304160 0.429521
v -0.747568 0.249375 0.265283
v -0.797051 0.252774 0.134912
v -0.637998 -0.233731 -0.857461
v -0.485479 -0.228545 -0.888955
v 0.414258 0.334014 0.585732
v 0.429522 0.304160 0.718359
v 0.265283 0.249375 0.747568
v 0.134912 0.252774 0.797051
v -0.888633 -0.081709 -0.213691
v -0.879756 -0.219316 -0.343594
v -0.854092 -0.201768 -0.240732
v -0.934189 -0.103418 -0.351621
v -0.930352 0.036416 -0.359297
v -0.188730 0.401836 -0.108955
v -0.217910 0.401836 -0.000000
v 0.000000 0.424131 -0.000000
v -0.326895 0.363281 -0.188731
v -0.188730 0.363281 -0.326895
v -0.258076 0.280137 -0.446983
v 0.000000 0.280137 -0.516152
v -0.108955 0.401836 -0.188731
v 0.000000 0.363281 -0.377461
v 0.258076 0.280137 -0.446983
v 0.000000 0.401836 -0.217910
v 0.188731 0.363281 -0.326895
v 0.446983 0.280137 -0.258076
v 0.108955 0.401836 -0.188731
v 0.326895 0.363281 -0.188731
v 0.516152 0.280137 -0.000000
v 0.188731 0.401836 -0.108955
v 0.377461 0.363281 -0.000000
v 0.446983 0.280137 0.258076
v 0.217910 0.401836 -0.000000
v 0.326895 0.363281 0.188730
v 0.258076 0.280137 0.446982
v 0.188731 0.401836 0.108955
v 0.188731 0.363281 0.326894
v 0.000000 0.280137 0.516152
v 0.108955 0.401836 0.188730
v 0.000000 0.363281 0.377461
v -0.258076 0.280137 0.446982
v 0.000000 0.401836 0.217910
v -0.188730 0.363281 0.326894
v -0.446982 0.280137 0.258076
v -0.818701 0.007588 0.818701
v 0.177627 -0.087246 0.870029
v 0.058975 -0.122871 0.890361
v -0.870029 -0.087246 0.177627
v -0.890361 -0.122871 0.058975
v -0.188730 0.401836 0.108955
v -0.377461 0.363281 -0.000000
v -0.446982 0.280137 -0.258076
v 0.870029 -0.087246 -0.177627
v 0.890361 -0.122871 -0.058975
v 0.818701 0.007588 -0.818701
v 0.818701 0.007588 0.818701
v -0.177627 -0.087246 -0.870029
v -0.058975 -0.122871 -0.890361
v -0.108955 0.401836 0.188730
v -0.326895 0.363281 0.188730
v 0.245273 -0.290654 -0.745313
v 0.314678 -0.294580 -0.314678
v 0.177627 -0.087246 -0.870029
v 0.240732 -0.201768 -0.854092
v 0.203203 -0.212080 -0.838330
v 0.213691 -0.081709 -0.888633
v 0.706582 -0.333516 -0.365244
v 0.650098 -0.338760 -0.186855
v 0.615879 -0.361143 -0.070107
v 0.186855 -0.338760 -0.650098
v 0.070107 -0.361143 -0.615879
v -0.070107 -0.361143 -0.615879
v -0.870029 -0.087246 -0.177627
v -0.838330 -0.212080 -0.203203
v -0.645000 -0.358184 -0.467168
v -0.793477 -0.310811 -0.451406
v -0.706582 -0.333516 -0.365244
v -0.799834 -0.276885 -0.287344
v -0.451406 -0.310811 -0.793477
v -0.365244 -0.333516 -0.706582
v -0.745313 -0.290654 -0.245273
v -0.314678 -0.294580 -0.314678
v -0.586963 0.296396 -0.772148
v -0.177627 -0.087246 0.870029
v -0.240732 -0.201767 0.854092
v -0.203203 -0.212080 0.838330
v -0.213691 -0.081709 0.888633
v -0.650098 -0.338760 -0.186855
v -0.615879 -0.361143 -0.070107
v -0.615879 -0.361143 0.070107
v -0.706582 -0.333516 0.365244
v -0.314678 -0.294580 0.314678
v -0.650098 -0.338760 0.186856
v -0.245273 -0.290654 0.745313
v -0.186855 -0.338760 -0.650098
v -0.186855 -0.338760 0.650098
v -0.070107 -0.361143 0.615879
v 0.070107 -0.361143 0.615879
v 0.365244 -0.333516 0.706582
v 0.314678 -0.294580 0.314678
v 0.186855 -0.338760 0.650098
v 0.745313 -0.290654 0.245273
v 0.888633 -0.081709 0.213691
v 0.870029 -0.087246 0.177627
v 0.854092 -0.201768 0.240732
v 0.838330 -0.212080 0.203203
v 0.650098 -0.338760 0.186856
v 0.615879 -0.361143 0.070107
v 0.890361 -0.122871 0.058975
v -0.314678 0.294551 0.314678
v -0.299795 0.291533 0.571289
v -0.160342 0.344678 0.583184
v -0.314678 0.294551 -0.314678
v -0.089941 0.072744 -0.898565
v -0.087041 0.021738 -0.902344
v -0.099727 0.024668 -0.900557
v -0.074971 0.026309 -0.903897
v -0.064687 0.041601 -0.901143
v -0.571289 0.291533 -0.299795
v -0.583184 0.344678 -0.160342
v -0.585732 0.334014 -0.414258
v -0.088535 0.120234 -0.879697
v -0.075879 0.117305 -0.881543
v -0.100605 0.115664 -0.877705
v -0.111328 0.100371 -0.877061
v 0.089941 0.072744 -0.898565
v 0.111328 0.100371 -0.877061
v 0.116426 0.069814 -0.882217
v 0.100605 0.115664 -0.877705
v 0.088535 0.120234 -0.879697
v 0.089941 0.072744 0.898565
v 0.116426 0.069815 0.882217
v 0.111328 0.100371 0.877061
v 0.110625 0.038672 0.892324
v 0.099727 0.024668 0.900557
v 0.087041 0.021738 0.902344
v 0.074971 0.026309 0.903897
v 0.064688 0.041602 0.901143
v 0.060029 0.072129 0.892119
v 0.065332 0.103272 0.885205
v 0.075879 0.117305 0.881543
v 0.088535 0.120234 0.879697
v 0.100605 0.115664 0.877705
v 0.058975 -0.122871 -0.890361
v -0.516152 0.280137 -0.000000
v -0.058975 -0.122871 0.890361
v 0.314678 0.294551 0.314678
v 0.571289 0.291533 0.299795
v 0.583184 0.344678 0.160342
v -0.060029 0.072129 -0.892119
v -0.065332 0.103271 -0.885205
v -0.116426 0.069814 -0.882217
v -0.110625 0.038672 -0.892324
v -0.089941 0.072744 0.898565
v -0.111328 0.100371 0.877061
v -0.116426 0.069815 0.882217
v -0.100605 0.115664 0.877705
v -0.088535 0.120235 0.879697
v 0.314678 0.294551 -0.314678
v 0.160342 0.344678 -0.583184
v 0.000000 0.323701 -0.314678
v -0.314678 0.294551 -0.314678
v -0.890361 -0.122871 -0.058975
v 0.000000 0.365859 -0.000000
v -0.314678 0.294551 0.314678
v 0.000000 0.323701 0.314678
v -0.314678 0.323701 -0.000000
v -0.314678 0.294551 -0.314678
v 0.314678 0.294551 -0.314678
v 0.314678 0.323701 -0.000000
v -0.747568 0.249375 -0.265283
v 0.314678 0.294551 -0.314678
v 0.299795 0.291533 -0.571289
v 0.314678 0.294551 0.314678
v -0.314678 0.294551 0.314678
v 0.110625 0.038672 -0.892324
v 0.099727 0.024668 -0.900557
v 0.087041 0.021738 -0.902344
v 0.074971 0.026308 -0.903897
v 0.064688 0.041601 -0.901143
v 0.060029 0.072129 -0.892119
v 0.065332 0.103271 -0.885205
v 0.075879 0.117305 -0.881543
v 0.747568 0.249375 0.265283
v -0.110625 0.038672 0.892324
v -0.099727 0.024668 0.900557
v -0.087041 0.021738 0.902344
v -0.074971 0.026309 0.903897
v -0.064687 0.041602 0.901143
v -0.060029 0.072129 0.892119
v -0.065332 0.103272 0.885205
v -0.075879 0.117305 0.881543
v 0.314678 0.294551 0.314678
v -0.265283 0.249375 0.747568
v 0.265283 0.249375 -0.747568
vn -0.0007 0.0235 -0.0441
vn -0.0186 0.0101 -0.0453
vn -0.0034 0.0073 -0.0493
vn -0.0152 0.0277 -0.0388
vn -0.0116 0.0419 -0.0247
vn -0.0081 0.0321 -0.0375
vn -0.0102 0.0446 -0.0202
vn -0.0029 0.0334 -0.0371
vn 0.0030 0.0422 -0.0266
vn 0.0121 0.0317 -0.0367
vn 0.0165 0.0442 -0.0165
vn 0.0266 0.0330 -0.0266
vn 0.0367 0.0317 -0.0121
vn 0.0433 0.0185 -0.0169
vn 0.0371 0.0334 0.0029
vn 0.0450 0.0218 -0.0021
vn 0.0375 0.0321 0.0081
vn 0.0478 0.0117 0.0089
vn 0.0388 0.0277 0.0152
vn 0.0453 0.0101 0.0186
vn 0.0441 0.0235 0.0007
vn 0.0493 0.0073 0.0034
vn 0.0460 0.0183 -0.0074
vn 0.0493 0.0042 -0.0073
vn 0.0460 0.0183 0.0074
vn 0.0493 0.0042 0.0073
vn 0.0493 0.0073 -0.0034
vn -0.0441 0.0235 0.0007
vn -0.0453 0.0101 0.0186
vn -0.0493 0.0073 0.0034
vn -0.0388 0.0277 0.0152
vn -0.0247 0.0419 0.0116
vn -0.0375 0.0321 0.0081
vn -0.0202 0.0446 0.0102
vn -0.0371 0.0334 0.0029
vn -0.0266 0.0422 -0.0030
vn -0.0367 0.0317 -0.0121
vn -0.0165 0.0442 -0.0165
vn -0.0266 0.0330 -0.0266
vn -0.0121 0.0317 -0.0367
vn -0.0169 0.0185 -0.0433
vn 0.0029 0.0334 -0.0371
vn -0.0021 0.0218 -0.0450
vn 0.0081 0.0321 -0.0375
vn 0.0089 0.0117 -0.0478
vn 0.0152 0.0277 -0.0388
vn 0.0186 0.0101 -0.0453
vn 0.0007 0.0235 -0.0441
vn 0.0034 0.0073 -0.0493
vn -0.0074 0.0183 -0.0460
vn -0.0073 0.0042 -0.0493
vn 0.0074 0.0183 -0.0460
vn 0.0073 0.0042 -0.0493
vn 0.0007 0.0235 0.0441
vn 0.0186 0.0101 0.0453
vn 0.0034 0.0073 0.0493
vn 0.0152 0.0277 0.0388
vn 0.0116 0.0419 0.0247
vn 0.0081 0.0321 0.0375
vn 0.0102 0.0446 0.0202
vn 0.0029 0.0334 0.0371
vn -0.0030 0.0422 0.0266
vn -0.0121 0.0317 0.0367
vn -0.0165 0.0442 0.0165
vn -0.0266 0.0330 0.0266
vn -0.0367 0.0317 0.0121
vn -0.0433 0.0185 0.0169
vn -0.0371 0.0334 -0.0029
vn -0.0450 0.0218 0.0021
vn -0.0375 0.0321 -0.0081
vn -0.0478 0.0117 -0.0089
vn -0.0388 0.0277 -0.0152
vn -0.0453 0.0101 -0.0186
vn -0.0441 0.0235 -0.0007
vn -0.0493 0.0073 -0.0034
vn -0.0460 0.0183 0.0074
vn -0.0493 0.0042 0.0073
vn -0.0460 0.0183 -0.0074
vn -0.0493 0.0042 -0.0073
vn 0.0441 0.0235 -0.0007
vn 0.0453 0.0101 -0.0186
vn 0.0388 0.0277 -0.0152
vn 0.0247 0.0419 -0.0116
vn 0.0375 0.0321 -0.0081
vn 0.0202 0.0446 -0.0102
vn 0.0371 0.0334 -0.0029
vn 0.0266 0.0422 0.0030
vn 0.0367 0.0317 0.0121
vn 0.0165 0.0442 0.0165
vn 0.0266 0.0330 0.0266
vn 0.0121 0.0317 0.0367
vn 0.0169 0.0185 0.0433
vn -0.0029 0.0334 0.0371
vn 0.0021 0.0218 0.0450
vn -0.0081 0.0321 0.0375
vn -0.0089 0.0117 0.0478
vn -0.0152 0.0277 0.0388
vn -0.0186 0.0101 0.0453
vn -0.0007 0.0235 0.0441
vn -0.0034 0.0073 0.0493
vn 0.0074 0.0183 0.0460
vn 0.0073 0.0042 0.0493
vn -0.0074 0.0183 0.0460
vn -0.0073 0.0042 0.0493
vn 0.0026 -0.0431 0.0252
vn 0.0110 -0.0480 0.0085
vn 0.0120 -0.0402 0.0271
vn 0.0057 -0.0495 0.0045
vn -0.0072 -0.0437 0.0232
vn -0.0024 -0.0499 0.0024
vn -0.0178 -0.0432 0.0178
vn -0.0232 -0.0437 0.0072
vn -0.0383 -0.0285 0.0149
vn -0.0406 -0.0291 0.0018
vn -0.0443 -0.0125 0.0195
vn -0.0484 -0.0112 0.0053
vn -0.0459 0.0020 0.0198
vn -0.0494 0.0061 0.0052
vn 0.0252 -0.0431 -0.0026
vn 0.0085 -0.0480 -0.0110
vn 0.0271 -0.0402 -0.0120
vn 0.0045 -0.0495 -0.0057
vn 0.0232 -0.0437 0.0072
vn 0.0024 -0.0499 0.0024
vn 0.0178 -0.0432 0.0178
vn 0.0072 -0.0437 0.0232
vn 0.0149 -0.0285 0.0383
vn 0.0018 -0.0291 0.0406
vn 0.0195 -0.0125 0.0443
vn 0.0053 -0.0112 0.0484
vn 0.0198 0.0020 0.0459
vn 0.0052 0.0061 0.0494
vn -0.0026 -0.0431 -0.0252
vn -0.0110 -0.0480 -0.0085
vn -0.0120 -0.0402 -0.0271
vn -0.0057 -0.0495 -0.0045
vn 0.0072 -0.0437 -0.0232
vn 0.0024 -0.0499 -0.0024
vn 0.0178 -0.0432 -0.0178
vn 0.0232 -0.0437 -0.0072
vn 0.0383 -0.0285 -0.0149
vn 0.0406 -0.0291 -0.0018
vn 0.0443 -0.0125 -0.0195
vn 0.0484 -0.0112 -0.0053
vn 0.0459 0.0020 -0.0198
vn 0.0494 0.0061 -0.0052
vn -0.0024 -0.0499 -0.0024
vn -0.0072 -0.0437 -0.0232
vn 0.0057 -0.0495 -0.0045
vn -0.0178 -0.0432 -0.0178
vn -0.0232 -0.0437 -0.0072
vn -0.0383 -0.0285 -0.0149
vn -0.0406 -0.0291 -0.0018
vn -0.0443 -0.0125 -0.0195
vn -0.0484 -0.0112 -0.0053
vn -0.0459 0.0020 -0.0198
vn -0.0494 0.0061 -0.0052
vn -0.0433 0.0185 -0.0169
vn -0.0450 0.0218 -0.0021
vn 0.0400 -0.0285 -0.0096
vn 0.0406 -0.0291 0.0018
vn 0.0481 -0.0094 -0.0096
vn 0.0484 -0.0112 0.0053
vn 0.0494 0.0061 0.0052
vn 0.0459 0.0020 0.0198
vn 0.0433 0.0185 0.0169
vn 0.0333 0.0169 0.0333
vn -0.0014 0.0421 -0.0270
vn -0.0115 0.0448 -0.0191
vn -0.0104 0.0332 -0.0359
vn -0.0002 0.0496 -0.0064
vn 0.0102 0.0446 -0.0202
vn 0.0127 0.0481 -0.0053
vn 0.0020 0.0482 -0.0130
vn 0.0023 0.0499 0.0023
vn -0.0058 0.0493 -0.0058
vn -0.0130 0.0482 0.0020
vn 0.0096 -0.0285 0.0400
vn -0.0018 -0.0291 0.0406
vn 0.0096 -0.0094 0.0481
vn -0.0053 -0.0112 0.0484
vn -0.0052 0.0061 0.0494
vn -0.0198 0.0020 0.0459
vn -0.0169 0.0185 0.0433
vn -0.0333 0.0169 0.0333
vn -0.0096 -0.0285 -0.0400
vn 0.0018 -0.0291 -0.0406
vn -0.0096 -0.0094 -0.0481
vn 0.0053 -0.0112 -0.0484
vn 0.0052 0.0061 -0.0494
vn 0.0198 0.0020 -0.0459
vn 0.0169 0.0185 -0.0433
vn 0.0333 0.0169 -0.0333
vn 0.0188 -0.0067 -0.0458
vn 0.0096 -0.0094 -0.0481
vn 0.0096 -0.0285 -0.0400
vn 0.0131 -0.0234 -0.0422
vn 0.0120 -0.0402 -0.0271
vn 0.0018 -0.0271 -0.0420
vn 0.0009 -0.0463 -0.0190
vn -0.0042 -0.0253 -0.0429
vn -0.0059 -0.0417 -0.0270
vn 0.0042 -0.0253 -0.0429
vn 0.0059 -0.0417 -0.0270
vn 0.0359 0.0332 0.0104
vn 0.0357 0.0350 -0.0000
vn 0.0191 0.0448 0.0115
vn 0.0215 0.0452 -0.0000
vn 0.0035 0.0499 -0.0000
vn 0.0191 0.0448 -0.0115
vn 0.0047 0.0484 -0.0118
vn 0.0064 0.0496 -0.0002
vn -0.0052 0.0061 -0.0494
vn -0.0053 -0.0112 -0.0484
vn -0.0198 0.0020 -0.0459
vn -0.0195 -0.0125 -0.0443
vn -0.0339 -0.0142 -0.0339
vn -0.0284 -0.0297 -0.0284
vn 0.0104 0.0332 -0.0359
vn -0.0000 0.0350 -0.0357
vn 0.0115 0.0448 -0.0191
vn -0.0000 0.0452 -0.0215
vn -0.0000 0.0499 -0.0035
vn -0.0118 0.0484 -0.0047
vn -0.0104 0.0332 0.0359
vn -0.0000 0.0350 0.0357
vn -0.0115 0.0448 0.0191
vn -0.0000 0.0452 0.0215
vn -0.0000 0.0499 0.0035
vn 0.0115 0.0448 0.0191
vn 0.0118 0.0484 0.0047
vn 0.0002 0.0496 0.0064
vn -0.0359 0.0332 -0.0104
vn -0.0357 0.0350 -0.0000
vn -0.0191 0.0448 -0.0115
vn -0.0215 0.0452 -0.0000
vn -0.0035 0.0499 -0.0000
vn -0.0191 0.0448 0.0115
vn -0.0047 0.0484 0.0118
vn -0.0064 0.0496 0.0002
vn -0.0131 -0.0234 0.0422
vn -0.0096 -0.0285 0.0400
vn -0.0188 -0.0067 0.0458
vn -0.0120 -0.0402 0.0271
vn -0.0018 -0.0271 0.0420
vn -0.0009 -0.0463 0.0190
vn 0.0042 -0.0253 0.0429
vn 0.0059 -0.0417 0.0270
vn -0.0042 -0.0253 0.0429
vn -0.0059 -0.0417 0.0270
vn -0.0422 -0.0234 -0.0131
vn -0.0400 -0.0285 -0.0096
vn -0.0458 -0.0067 -0.0188
vn -0.0271 -0.0402 -0.0120
vn -0.0420 -0.0271 -0.0018
vn -0.0190 -0.0463 -0.0009
vn -0.0429 -0.0253 0.0042
vn -0.0270 -0.0417 0.0059
vn -0.0429 -0.0253 -0.0042
vn -0.0270 -0.0417 -0.0059
vn -0.0333 0.0169 -0.0333
vn -0.0354 0.0006 -0.0354
vn 0.0422 -0.0234 0.0131
vn 0.0400 -0.0285 0.0096
vn 0.0458 -0.0067 0.0188
vn 0.0271 -0.0402 0.0120
vn 0.0420 -0.0271 0.0018
vn 0.0190 -0.0463 0.0009
vn 0.0429 -0.0253 -0.0042
vn 0.0270 -0.0417 -0.0059
vn 0.0429 -0.0253 0.0042
vn 0.0270 -0.0417 0.0059
vn -0.0057 -0.0495 0.0045
vn -0.0026 -0.0431 0.0252
vn -0.0096 -0.0094 0.0481
vn 0.0023 0.0499 -0.0023
vn 0.0020 0.0482 0.0130
vn 0.0127 0.0481 0.0053
vn -0.0058 0.0493 0.0058
vn -0.0130 0.0482 -0.0020
vn -0.0266 0.0422 0.0030
vn -0.0021 0.0218 0.0450
vn 0.0089 0.0117 0.0478
vn -0.0149 -0.0285 0.0383
vn -0.0195 -0.0125 0.0443
vn -0.0284 -0.0297 0.0284
vn -0.0339 -0.0142 0.0339
vn 0.0149 -0.0285 -0.0383
vn 0.0195 -0.0125 -0.0443
vn 0.0284 -0.0297 -0.0284
vn 0.0339 -0.0142 -0.0339
vn 0.0021 0.0218 -0.0450
vn -0.0089 0.0117 -0.0478
vn -0.0023 0.0499 -0.0023
vn 0.0130 0.0482 -0.0020
vn 0.0053 0.0481 -0.0127
vn 0.0058 0.0493 0.0058
vn -0.0020 0.0482 0.0130
vn 0.0030 0.0422 0.0266
vn -0.0045 -0.0495 -0.0057
vn -0.0252 -0.0431 -0.0026
vn -0.0481 -0.0094 -0.0096
vn -0.0023 0.0499 0.0023
vn -0.0020 0.0482 -0.0130
vn -0.0127 0.0481 -0.0053
vn 0.0058 0.0493 -0.0058
vn 0.0130 0.0482 0.0020
vn 0.0266 0.0422 -0.0030
vn 0.0450 0.0218 0.0021
vn 0.0478 0.0117 -0.0089
vn 0.0045 -0.0495 0.0057
vn 0.0252 -0.0431 0.0026
vn 0.0481 -0.0094 0.0096
vn 0.0383 -0.0285 0.0149
vn 0.0443 -0.0125 0.0195
vn 0.0284 -0.0297 0.0284
vn 0.0339 -0.0142 0.0339
vn 0.0053 0.0481 0.0127
vn 0.0202 0.0446 0.0102
vn 0.0270 0.0421 -0.0014
vn 0.0359 0.0332 -0.0104
vn -0.0053 0.0481 -0.0127
vn -0.0202 0.0446 -0.0102
vn -0.0270 0.0421 0.0014
vn -0.0359 0.0332 0.0104
vn -0.0149 -0.0285 -0.0383
vn -0.0018 -0.0291 -0.0406
vn -0.0127 0.0481 0.0053
vn -0.0102 0.0446 0.0202
vn 0.0014 0.0421 0.0270
vn 0.0104 0.0332 0.0359
vn -0.0458 -0.0067 0.0188
vn -0.0400 -0.0285 0.0096
vn -0.0422 -0.0234 0.0131
vn -0.0481 -0.0094 0.0096
vn -0.0478 0.0117 0.0089
vn -0.0078 0.0492 -0.0045
vn -0.0090 0.0492 -0.0000
vn -0.0000 0.0500 -0.0000
vn -0.0173 0.0458 -0.0100
vn -0.0100 0.0458 -0.0173
vn -0.0129 0.0429 -0.0223
vn -0.0000 0.0429 -0.0257
vn -0.0045 0.0492 -0.0078
vn -0.0000 0.0458 -0.0200
vn 0.0129 0.0429 -0.0223
vn -0.0000 0.0492 -0.0090
vn 0.0100 0.0458 -0.0173
vn 0.0223 0.0429 -0.0129
vn 0.0045 0.0492 -0.0078
vn 0.0173 0.0458 -0.0100
vn 0.0257 0.0429 -0.0000
vn 0.0078 0.0492 -0.0045
vn 0.0200 0.0458 -0.0000
vn 0.0223 0.0429 0.0129
vn 0.0090 0.0492 -0.0000
vn 0.0173 0.0458 0.0100
vn 0.0129 0.0429 0.0223
vn 0.0078 0.0492 0.0045
vn 0.0100 0.0458 0.0173
vn -0.0000 0.0429 0.0257
vn 0.0045 0.0492 0.0078
vn -0.0000 0.0458 0.0200
vn -0.0129 0.0429 0.0223
vn -0.0000 0.0492 0.0090
vn -0.0100 0.0458 0.0173
vn -0.0223 0.0429 0.0129
vn -0.0354 0.0006 0.0354
vn -0.0053 -0.0059 0.0494
vn 0.0049 -0.0092 0.0489
vn -0.0494 -0.0059 -0.0053
vn -0.0489 -0.0092 0.0049
vn -0.0078 0.0492 0.0045
vn -0.0200 0.0458 -0.0000
vn -0.0223 0.0429 -0.0129
vn 0.0494 -0.0059 0.0053
vn 0.0489 -0.0092 -0.0049
vn 0.0354 0.0006 -0.0354
vn 0.0354 0.0006 0.0354
vn 0.0053 -0.0059 -0.0494
vn -0.0049 -0.0092 -0.0489
vn -0.0045 0.0492 0.0078
vn -0.0173 0.0458 0.0100
vn -0.0009 -0.0463 -0.0190
vn -0.0025 -0.0499 0.0025
vn -0.0053 -0.0059 -0.0494
vn -0.0131 -0.0234 -0.0422
vn -0.0018 -0.0271 -0.0420
vn -0.0188 -0.0067 -0.0458
vn 0.0085 -0.0480 0.0110
vn 0.0065 -0.0470 -0.0157
vn 0.0010 -0.0499 -0.0031
vn 0.0157 -0.0470 -0.0065
vn 0.0031 -0.0499 -0.0010
vn -0.0031 -0.0499 -0.0010
vn -0.0494 -0.0059 0.0053
vn -0.0420 -0.0271 0.0018
vn -0.0045 -0.0495 0.0057
vn -0.0252 -0.0431 0.0026
vn -0.0085 -0.0480 0.0110
vn -0.0271 -0.0402 0.0120
vn 0.0026 -0.0431 -0.0252
vn 0.0110 -0.0480 -0.0085
vn -0.0190 -0.0463 0.0009
vn 0.0025 -0.0499 0.0025
vn -0.0030 0.0422 -0.0266
vn 0.0053 -0.0059 0.0494
vn 0.0131 -0.0234 0.0422
vn 0.0018 -0.0271 0.0420
vn 0.0188 -0.0067 0.0458
vn -0.0065 -0.0470 -0.0157
vn -0.0010 -0.0499 -0.0031
vn -0.0010 -0.0499 0.0031
vn -0.0085 -0.0480 -0.0110
vn 0.0025 -0.0499 -0.0025
vn -0.0065 -0.0470 0.0157
vn 0.0009 -0.0463 0.0190
vn -0.0157 -0.0470 -0.0065
vn -0.0157 -0.0470 0.0065
vn -0.0031 -0.0499 0.0010
vn 0.0031 -0.0499 0.0010
vn -0.0110 -0.0480 0.0085
vn -0.0025 -0.0499 -0.0025
vn 0.0157 -0.0470 0.0065
vn 0.0190 -0.0463 -0.0009
vn 0.0458 -0.0067 -0.0188
vn 0.0494 -0.0059 -0.0053
vn 0.0422 -0.0234 -0.0131
vn 0.0420 -0.0271 -0.0018
vn 0.0065 -0.0470 0.0157
vn 0.0010 -0.0499 0.0031
vn 0.0489 -0.0092 0.0049
vn 0.0016 0.0500 -0.0016
vn -0.0002 0.0496 0.0064
vn -0.0118 0.0484 0.0047
vn 0.0016 0.0500 0.0016
vn -0.0090 0.0117 -0.0478
vn -0.0069 0.0033 -0.0494
vn -0.0130 0.0046 -0.0481
vn -0.0037 0.0045 -0.0497
vn 0.0055 0.0085 -0.0490
vn -0.0064 0.0496 -0.0002
vn -0.0047 0.0484 -0.0118
vn -0.0053 0.0481 0.0127
vn -0.0082 0.0184 -0.0457
vn 0.0004 0.0177 -0.0468
vn -0.0176 0.0168 -0.0437
vn -0.0243 0.0135 -0.0415
vn 0.0090 0.0117 -0.0478
vn 0.0243 0.0135 -0.0415
vn 0.0265 0.0100 -0.0412
vn 0.0176 0.0168 -0.0437
vn 0.0082 0.0184 -0.0457
vn 0.0090 0.0117 0.0478
vn 0.0265 0.0100 0.0412
vn 0.0243 0.0135 0.0415
vn 0.0249 0.0073 0.0427
vn 0.0130 0.0046 0.0481
vn 0.0069 0.0033 0.0494
vn 0.0037 0.0045 0.0497
vn -0.0055 0.0085 0.0490
vn -0.0104 0.0123 0.0473
vn -0.0069 0.0151 0.0472
vn -0.0004 0.0177 0.0468
vn 0.0082 0.0184 0.0457
vn 0.0176 0.0168 0.0437
vn 0.0049 -0.0092 -0.0489
vn -0.0257 0.0429 -0.0000
vn -0.0049 -0.0092 0.0489
vn -0.0016 0.0500 -0.0016
vn 0.0064 0.0496 0.0002
vn 0.0047 0.0484 0.0118
vn 0.0104 0.0123 -0.0473
vn 0.0069 0.0151 -0.0472
vn -0.0265 0.0100 -0.0412
vn -0.0249 0.0073 -0.0427
vn -0.0090 0.0117 0.0478
vn -0.0243 0.0135 0.0415
vn -0.0265 0.0100 0.0412
vn -0.0176 0.0168 0.0437
vn -0.0082 0.0184 0.0457
vn -0.0009 0.0500 0.0009
vn 0.0118 0.0484 -0.0047
vn -0.0000 0.0500 0.0006
vn 0.0009 0.0500 0.0009
vn -0.0489 -0.0092 -0.0049
vn -0.0056 0.0494 0.0056
vn -0.0000 0.0500 -0.0006
vn 0.0006 0.0500 -0.0000
vn -0.0056 0.0494 -0.0056
vn 0.0056 0.0494 -0.0056
vn -0.0006 0.0500 -0.0000
vn -0.0273 0.0384 -0.0167
vn -0.0016 0.0500 0.0016
vn 0.0002 0.0496 -0.0064
vn -0.0009 0.0500 -0.0009
vn 0.0009 0.0500 -0.0009
vn 0.0249 0.0073 -0.0427
vn 0.0130 0.0046 -0.0481
vn 0.0069 0.0033 -0.0494
vn 0.0037 0.0045 -0.0497
vn -0.0055 0.0085 -0.0490
vn -0.0104 0.0123 -0.0473
vn -0.0069 0.0151 -0.0472
vn -0.0004 0.0177 -0.0468
vn 0.0273 0.0384 0.0167
vn -0.0249 0.0073 0.0427
vn -0.0130 0.0046 0.0481
vn -0.0069 0.0033 0.0494
vn -0.0037 0.0045 0.0497
vn 0.0055 0.0085 0.0490
vn 0.0104 0.0123 0.0473
vn 0.0069 0.0151 0.0472
vn 0.0004 0.0177 0.0468
vn 0.0056 0.0494 0.0056
vn -0.0167 0.0384 0.0273
vn 0.0167 0.0384 -0.0273
vt 0.862366 0.530395
vt 0.832153 0.530395
vt 0.695129 1.035278
vt 0.863342 0.526245
vt 0.860596 0.527466
vt 0.833923 0.527466
vt 0.576721 1.013977
vt -0.576721 1.013977
vt 0.864807 0.529297
vt 0.867248 0.536377
vt 0.876160 0.529053
vt 0.879578 0.538574
vt 0.886536 0.529297
vt 0.891418 0.534546
vt 0.896179 0.530334
vt 0.899536 0.540344
vt 0.904358 0.535522
vt 0.896179 0.530334
vt 0.898498 0.526550
vt 0.886536 0.529297
vt 0.887939 0.524353
vt 0.876160 0.529053
vt 0.874329 0.522583
vt 0.864807 0.529297
vt 0.788147 0.670105
vt 0.863342 0.526245
vt 0.862366 0.530395
vt 0.860596 0.527466
vt 0.797852 0.668335
vt 0.852417 0.526978
vt 0.851929 0.524841
vt 0.828735 0.671204
vt 0.842102 0.526978
vt 0.842590 0.524841
vt 0.861633 0.671204
vt 0.860596 0.527466
vt 0.833923 0.527466
vt 0.892517 0.668335
vt 0.862366 0.530395
vt 0.832153 0.530395
vt 0.863342 0.526245
vt 0.788147 0.670105
vt 0.860596 0.527466
vt 0.833923 0.527466
vt 0.797852 0.668335
vt 0.864807 0.529297
vt 0.867248 0.536377
vt 0.876160 0.529053
vt 0.879578 0.538574
vt 0.886536 0.529297
vt 0.891418 0.534546
vt 0.896179 0.530334
vt 0.899536 0.540344
vt 0.904358 0.535522
vt 0.896179 0.530334
vt 0.898498 0.526550
vt 0.886536 0.529297
vt 0.887939 0.524353
vt 0.876160 0.529053
vt 0.874329 0.522583
vt 0.864807 0.529297
vt 0.863342 0.526245
vt 0.695129 1.035278
vt 0.862366 0.530395
vt 0.860596 0.527466
vt 0.576721 1.013977
vt 0.852417 0.526978
vt 0.851929 0.524841
vt 0.200317 1.049011
vt 0.842102 0.526978
vt 0.842590 0.524841
vt -0.200317 1.049011
vt 0.862366 0.530395
vt 0.832153 0.530395
vt 0.695129 1.035278
vt 0.863342 0.526245
vt 0.860596 0.527466
vt 0.833923 0.527466
vt 0.576721 1.013977
vt -0.576721 1.013977
vt 0.864807 0.529297
vt 0.867248 0.536377
vt 0.876160 0.529053
vt 0.879578 0.538574
vt 0.886536 0.529297
vt 0.891418 0.534546
vt 0.896179 0.530334
vt 0.899536 0.540344
vt 0.904358 0.535522
vt 0.896179 0.530334
vt 0.898498 0.526550
vt 0.886536 0.529297
vt 0.887939 0.524353
vt 0.876160 0.529053
vt 0.874329 0.522583
vt 0.864807 0.529297
vt 0.902222 0.670105
vt 0.863342 0.526245
vt 0.862366 0.530395
vt 0.860596 0.527466
vt 0.892517 0.668335
vt 0.852417 0.526978
vt 0.851929 0.524841
vt 0.861633 0.671204
vt 0.842102 0.526978
vt 0.842590 0.524841
vt 0.828735 0.671204
vt 0.862366 0.530395
vt 0.832153 0.530395
vt 0.902222 0.670105
vt 0.863342 0.526245
vt 0.864807 0.529297
vt 0.867248 0.536377
vt 0.876160 0.529053
vt 0.879578 0.538574
vt 0.886536 0.529297
vt 0.891418 0.534546
vt 0.896179 0.530334
vt 0.899536 0.540344
vt 0.904358 0.535522
vt 0.896179 0.530334
vt 0.898498 0.526550
vt 0.886536 0.529297
vt 0.887939 0.524353
vt 0.876160 0.529053
vt 0.874329 0.522583
vt 0.864807 0.529297
vt 0.695129 1.035278
vt 0.863342 0.526245
vt 0.862366 0.530395
vt 0.860596 0.527466
vt 0.576721 1.013977
vt 0.852417 0.526978
vt 0.851929 0.524841
vt 0.200317 1.049011
vt 0.842102 0.526978
vt 0.842590 0.524841
vt -0.200317 1.049011
vt 0.881226 0.532898
vt 0.874756 0.539429
vt 0.769714 0.620789
vt 0.757324 0.628357
vt 0.868896 0.532410
vt 0.882446 0.544067
vt 0.777954 0.617493
vt 0.891724 0.535095
vt 0.891540 0.548340
vt 0.785522 0.616089
vt 0.899841 0.540039
vt 0.891724 0.535095
vt 0.895264 0.528076
vt 0.884033 0.525269
vt 0.898193 0.525513
vt 0.885803 0.522034
vt 0.898865 0.524841
vt 0.887451 0.521912
vt 0.881226 0.532898
vt 0.874756 0.539429
vt 0.769714 0.620789
vt 0.757324 0.628357
vt 0.868896 0.532410
vt 0.882446 0.544067
vt 0.777954 0.617493
vt 0.891724 0.535095
vt 0.891540 0.548340
vt 0.785522 0.616089
vt 0.899841 0.540039
vt 0.891724 0.535095
vt 0.895264 0.528076
vt 0.884033 0.525269
vt 0.898193 0.525513
vt 0.885803 0.522034
vt 0.898865 0.524841
vt 0.887451 0.521912
vt 0.881226 0.532898
vt 0.874756 0.539429
vt 0.769714 0.620789
vt 0.757324 0.628357
vt 0.868896 0.532410
vt 0.882446 0.544067
vt 0.777954 0.617493
vt 0.891724 0.535095
vt 0.891540 0.548340
vt 0.785522 0.616089
vt 0.899841 0.540039
vt 0.891724 0.535095
vt 0.895264 0.528076
vt 0.884033 0.525269
vt 0.898193 0.525513
vt 0.885803 0.522034
vt 0.898865 0.524841
vt 0.887451 0.521912
vt 0.891540 0.548340
vt 0.785522 0.616089
vt 0.891724 0.535095
vt 0.882446 0.544067
vt 0.777954 0.617493
vt 0.899841 0.540039
vt 0.891724 0.535095
vt 0.895264 0.528076
vt 0.884033 0.525269
vt 0.898193 0.525513
vt 0.885803 0.522034
vt 0.898865 0.524841
vt 0.887451 0.521912
vt 0.898498 0.526550
vt 0.887939 0.524353
vt 0.873108 0.526428
vt 0.884033 0.525269
vt 0.873718 0.522339
vt 0.885803 0.522034
vt 0.887451 0.521912
vt 0.898865 0.524841
vt 0.898498 0.526550
vt 0.907959 0.531982
vt 0.867248 0.536377
vt 0.858337 0.540710
vt 0.857422 0.532654
vt 0.869812 0.549622
vt 0.787781 0.704102
vt 0.879578 0.538574
vt 0.878418 0.548584
vt 0.785828 0.709778
vt 0.887390 0.542114
vt 0.794678 0.712158
vt 0.886353 0.553528
vt 0.892883 0.546997
vt 0.887390 0.542114
vt 0.873108 0.526428
vt 0.884033 0.525269
vt 0.873718 0.522339
vt 0.885803 0.522034
vt 0.887451 0.521912
vt 0.898865 0.524841
vt 0.898498 0.526550
vt 0.907959 0.531982
vt 0.873108 0.526428
vt 0.884033 0.525269
vt 0.873718 0.522339
vt 0.885803 0.522034
vt 0.887451 0.521912
vt 0.898865 0.524841
vt 0.898498 0.526550
vt 0.907959 0.531982
vt 0.863342 0.525757
vt 0.694214 0.665588
vt 0.873718 0.522339
vt 0.873108 0.526428
vt 0.865356 0.528381
vt 0.782104 0.275513
vt 0.868896 0.532410
vt 0.757324 0.628357
vt 0.862549 0.529541
vt 0.660095 0.242065
vt 0.760254 0.626465
vt 0.865723 0.534119
vt 0.851685 0.528564
vt 0.190613 0.169495
vt 0.852173 0.534241
vt 0.842834 0.528564
vt -0.190613 0.169495
vt 0.842346 0.534241
vt 0.837097 0.532654
vt 0.847290 0.531860
vt 0.836182 0.540710
vt 0.847290 0.539612
vt 0.785156 0.714233
vt 0.847290 0.548157
vt 0.858337 0.540710
vt 0.861511 0.548767
vt 0.786194 0.711182
vt 0.869812 0.549622
vt 0.787781 0.704102
vt 0.887451 0.521912
vt 0.885803 0.522034
vt 0.898865 0.524841
vt 0.898193 0.525513
vt 0.908081 0.531799
vt 0.905090 0.534790
vt 0.837097 0.532654
vt 0.847290 0.531860
vt 0.836182 0.540710
vt 0.847290 0.539612
vt 0.847290 0.548157
vt 0.785156 0.714233
vt 0.861511 0.548767
vt 0.786194 0.711182
vt 0.837097 0.532654
vt 0.847290 0.531860
vt 0.836182 0.540710
vt 0.847290 0.539612
vt 0.785156 0.714233
vt 0.847290 0.548157
vt 0.858337 0.540710
vt 0.861511 0.548767
vt 0.786194 0.711182
vt 0.869812 0.549622
vt 0.787781 0.704102
vt 0.837097 0.532654
vt 0.847290 0.531860
vt 0.836182 0.540710
vt 0.847290 0.539612
vt 0.847290 0.548157
vt 0.785156 0.714233
vt 0.858337 0.540710
vt 0.861511 0.548767
vt 0.786194 0.711182
vt 0.869812 0.549622
vt 0.787781 0.704102
vt 0.865356 0.528381
vt 0.782104 0.275513
vt 0.873108 0.526428
vt 0.863342 0.525757
vt 0.694214 0.665588
vt 0.757324 0.628357
vt 0.868896 0.532410
vt 0.862549 0.529541
vt 0.660095 0.242065
vt 0.760254 0.626465
vt 0.865723 0.534119
vt 0.851685 0.528564
vt 0.190613 0.169495
vt 0.852173 0.534241
vt 0.842834 0.528564
vt -0.190613 0.169495
vt 0.842346 0.534241
vt 0.865356 0.528381
vt 0.909363 0.607727
vt 0.873108 0.526428
vt 0.863342 0.525757
vt 0.902161 0.639709
vt 0.757324 0.628357
vt 0.868896 0.532410
vt 0.862549 0.529541
vt 0.899353 0.604980
vt 0.760254 0.626465
vt 0.865723 0.534119
vt 0.851685 0.528564
vt 0.860840 0.598999
vt 0.852173 0.534241
vt 0.842834 0.528564
vt 0.829529 0.598999
vt 0.842346 0.534241
vt 0.907959 0.531982
vt 0.908874 0.531006
vt 0.865356 0.528381
vt 0.781006 0.607727
vt 0.873108 0.526428
vt 0.863342 0.525757
vt 0.788208 0.639709
vt 0.757324 0.628357
vt 0.868896 0.532410
vt 0.862549 0.529541
vt 0.791016 0.604980
vt 0.760254 0.626465
vt 0.865723 0.534119
vt 0.851685 0.528564
vt 0.829529 0.598999
vt 0.852173 0.534241
vt 0.860840 0.598999
vt 0.842834 0.528564
vt 0.842346 0.534241
vt 0.777954 0.617493
vt 0.882446 0.544067
vt 0.881226 0.532898
vt 0.873718 0.522339
vt 0.886353 0.553528
vt 0.794678 0.712158
vt 0.887390 0.542114
vt 0.785828 0.709778
vt 0.878418 0.548584
vt 0.892883 0.546997
vt 0.887390 0.542114
vt 0.891418 0.534546
vt 0.887939 0.524353
vt 0.874329 0.522583
vt 0.895264 0.528076
vt 0.898193 0.525513
vt 0.905090 0.534790
vt 0.908081 0.531799
vt 0.895264 0.528076
vt 0.898193 0.525513
vt 0.905090 0.534790
vt 0.908081 0.531799
vt 0.887939 0.524353
vt 0.874329 0.522583
vt 0.886353 0.553528
vt 0.794678 0.712158
vt 0.887390 0.542114
vt 0.785828 0.709778
vt 0.878418 0.548584
vt 0.892883 0.546997
vt 0.887390 0.542114
vt 0.891418 0.534546
vt 0.777954 0.617493
vt 0.882446 0.544067
vt 0.881226 0.532898
vt 0.873718 0.522339
vt 0.886353 0.553528
vt 0.794678 0.712158
vt 0.887390 0.542114
vt 0.785828 0.709778
vt 0.878418 0.548584
vt 0.892883 0.546997
vt 0.887390 0.542114
vt 0.891418 0.534546
vt 0.887939 0.524353
vt 0.874329 0.522583
vt 0.777954 0.617493
vt 0.882446 0.544067
vt 0.881226 0.532898
vt 0.873718 0.522339
vt 0.895264 0.528076
vt 0.898193 0.525513
vt 0.905090 0.534790
vt 0.908081 0.531799
vt 0.878418 0.548584
vt 0.785828 0.709778
vt 0.879578 0.538574
vt 0.867248 0.536377
vt 0.857422 0.532654
vt 0.878418 0.548584
vt 0.785828 0.709778
vt 0.879578 0.538574
vt 0.867248 0.536377
vt 0.857422 0.532654
vt 0.895264 0.528076
vt 0.884033 0.525269
vt 0.878418 0.548584
vt 0.785828 0.709778
vt 0.879578 0.538574
vt 0.867248 0.536377
vt 0.857422 0.532654
vt 0.863342 0.525757
vt 0.788208 0.639709
vt 0.873108 0.526428
vt 0.781006 0.607727
vt 0.865356 0.528381
vt 0.873718 0.522339
vt 0.874329 0.522583
vt 0.679932 0.108826
vt 0.688110 0.108826
vt 0.684021 0.125244
vt 0.675842 0.125244
vt 0.667664 0.125244
vt 0.659485 0.125244
vt 0.651306 0.125244
vt 0.643127 0.125244
vt 0.634888 0.125244
vt 0.626709 0.125244
vt 0.618530 0.125244
vt 0.692200 0.125244
vt 0.610352 0.125244
vt 0.602173 0.125244
vt 0.679932 0.092468
vt 0.671753 0.092468
vt 0.671753 0.076111
vt 0.663574 0.076111
vt 0.671753 0.108826
vt 0.663574 0.092468
vt 0.655396 0.076111
vt 0.663574 0.108826
vt 0.655396 0.092468
vt 0.647217 0.076111
vt 0.655396 0.108826
vt 0.647217 0.092468
vt 0.638977 0.076111
vt 0.647217 0.108826
vt 0.638977 0.092468
vt 0.630798 0.076111
vt 0.638977 0.108826
vt 0.630798 0.092468
vt 0.622620 0.076111
vt 0.630798 0.108826
vt 0.622620 0.092468
vt 0.614441 0.076111
vt 0.622620 0.108826
vt 0.614441 0.092468
vt 0.606262 0.076111
vt 0.614441 0.108826
vt 0.606262 0.092468
vt 0.598083 0.076111
vt 0.696289 0.076111
vt 0.908874 0.531006
vt 0.577026 0.647583
vt 0.191589 0.531860
vt 0.892578 0.638245
vt 0.860901 0.628784
vt 0.696289 0.108826
vt 0.598083 0.108826
vt 0.688110 0.092468
vt 0.679932 0.076111
vt 0.797790 0.638245
vt 0.829468 0.628784
vt 0.908874 0.531006
vt 0.908874 0.531006
vt 0.577026 0.647583
vt 0.191589 0.531860
vt 0.606262 0.108826
vt 0.598083 0.092468
vt 0.696289 0.092468
vt 0.760254 0.626465
vt 0.865723 0.534119
vt 0.828796 0.534119
vt 0.823547 0.568970
vt 0.821960 0.625977
vt 0.577026 0.647583
vt -0.577026 0.647583
vt 0.782104 0.275513
vt 0.865356 0.528381
vt 0.660095 0.242065
vt 0.862549 0.529541
vt 0.831970 0.529541
vt -0.660095 0.242065
vt 0.694214 0.665588
vt 0.863342 0.525757
vt 0.769714 0.620789
vt 0.874756 0.539429
vt 0.777283 0.620056
vt 0.858643 0.543701
vt 0.852539 0.546265
vt 0.781799 0.617065
vt 0.835876 0.543701
vt 0.777283 0.620056
vt 0.841980 0.546265
vt 0.781799 0.617065
vt 0.852539 0.546265
vt 0.781799 0.617065
vt 0.797790 0.638245
vt 0.831970 0.529541
vt 0.862549 0.529541
vt 0.791016 0.604980
vt 0.882446 0.544067
vt 0.777954 0.617493
vt 0.881226 0.532898
vt 0.874756 0.539429
vt 0.769714 0.620789
vt 0.757324 0.628357
vt 0.868896 0.532410
vt 0.881226 0.532898
vt 0.874756 0.539429
vt 0.769714 0.620789
vt 0.760254 0.626465
vt 0.828796 0.534119
vt 0.865723 0.534119
vt 0.823547 0.568970
vt 0.821960 0.625977
vt 0.891418 0.534546
vt 0.577026 0.647583
vt -0.577026 0.647583
vt 0.782104 0.275513
vt 0.865356 0.528381
vt 0.660095 0.242065
vt 0.831970 0.529541
vt 0.862549 0.529541
vt -0.660095 0.242065
vt 0.694214 0.665588
vt 0.863342 0.525757
vt 0.835876 0.543701
vt 0.777283 0.620056
vt 0.841980 0.546265
vt 0.781799 0.617065
vt 0.852539 0.546265
vt 0.781799 0.617065
vt 0.769714 0.620789
vt 0.874756 0.539429
vt 0.823547 0.568970
vt 0.905884 0.625977
vt 0.821960 0.625977
vt 0.777283 0.620056
vt 0.858643 0.543701
vt 0.760254 0.626465
vt 0.828796 0.534119
vt 0.865723 0.534119
vt 0.777283 0.620056
vt 0.858643 0.543701
vt 0.835876 0.543701
vt 0.777283 0.620056
vt 0.841980 0.546265
vt 0.781799 0.617065
vt 0.852539 0.546265
vt 0.781799 0.617065
vt 0.769714 0.620789
vt 0.874756 0.539429
vt 0.823547 0.568970
vt 0.905884 0.625977
vt 0.821960 0.625977
vt 0.777283 0.620056
vt 0.858643 0.543701
vt 0.760254 0.626465
vt 0.828796 0.534119
vt 0.865723 0.534119
vt 0.902161 0.639709
vt 0.863342 0.525757
vt 0.892578 0.638245
vt 0.909363 0.607727
vt 0.865356 0.528381
vt 0.899353 0.604980
vt 0.831970 0.529541
vt 0.862549 0.529541
vt 0.835876 0.543701
vt 0.777283 0.620056
vt 0.841980 0.546265
vt 0.781799 0.617065
vt 0.860901 0.628784
vt 0.821960 0.704529
vt 0.787781 0.704102
vt 0.869812 0.549622
vt 0.824707 0.549622
vt 0.786194 0.711182
vt 0.833008 0.548767
vt 0.821960 0.704529
vt 0.922852 0.140076
vt 0.922852 0.015137
vt 0.978394 0.039917
vt 0.867310 0.039917
vt 0.842590 0.084473
vt 0.787781 0.704102
vt 0.869812 0.549622
vt 0.824707 0.549622
vt 0.833008 0.548767
vt 0.786194 0.711182
vt 0.785828 0.709778
vt 0.878418 0.548584
vt 0.922852 0.265015
vt 0.867310 0.240295
vt 0.978394 0.240295
vt 1.003113 0.195679
vt 0.922852 0.140076
vt 1.003113 0.195679
vt 1.011902 0.140076
vt 0.978394 0.240295
vt 0.922852 0.265015
vt 0.922852 0.140076
vt 1.011902 0.140076
vt 1.003113 0.195679
vt 1.003113 0.084473
vt 0.978394 0.039917
vt 0.922852 0.015137
vt 0.867310 0.039917
vt 0.842590 0.084473
vt 0.833740 0.140076
vt 0.842590 0.195679
vt 0.867310 0.240295
vt 0.922852 0.265015
vt 0.978394 0.240295
vt -0.191589 0.531860
vt 0.688110 0.076111
vt -0.191589 0.531860
vt 0.821960 0.704529
vt 0.787781 0.704102
vt 0.869812 0.549622
vt 0.824707 0.549622
vt 0.786194 0.711182
vt 0.833008 0.548767
vt 0.833740 0.140076
vt 0.842590 0.195679
vt 1.011902 0.140076
vt 1.003113 0.084473
vt 0.922852 0.140076
vt 1.003113 0.195679
vt 1.011902 0.140076
vt 0.978394 0.240295
vt 0.922852 0.265015
vt 0.821960 0.704529
vt 0.786194 0.711182
vt 0.833008 0.548767
vt 0.821960 0.708435
vt 0.821960 0.704529
vt 0.829468 0.628784
vt 0.863953 0.714050
vt 0.905884 0.704529
vt 0.821960 0.708435
vt 0.905884 0.708435
vt 0.863953 0.708435
vt 0.821960 0.708435
vt 0.821960 0.704529
vt 0.821960 0.704529
vt 0.821960 0.708435
vt 0.863953 0.708435
vt 0.827271 0.536377
vt 0.821960 0.704529
vt 0.787781 0.704102
vt 0.869812 0.549622
vt 0.824707 0.549622
vt 0.821960 0.704529
vt 0.821960 0.704529
vt 1.003113 0.084473
vt 0.978394 0.039917
vt 0.922852 0.015137
vt 0.867310 0.039917
vt 0.842590 0.084473
vt 0.833740 0.140076
vt 0.842590 0.195679
vt 0.867310 0.240295
vt 0.827271 0.536377
vt 1.003113 0.084473
vt 0.978394 0.039917
vt 0.922852 0.015137
vt 0.867310 0.039917
vt 0.842590 0.084473
vt 0.833740 0.140076
vt 0.842590 0.195679
vt 0.867310 0.240295
vt 0.905884 0.704529
vt 0.827271 0.536377
vt 0.827271 0.536377
s 1
usemtl cloud_platform_tx
f 1/1/1 2/4/2 3/5/3
f 4/9/4 2/4/2 1/1/1
f 5/10/5 4/9/4 1/1/1
f 6/11/6 4/9/4 5/10/5
f 7/12/7 6/11/6 5/10/5
f 8/13/8 6/11/6 7/12/7
f 9/14/9 8/13/8 7/12/7
f 10/15/10 8/13/8 9/14/9
f 11/16/11 10/15/10 9/14/9
f 12/17/12 10/15/10 11/16/11
f 13/18/13 12/17/12 11/16/11
f 14/19/14 12/17/12 13/18/13
f 15/20/15 14/19/14 13/18/13
f 16/21/16 14/19/14 15/20/15
f 17/22/17 16/21/16 15/20/15
f 18/23/18 16/21/16 17/22/17
f 19/24/19 18/23/18 17/22/17
f 20/26/20 18/23/18 19/24/19
f 21/27/21 20/26/20 19/24/19
f 22/28/22 20/26/20 21/27/21
f 23/30/23 22/28/22 21/27/21
f 24/31/24 22/28/22 23/30/23
f 25/33/25 24/31/24 23/30/23
f 26/34/26 24/31/24 25/33/25
f 27/37/27 26/34/26 25/33/25
f 28/39/28 29/41/29 30/43/30
f 31/46/31 29/41/29 28/39/28
f 32/47/32 31/46/31 28/39/28
f 33/48/33 31/46/31 32/47/32
f 34/49/34 33/48/33 32/47/32
f 35/50/35 33/48/33 34/49/34
f 36/51/36 35/50/35 34/49/34
f 37/52/37 35/50/35 36/51/36
f 38/53/38 37/52/37 36/51/36
f 39/54/39 37/52/37 38/53/38
f 40/55/40 39/54/39 38/53/38
f 41/56/41 39/54/39 40/55/40
f 42/57/42 41/56/41 40/55/40
f 43/58/43 41/56/41 42/57/42
f 44/59/44 43/58/43 42/57/42
f 45/60/45 43/58/43 44/59/44
f 46/61/46 45/60/45 44/59/44
f 47/62/47 45/60/45 46/61/46
f 48/64/48 47/62/47 46/61/46
f 49/65/49 47/62/47 48/64/48
f 50/67/50 49/65/49 48/64/48
f 51/68/51 49/65/49 50/67/50
f 52/70/52 51/68/51 50/67/50
f 53/71/53 51/68/51 52/70/52
f 3/6/3 53/71/53 52/70/52
f 54/73/54 55/76/55 56/77/56
f 57/81/57 55/76/55 54/73/54
f 58/82/58 57/81/57 54/73/54
f 59/83/59 57/81/57 58/82/58
f 60/84/60 59/83/59 58/82/58
f 61/85/61 59/83/59 60/84/60
f 62/86/62 61/85/61 60/84/60
f 63/87/63 61/85/61 62/86/62
f 64/88/64 63/87/63 62/86/62
f 65/89/65 63/87/63 64/88/64
f 66/90/66 65/89/65 64/88/64
f 67/91/67 65/89/65 66/90/66
f 68/92/68 67/91/67 66/90/66
f 69/93/69 67/91/67 68/92/68
f 70/94/70 69/93/69 68/92/68
f 71/95/71 69/93/69 70/94/70
f 72/96/72 71/95/71 70/94/70
f 73/98/73 71/95/71 72/96/72
f 74/99/74 73/98/73 72/96/72
f 75/100/75 73/98/73 74/99/74
f 76/102/76 75/100/75 74/99/74
f 77/103/77 75/100/75 76/102/76
f 78/105/78 77/103/77 76/102/76
f 79/106/79 77/103/77 78/105/78
f 30/44/30 79/106/79 78/105/78
f 80/108/80 81/111/81 27/36/27
f 82/112/82 81/111/81 80/108/80
f 83/113/83 82/112/82 80/108/80
f 84/114/84 82/112/82 83/113/83
f 85/115/85 84/114/84 83/113/83
f 86/116/86 84/114/84 85/115/85
f 87/117/87 86/116/86 85/115/85
f 88/118/88 86/116/86 87/117/87
f 89/119/89 88/118/88 87/117/87
f 90/120/90 88/118/88 89/119/89
f 91/121/91 90/120/90 89/119/89
f 92/122/92 90/120/90 91/121/91
f 93/123/93 92/122/92 91/121/91
f 94/124/94 92/122/92 93/123/93
f 95/125/95 94/124/94 93/123/93
f 96/126/96 94/124/94 95/125/95
f 97/127/97 96/126/96 95/125/95
f 98/129/98 96/126/96 97/127/97
f 99/130/99 98/129/98 97/127/97
f 100/131/100 98/129/98 99/130/99
f 101/133/101 100/131/100 99/130/99
f 102/134/102 100/131/100 101/133/101
f 103/136/103 102/134/102 101/133/101
f 104/137/104 102/134/102 103/136/103
f 56/78/56 104/137/104 103/136/103
f 105/139/105 106/140/106 107/143/107
f 108/144/108 106/140/106 105/139/105
f 109/146/109 108/144/108 105/139/105
f 110/147/110 108/144/108 109/146/109
f 111/149/111 110/147/110 109/146/109
f 112/150/112 110/147/110 111/149/111
f 113/151/113 112/150/112 111/149/111
f 114/152/114 112/150/112 113/151/113
f 115/153/115 114/152/114 113/151/113
f 116/154/116 114/152/114 115/153/115
f 117/155/117 116/154/116 115/153/115
f 118/156/118 116/154/116 117/155/117
f 67/91/67 118/156/118 117/155/117
f 69/93/69 118/156/118 67/91/67
f 119/157/119 120/158/120 121/161/121
f 122/162/122 120/158/120 119/157/119
f 123/164/123 122/162/122 119/157/119
f 124/165/124 122/162/122 123/164/123
f 125/167/125 124/165/124 123/164/123
f 126/168/126 124/165/124 125/167/125
f 127/169/127 126/168/126 125/167/125
f 128/170/128 126/168/126 127/169/127
f 129/171/129 128/170/128 127/169/127
f 130/172/130 128/170/128 129/171/129
f 131/173/131 130/172/130 129/171/129
f 132/174/132 130/172/130 131/173/131
f 92/122/92 132/174/132 131/173/131
f 94/124/94 132/174/132 92/122/92
f 133/175/133 134/176/134 135/179/135
f 136/180/136 134/176/134 133/175/133
f 137/182/137 136/180/136 133/175/133
f 138/183/138 136/180/136 137/182/137
f 139/185/139 138/183/138 137/182/137
f 140/186/140 138/183/138 139/185/139
f 141/187/141 140/186/140 139/185/139
f 142/188/142 140/186/140 141/187/141
f 143/189/143 142/188/142 141/187/141
f 144/190/144 142/188/142 143/189/143
f 145/191/145 144/190/144 143/189/143
f 146/192/146 144/190/144 145/191/145
f 14/19/14 146/192/146 145/191/145
f 16/21/16 146/192/146 14/19/14
f 147/193/147 148/195/148 149/196/149
f 150/198/150 148/195/148 147/193/147
f 151/199/151 150/198/150 147/193/147
f 152/200/152 150/198/150 151/199/151
f 153/201/153 152/200/152 151/199/151
f 154/202/154 152/200/152 153/201/153
f 155/203/155 154/202/154 153/201/153
f 156/204/156 154/202/154 155/203/155
f 157/205/157 156/204/156 155/203/155
f 158/206/158 156/204/156 157/205/157
f 159/207/159 158/206/158 157/205/157
f 35/50/35 158/206/158 159/207/159
f 33/48/33 35/50/35 159/207/159
f 160/208/160 119/157/119 121/161/121
f 161/209/161 119/157/119 160/208/160
f 162/210/162 161/209/161 160/208/160
f 163/211/163 161/209/161 162/210/162
f 164/212/164 163/211/163 162/210/162
f 165/213/165 163/211/163 164/212/164
f 166/214/166 165/213/165 164/212/164
f 167/215/167 165/213/165 166/214/166
f 90/120/90 167/215/167 166/214/166
f 92/122/92 167/215/167 90/120/90
f 168/216/168 169/217/169 170/218/170
f 171/219/171 169/217/169 168/216/168
f 172/221/172 171/219/171 168/216/168
f 173/222/173 171/219/171 172/221/172
f 174/224/174 173/222/173 172/221/172
f 175/226/175 173/222/173 174/224/174
f 176/227/176 175/226/175 174/224/174
f 177/228/177 175/226/175 176/227/176
f 38/53/38 177/228/177 176/227/176
f 36/51/36 177/228/177 38/53/38
f 178/229/178 105/139/105 107/143/107
f 179/230/179 105/139/105 178/229/178
f 180/231/180 179/230/179 178/229/178
f 181/232/181 179/230/179 180/231/180
f 182/233/182 181/232/181 180/231/180
f 183/234/183 181/232/181 182/233/182
f 184/235/184 183/234/183 182/233/182
f 185/236/185 183/234/183 184/235/184
f 65/89/65 185/236/185 184/235/184
f 67/91/67 185/236/185 65/89/65
f 186/237/186 133/175/133 135/179/135
f 187/238/187 133/175/133 186/237/186
f 188/239/188 187/238/187 186/237/186
f 189/240/189 187/238/187 188/239/188
f 190/241/190 189/240/189 188/239/188
f 191/242/191 189/240/189 190/241/190
f 192/243/192 191/242/191 190/241/190
f 193/244/193 191/242/191 192/243/192
f 12/17/12 193/244/193 192/243/192
f 14/19/14 193/244/193 12/17/12
f 194/245/194 195/247/195 47/62/47
f 196/248/196 195/247/195 194/245/194
f 197/249/197 196/248/196 194/245/194
f 198/251/198 196/248/196 197/249/197
f 199/253/199 198/251/198 197/249/197
f 200/256/200 198/251/198 199/253/199
f 201/257/201 200/256/200 199/253/199
f 202/259/202 200/256/200 201/257/201
f 203/260/203 202/259/202 201/257/201
f 204/262/204 202/259/202 203/260/203
f 25/33/25 80/109/80 27/37/27
f 205/263/205 80/109/80 25/33/25
f 206/264/206 205/263/205 25/33/25
f 207/265/207 205/263/205 206/264/206
f 208/266/208 207/265/207 206/264/206
f 209/268/209 207/265/207 208/266/208
f 210/269/210 209/268/209 208/266/208
f 211/270/211 209/268/209 210/269/210
f 212/272/212 211/270/211 210/269/210
f 195/247/195 45/60/45 47/62/47
f 213/274/213 45/60/45 195/247/195
f 214/275/214 213/274/213 195/247/195
f 215/276/215 213/274/213 214/275/214
f 216/277/216 215/276/215 214/275/214
f 217/278/217 215/276/215 216/277/216
f 218/279/218 217/278/217 216/277/216
f 154/202/154 217/278/217 218/279/218
f 152/200/152 154/202/154 218/279/218
f 52/70/52 1/2/1 3/6/3
f 219/280/219 1/2/1 52/70/52
f 220/281/220 219/280/219 52/70/52
f 221/282/221 219/280/219 220/281/220
f 222/283/222 221/282/221 220/281/220
f 223/284/223 221/282/221 222/283/222
f 169/217/169 223/284/223 222/283/222
f 224/286/224 223/284/223 169/217/169
f 171/219/171 224/286/224 169/217/169
f 103/136/103 54/74/54 56/78/56
f 225/288/225 54/74/54 103/136/103
f 226/289/226 225/288/225 103/136/103
f 227/290/227 225/288/225 226/289/226
f 228/291/228 227/290/227 226/289/226
f 229/293/229 227/290/227 228/291/228
f 230/294/230 229/293/229 228/291/228
f 231/295/231 229/293/229 230/294/230
f 232/297/232 231/295/231 230/294/230
f 78/105/78 28/40/28 30/44/30
f 233/299/233 28/40/28 78/105/78
f 234/300/234 233/299/233 78/105/78
f 235/301/235 233/299/233 234/300/234
f 236/302/236 235/301/235 234/300/234
f 237/303/237 235/301/235 236/302/236
f 238/305/238 237/303/237 236/302/236
f 239/306/239 237/303/237 238/305/238
f 240/308/240 239/306/239 238/305/238
f 241/310/241 242/312/242 243/313/243
f 244/316/244 242/312/242 241/310/241
f 245/317/245 244/316/244 241/310/241
f 246/320/246 244/316/244 245/317/245
f 247/321/247 246/320/246 245/317/245
f 248/323/248 246/320/246 247/321/247
f 249/324/249 248/323/248 247/321/247
f 250/326/250 248/323/248 249/324/249
f 251/327/251 252/329/252 253/330/253
f 254/333/254 252/329/252 251/327/251
f 255/334/255 254/333/254 251/327/251
f 256/337/256 254/333/254 255/334/255
f 257/338/257 256/337/256 255/334/255
f 258/340/258 256/337/256 257/338/257
f 259/341/259 258/340/258 257/338/257
f 260/343/260 258/340/258 259/341/259
f 213/274/213 43/58/43 45/60/45
f 41/56/41 43/58/43 213/274/213
f 215/276/215 41/56/41 213/274/213
f 261/344/261 41/56/41 215/276/215
f 262/345/262 261/344/261 215/276/215
f 156/204/156 261/344/261 262/345/262
f 217/278/217 156/204/156 262/345/262
f 154/202/154 156/204/156 217/278/217
f 263/346/263 264/348/264 265/349/265
f 266/352/266 264/348/264 263/346/263
f 267/353/267 266/352/266 263/346/263
f 268/356/268 266/352/266 267/353/267
f 269/357/269 268/356/268 267/353/267
f 270/359/270 268/356/268 269/357/269
f 271/361/271 270/359/270 269/357/269
f 272/362/272 270/359/270 271/361/271
f 126/168/126 273/364/273 124/165/124
f 274/365/274 273/364/273 126/168/126
f 128/170/128 274/365/274 126/168/126
f 242/312/242 274/365/274 128/170/128
f 275/366/275 242/312/242 128/170/128
f 243/313/243 242/312/242 275/366/275
f 98/129/98 243/313/243 275/366/275
f 276/367/276 277/369/277 278/371/278
f 279/372/279 277/369/277 276/367/276
f 280/373/280 279/372/279 276/367/276
f 64/88/64 279/372/279 280/373/280
f 281/374/281 64/88/64 280/373/280
f 66/90/66 64/88/64 281/374/281
f 68/92/68 66/90/66 281/374/281
f 184/235/184 63/87/63 65/89/65
f 61/85/61 63/87/63 184/235/184
f 282/375/282 61/85/61 184/235/184
f 59/83/59 61/85/61 282/375/282
f 283/376/283 59/83/59 282/375/282
f 57/81/57 59/83/59 283/376/283
f 55/76/55 57/81/57 283/376/283
f 179/230/179 109/146/109 105/139/105
f 284/377/284 109/146/109 179/230/179
f 285/378/285 284/377/284 179/230/179
f 286/379/286 284/377/284 285/378/285
f 287/380/287 286/379/286 285/378/285
f 115/153/115 286/379/286 287/380/287
f 117/155/117 115/153/115 287/380/287
f 187/238/187 137/182/137 133/175/133
f 288/381/288 137/182/137 187/238/187
f 289/382/289 288/381/288 187/238/187
f 290/383/290 288/381/288 289/382/289
f 291/384/291 290/383/290 289/382/289
f 143/189/143 290/383/290 291/384/291
f 145/191/145 143/189/143 291/384/291
f 192/243/192 10/15/10 12/17/12
f 8/13/8 10/15/10 192/243/192
f 292/385/292 8/13/8 192/243/192
f 6/11/6 8/13/8 292/385/292
f 293/386/293 6/11/6 292/385/292
f 4/9/4 6/11/6 293/386/293
f 2/4/2 4/9/4 293/386/293
f 294/387/294 295/389/295 296/391/296
f 297/392/297 295/389/295 294/387/294
f 298/393/298 297/392/297 294/387/294
f 89/119/89 297/392/297 298/393/298
f 299/394/299 89/119/89 298/393/298
f 91/121/91 89/119/89 299/394/299
f 93/123/93 91/121/91 299/394/299
f 112/150/112 300/396/300 110/147/110
f 301/397/301 300/396/300 112/150/112
f 114/152/114 301/397/301 112/150/112
f 252/329/252 301/397/301 114/152/114
f 302/398/302 252/329/252 114/152/114
f 253/330/253 252/329/252 302/398/302
f 73/98/73 253/330/253 302/398/302
f 303/399/303 304/401/304 305/403/305
f 306/404/306 304/401/304 303/399/303
f 307/405/307 306/404/306 303/399/303
f 11/16/11 306/404/306 307/405/307
f 308/406/308 11/16/11 307/405/307
f 13/18/13 11/16/11 308/406/308
f 15/20/15 13/18/13 308/406/308
f 166/214/166 88/118/88 90/120/90
f 86/116/86 88/118/88 166/214/166
f 309/407/309 86/116/86 166/214/166
f 84/114/84 86/116/86 309/407/309
f 310/408/310 84/114/84 309/407/309
f 82/112/82 84/114/84 310/408/310
f 81/111/81 82/112/82 310/408/310
f 140/186/140 311/410/311 138/183/138
f 312/411/312 311/410/311 140/186/140
f 142/188/142 312/411/312 140/186/140
f 264/348/264 312/411/312 142/188/142
f 313/412/313 264/348/264 142/188/142
f 265/349/265 264/348/264 313/412/313
f 20/26/20 265/349/265 313/412/313
f 161/209/161 123/164/123 119/157/119
f 314/413/314 123/164/123 161/209/161
f 315/414/315 314/413/314 161/209/161
f 316/415/316 314/413/314 315/414/315
f 317/416/317 316/415/316 315/414/315
f 129/171/129 316/415/316 317/416/317
f 131/173/131 129/171/129 317/416/317
f 50/67/50 220/281/220 52/70/52
f 170/218/170 220/281/220 50/67/50
f 48/64/48 170/218/170 50/67/50
f 168/216/168 170/218/170 48/64/48
f 46/61/46 168/216/168 48/64/48
f 44/59/44 168/216/168 46/61/46
f 318/417/318 307/405/307 303/399/303
f 319/419/319 307/405/307 318/417/318
f 212/272/212 319/419/319 318/417/318
f 320/420/320 319/419/319 212/272/212
f 210/269/210 320/420/320 212/272/212
f 321/421/321 320/420/320 210/269/210
f 322/422/322 280/373/280 276/367/276
f 323/424/323 280/373/280 322/422/322
f 240/308/240 323/424/323 322/422/322
f 324/425/324 323/424/323 240/308/240
f 238/305/238 324/425/324 240/308/240
f 325/426/325 324/425/324 238/305/238
f 218/279/218 150/198/150 152/200/152
f 326/427/326 150/198/150 218/279/218
f 216/277/216 326/427/326 218/279/218
f 327/428/327 326/427/326 216/277/216
f 214/275/214 327/428/327 216/277/216
f 195/247/195 327/428/327 214/275/214
f 328/429/328 298/393/298 294/387/294
f 329/431/329 298/393/298 328/429/328
f 232/297/232 329/431/329 328/429/328
f 330/432/330 329/431/329 232/297/232
f 230/294/230 330/432/330 232/297/232
f 331/433/331 330/432/330 230/294/230
f 332/434/332 333/436/333 334/438/334
f 335/439/335 333/436/333 332/434/332
f 29/41/29 335/439/335 332/434/332
f 336/440/336 335/439/335 29/41/29
f 31/46/31 336/440/336 29/41/29
f 33/48/33 336/440/336 31/46/31
f 337/441/337 338/442/338 339/443/339
f 340/455/340 338/442/338 337/441/337
f 341/456/341 340/455/340 337/441/337
f 342/457/342 340/455/340 341/456/341
f 343/458/343 342/457/342 341/456/341
f 344/459/344 337/441/337 339/444/339
f 341/456/341 337/441/337 344/459/344
f 345/460/345 341/456/341 344/459/344
f 343/458/343 341/456/341 345/460/345
f 346/461/346 343/458/343 345/460/345
f 347/462/347 344/459/344 339/445/339
f 345/460/345 344/459/344 347/462/347
f 348/463/348 345/460/345 347/462/347
f 346/461/346 345/460/345 348/463/348
f 349/464/349 346/461/346 348/463/348
f 350/465/350 347/462/347 339/446/339
f 348/463/348 347/462/347 350/465/350
f 351/466/351 348/463/348 350/465/350
f 349/464/349 348/463/348 351/466/351
f 352/467/352 349/464/349 351/466/351
f 353/468/353 350/465/350 339/447/339
f 351/466/351 350/465/350 353/468/353
f 354/469/354 351/466/351 353/468/353
f 352/467/352 351/466/351 354/469/354
f 355/470/355 352/467/352 354/469/354
f 356/471/356 353/468/353 339/448/339
f 354/469/354 353/468/353 356/471/356
f 357/472/357 354/469/354 356/471/356
f 355/470/355 354/469/354 357/472/357
f 358/473/358 355/470/355 357/472/357
f 359/474/359 356/471/356 339/449/339
f 357/472/357 356/471/356 359/474/359
f 360/475/360 357/472/357 359/474/359
f 358/473/358 357/472/357 360/475/360
f 361/476/361 358/473/358 360/475/360
f 362/477/362 359/474/359 339/450/339
f 360/475/360 359/474/359 362/477/362
f 363/478/363 360/475/360 362/477/362
f 361/476/361 360/475/360 363/478/363
f 364/479/364 361/476/361 363/478/363
f 365/480/365 362/477/362 339/451/339
f 363/478/363 362/477/362 365/480/365
f 366/481/366 363/478/363 365/480/365
f 364/479/364 363/478/363 366/481/366
f 367/482/367 364/479/364 366/481/366
f 117/155/117 185/236/185 67/91/67
f 368/484/368 185/236/185 117/155/117
f 287/380/287 368/484/368 117/155/117
f 183/234/183 368/484/368 287/380/287
f 285/378/285 183/234/183 287/380/287
f 100/132/100 243/314/243 98/128/98
f 369/485/369 243/314/243 100/132/100
f 370/486/370 369/485/369 100/132/100
f 245/318/245 369/485/369 370/486/370
f 247/322/247 245/318/245 370/486/370
f 75/101/75 253/331/253 73/97/73
f 371/487/371 253/331/253 75/101/75
f 372/488/372 371/487/371 75/101/75
f 255/335/255 371/487/371 372/488/372
f 257/339/257 255/335/255 372/488/372
f 338/442/338 373/489/373 339/452/339
f 374/491/374 373/489/373 338/442/338
f 340/455/340 374/491/374 338/442/338
f 375/492/375 374/491/374 340/455/340
f 342/457/342 375/492/375 340/455/340
f 22/29/22 265/350/265 20/25/20
f 376/493/376 265/350/265 22/29/22
f 377/494/377 376/493/376 22/29/22
f 267/354/267 376/493/376 377/494/377
f 269/358/269 267/354/267 377/494/377
f 191/242/191 291/384/291 289/382/289
f 378/495/378 291/384/291 191/242/191
f 193/244/193 378/495/378 191/242/191
f 145/191/145 378/495/378 193/244/193
f 14/19/14 145/191/145 193/244/193
f 165/213/165 317/416/317 315/414/315
f 379/496/379 317/416/317 165/213/165
f 167/215/167 379/496/379 165/213/165
f 131/173/131 379/496/379 167/215/167
f 92/122/92 131/173/131 167/215/167
f 49/66/49 194/246/194 47/63/47
f 380/497/380 194/246/194 49/66/49
f 381/498/381 380/497/380 49/66/49
f 199/254/199 380/497/380 381/498/381
f 201/258/201 199/254/199 381/498/381
f 382/499/382 365/480/365 339/453/339
f 366/481/366 365/480/365 382/499/382
f 383/500/383 366/481/366 382/499/382
f 367/482/367 366/481/366 383/500/383
f 134/177/134 384/502/384 135/178/135
f 385/506/385 384/502/384 134/177/134
f 136/181/136 385/506/385 134/177/134
f 138/184/138 385/506/385 136/181/136
f 386/507/386 387/509/387 388/511/388
f 389/515/389 387/509/387 386/507/386
f 3/7/3 389/515/389 386/507/386
f 2/3/2 389/515/389 3/7/3
f 226/289/226 230/294/230 228/291/228
f 331/433/331 230/294/230 226/289/226
f 101/133/101 331/433/331 226/289/226
f 99/130/99 331/433/331 101/133/101
f 268/355/268 390/517/390 266/351/266
f 385/506/385 390/517/390 268/355/268
f 391/519/391 385/506/385 268/355/268
f 392/522/392 385/506/385 391/519/391
f 393/523/393 384/504/384 385/505/385
f 204/262/204 384/504/384 393/523/393
f 394/525/394 204/262/204 393/523/393
f 395/527/395 204/262/204 394/525/394
f 332/435/332 30/45/30 29/42/29
f 396/529/396 30/45/30 332/435/332
f 334/437/334 396/529/396 332/435/332
f 397/532/397 396/529/396 334/437/334
f 398/533/398 151/199/151 147/193/147
f 399/535/399 151/199/151 398/533/398
f 400/536/400 399/535/399 398/533/398
f 401/539/401 399/535/399 400/536/400
f 196/248/196 327/428/327 195/247/195
f 402/540/402 327/428/327 196/248/196
f 198/251/198 402/540/402 196/248/196
f 403/541/403 402/540/402 198/251/198
f 206/264/206 210/269/210 208/266/208
f 321/421/321 210/269/210 206/264/206
f 23/30/23 321/421/321 206/264/206
f 21/27/21 321/421/321 23/30/23
f 190/241/190 292/385/292 192/243/192
f 293/386/293 292/385/292 190/241/190
f 188/239/188 293/386/293 190/241/190
f 2/4/2 293/386/293 188/239/188
f 400/537/400 404/543/404 401/538/401
f 405/547/405 404/543/404 400/537/400
f 398/534/398 405/547/405 400/537/400
f 147/194/147 405/547/405 398/534/398
f 174/224/174 38/53/38 176/227/176
f 406/548/406 38/53/38 174/224/174
f 172/221/172 406/548/406 174/224/174
f 42/57/42 406/548/406 172/221/172
f 234/300/234 238/305/238 236/302/236
f 325/426/325 238/305/238 234/300/234
f 76/102/76 325/426/325 234/300/234
f 74/99/74 325/426/325 76/102/76
f 407/549/407 408/551/408 409/553/409
f 410/557/410 408/551/408 407/549/407
f 56/79/56 410/557/410 407/549/407
f 55/75/55 410/557/410 56/79/56
f 411/559/411 404/544/404 405/546/405
f 260/343/260 404/544/404 411/559/411
f 412/561/412 260/343/260 411/559/411
f 413/563/413 260/343/260 412/561/412
f 256/336/256 414/565/414 254/332/254
f 415/569/415 414/565/414 256/336/256
f 416/570/416 415/569/415 256/336/256
f 413/564/413 415/569/415 416/570/416
f 106/141/106 417/572/417 107/142/107
f 415/569/415 417/572/417 106/141/106
f 108/145/108 415/569/415 106/141/106
f 110/148/110 415/569/415 108/145/108
f 200/255/200 403/542/403 198/252/198
f 405/547/405 403/542/403 200/255/200
f 418/575/418 405/547/405 200/255/200
f 395/528/395 405/547/405 418/575/418
f 419/577/419 417/573/417 415/567/415
f 250/326/250 417/573/417 419/577/419
f 420/579/420 250/326/250 419/577/419
f 421/581/421 250/326/250 420/579/420
f 164/212/164 309/407/309 166/214/166
f 310/408/310 309/407/309 164/212/164
f 162/210/162 310/408/310 164/212/164
f 81/111/81 310/408/310 162/210/162
f 246/319/246 422/583/422 244/315/244
f 423/587/423 422/583/422 246/319/246
f 424/588/424 423/587/423 246/319/246
f 421/582/421 423/587/423 424/588/424
f 120/159/120 425/590/425 121/160/121
f 423/587/423 425/590/425 120/159/120
f 122/163/122 423/587/423 120/159/120
f 124/166/124 423/587/423 122/163/122
f 182/233/182 282/375/282 184/235/184
f 283/376/283 282/375/282 182/233/182
f 180/231/180 283/376/283 182/233/182
f 55/76/55 283/376/283 180/231/180
f 399/535/399 153/201/153 151/199/151
f 333/436/333 153/201/153 399/535/399
f 401/539/401 333/436/333 399/535/399
f 334/438/334 333/436/333 401/539/401
f 426/593/426 27/38/27 81/110/81
f 427/595/427 27/38/27 426/593/426
f 428/596/428 427/595/427 426/593/426
f 429/598/429 427/595/427 428/596/428
f 430/601/430 425/591/425 423/585/423
f 272/362/272 425/591/425 430/601/430
f 431/603/431 272/362/272 430/601/430
f 392/521/392 272/362/272 431/603/431
f 304/401/304 7/12/7 305/403/305
f 9/14/9 7/12/7 304/401/304
f 11/16/11 9/14/9 304/401/304
f 319/419/319 308/406/308 307/405/307
f 15/20/15 308/406/308 319/419/319
f 17/22/17 15/20/15 319/419/319
f 432/605/432 27/38/27 427/595/427
f 26/35/26 27/38/27 432/605/432
f 377/494/377 26/35/26 432/605/432
f 248/323/248 424/589/424 246/320/246
f 421/581/421 424/589/424 248/323/248
f 250/326/250 421/581/421 248/323/248
f 433/606/433 434/607/434 435/610/435
f 278/370/278 434/607/434 433/606/433
f 276/368/276 278/370/278 433/606/433
f 436/612/436 173/223/173 175/225/175
f 171/220/171 173/223/173 436/612/436
f 224/287/224 171/220/171 436/612/436
f 437/613/437 438/614/438 439/615/439
f 440/616/440 438/614/438 437/613/437
f 441/617/441 440/616/440 437/613/437
f 436/612/436 442/618/442 443/622/443
f 444/623/444 442/618/442 436/612/436
f 175/225/175 444/623/444 436/612/436
f 335/439/335 153/201/153 333/436/333
f 155/203/155 153/201/153 335/439/335
f 157/205/157 155/203/155 335/439/335
f 261/344/261 39/54/39 41/56/41
f 158/206/158 39/54/39 261/344/261
f 156/204/156 158/206/158 261/344/261
f 148/195/148 327/428/327 402/540/402
f 326/427/326 327/428/327 148/195/148
f 150/198/150 326/427/326 148/195/148
f 295/389/295 85/115/85 296/391/296
f 87/117/87 85/115/85 295/389/295
f 89/119/89 87/117/87 295/389/295
f 437/613/437 445/625/445 446/626/446
f 447/627/447 445/625/445 437/613/437
f 448/628/448 447/627/447 437/613/437
f 329/431/329 299/394/299 298/393/298
f 93/123/93 299/394/299 329/431/329
f 95/125/95 93/123/93 329/431/329
f 449/629/449 450/630/450 451/631/451
f 452/632/452 450/630/450 449/629/449
f 453/633/453 452/632/452 449/629/449
f 454/634/454 455/635/455 456/636/456
f 457/637/457 455/635/455 454/634/454
f 458/638/458 457/637/457 454/634/454
f 454/634/454 459/639/459 458/638/458
f 460/640/460 459/639/459 454/634/454
f 461/641/461 460/640/460 454/634/454
f 454/634/454 462/642/462 461/641/461
f 463/643/463 462/642/462 454/634/454
f 464/644/464 463/643/463 454/634/454
f 454/634/454 465/645/465 464/644/464
f 466/646/466 465/645/465 454/634/454
f 456/636/456 466/646/466 454/634/454
f 467/647/467 3/8/3 386/508/386
f 53/72/53 3/8/3 467/647/467
f 381/498/381 53/72/53 467/647/467
f 374/491/374 383/501/383 373/489/373
f 468/648/468 383/501/383 374/491/374
f 375/492/375 468/648/468 374/491/374
f 469/649/469 56/80/56 407/550/407
f 104/138/104 56/80/56 469/649/469
f 370/486/370 104/138/104 469/649/469
f 202/259/202 418/576/418 200/256/200
f 395/527/395 418/576/418 202/259/202
f 204/262/204 395/527/395 202/259/202
f 470/650/470 471/651/471 472/654/472
f 296/390/296 471/651/471 470/650/470
f 294/388/294 296/390/296 470/650/470
f 258/340/258 416/571/416 256/337/256
f 413/563/413 416/571/416 258/340/258
f 260/343/260 413/563/413 258/340/258
f 437/613/437 473/656/473 441/617/441
f 474/657/474 473/656/473 437/613/437
f 446/626/446 474/657/474 437/613/437
f 437/613/437 475/658/475 448/628/448
f 476/659/476 475/658/475 437/613/437
f 439/615/439 476/659/476 437/613/437
f 270/359/270 391/520/391 268/356/268
f 392/521/392 391/520/391 270/359/270
f 272/362/272 392/521/392 270/359/270
f 477/660/477 478/661/478 479/662/479
f 480/663/480 478/661/478 477/660/477
f 481/664/481 480/663/480 477/660/477
f 177/228/177 444/624/444 175/226/175
f 34/49/34 444/624/444 177/228/177
f 36/51/36 34/49/34 177/228/177
f 223/285/223 482/665/482 483/666/483
f 484/668/484 482/665/482 223/285/223
f 485/669/485 484/668/484 223/285/223
f 277/369/277 60/84/60 278/371/278
f 62/86/62 60/84/60 277/369/277
f 64/88/64 62/86/62 277/369/277
f 385/506/385 394/526/394 393/524/393
f 405/547/405 394/526/394 385/506/385
f 415/568/415 405/547/405 385/506/385
f 323/424/323 281/374/281 280/373/280
f 68/92/68 281/374/281 323/424/323
f 70/94/70 68/92/68 323/424/323
f 486/670/486 30/45/30 396/529/396
f 79/107/79 30/45/30 486/670/486
f 372/488/372 79/107/79 486/670/486
f 487/671/339 488/672/487 489/674/488
f 490/675/489 488/672/487 487/671/339
f 491/677/490 490/675/489 487/671/339
f 487/671/339 484/668/484 491/677/490
f 492/678/491 484/668/484 487/671/339
f 493/680/492 492/678/491 487/671/339
f 51/69/51 381/498/381 49/66/49
f 53/72/53 381/498/381 51/69/51
f 434/608/434 60/84/60 58/82/58
f 278/371/278 60/84/60 434/608/434
f 233/299/233 494/681/493 28/40/28
f 235/301/235 494/681/493 233/299/233
f 443/621/443 235/301/235 237/303/237
f 442/620/442 235/301/235 443/621/443
f 159/207/159 336/440/336 33/48/33
f 157/205/157 336/440/336 159/207/159
f 37/52/37 158/206/158 35/50/35
f 39/54/39 158/206/158 37/52/37
f 149/196/149 402/540/402 403/541/403
f 148/195/148 402/540/402 149/196/149
f 266/352/266 312/411/312 264/348/264
f 390/518/390 312/411/312 266/352/266
f 144/190/144 313/412/313 142/188/142
f 146/192/146 313/412/313 144/190/144
f 313/412/313 18/23/18 20/26/20
f 146/192/146 18/23/18 313/412/313
f 373/490/373 382/499/382 339/454/339
f 383/500/383 382/499/382 373/490/373
f 387/510/387 186/237/186 135/179/135
f 389/516/389 186/237/186 387/510/387
f 389/516/389 188/239/188 186/237/186
f 2/4/2 188/239/188 389/516/389
f 388/512/388 135/179/135 384/503/384
f 387/510/387 135/179/135 388/512/388
f 482/665/482 209/267/209 211/271/211
f 493/679/492 209/267/209 482/665/482
f 288/381/288 139/185/139 137/182/137
f 290/383/290 139/185/139 288/381/288
f 189/240/189 289/382/289 187/238/187
f 191/242/191 289/382/289 189/240/189
f 212/273/212 495/682/494 211/271/211
f 318/418/318 495/682/494 212/273/212
f 290/383/290 141/187/141 139/185/139
f 143/189/143 141/187/141 290/383/290
f 385/506/385 311/409/311 390/517/390
f 138/184/138 311/409/311 385/506/385
f 303/400/303 495/682/494 318/418/318
f 305/402/305 495/682/494 303/400/303
f 496/683/495 495/682/494 305/402/305
f 483/666/483 495/682/494 496/683/495
f 21/27/21 320/420/320 321/421/321
f 19/24/19 320/420/320 21/27/21
f 423/587/423 431/604/431 430/602/430
f 385/506/385 431/604/431 423/587/423
f 320/420/320 17/22/17 319/419/319
f 19/24/19 17/22/17 320/420/320
f 497/686/496 209/267/209 493/679/492
f 472/654/472 209/267/209 497/686/496
f 429/598/429 432/605/432 427/595/427
f 271/360/271 432/605/432 429/598/429
f 269/358/269 432/605/432 271/360/271
f 377/494/377 432/605/432 269/358/269
f 425/591/425 271/361/271 429/599/429
f 272/362/272 271/361/271 425/591/425
f 429/600/429 121/161/121 425/592/425
f 428/597/428 121/161/121 429/600/429
f 384/504/384 203/260/203 388/513/388
f 204/262/204 203/260/203 384/504/384
f 244/316/244 274/365/274 242/312/242
f 422/584/422 274/365/274 244/316/244
f 497/686/496 229/292/229 231/296/231
f 489/673/488 229/292/229 497/686/496
f 130/172/130 275/366/275 128/170/128
f 132/174/132 275/366/275 130/172/130
f 275/366/275 96/126/96 98/129/98
f 132/174/132 96/126/96 275/366/275
f 232/298/232 470/650/470 231/296/231
f 328/430/328 470/650/470 232/298/232
f 423/587/423 273/363/273 422/583/422
f 124/166/124 273/363/273 423/587/423
f 428/597/428 160/208/160 121/161/121
f 426/594/426 160/208/160 428/597/428
f 426/594/426 162/210/162 160/208/160
f 81/111/81 162/210/162 426/594/426
f 415/569/415 420/580/420 419/578/419
f 423/587/423 420/580/420 415/569/415
f 498/687/497 229/292/229 489/673/488
f 435/610/435 229/292/229 498/687/497
f 314/413/314 125/167/125 123/164/123
f 316/415/316 125/167/125 314/413/314
f 163/211/163 315/414/315 161/209/161
f 165/213/165 315/414/315 163/211/163
f 417/573/417 249/324/249 409/554/409
f 250/326/250 249/324/249 417/573/417
f 316/415/316 127/169/127 125/167/125
f 129/171/129 127/169/127 316/415/316
f 409/555/409 107/143/107 417/574/417
f 408/552/408 107/143/107 409/555/409
f 498/687/497 237/304/237 239/307/239
f 490/676/489 237/304/237 498/687/497
f 240/309/240 433/606/433 239/307/239
f 322/423/322 433/606/433 240/309/240
f 415/569/415 300/395/300 414/565/414
f 110/148/110 300/395/300 415/569/415
f 99/130/99 330/432/330 331/433/331
f 97/127/97 330/432/330 99/130/99
f 405/547/405 412/562/412 411/560/411
f 415/569/415 412/562/412 405/547/405
f 330/432/330 95/125/95 329/431/329
f 97/127/97 95/125/95 330/432/330
f 485/669/485 237/304/237 490/676/489
f 443/622/443 237/304/237 485/669/485
f 499/688/498 449/629/449 451/631/451
f 500/689/499 449/629/449 499/688/498
f 501/690/500 449/629/449 500/689/499
f 502/691/501 449/629/449 501/690/500
f 503/692/502 449/629/449 502/691/501
f 504/693/503 449/629/449 503/692/502
f 505/694/504 449/629/449 504/693/503
f 506/695/505 449/629/449 505/694/504
f 404/544/404 259/341/259 397/530/397
f 260/343/260 259/341/259 404/544/404
f 397/531/397 401/539/401 404/545/404
f 334/438/334 401/539/401 397/531/397
f 149/197/149 405/547/405 147/194/147
f 403/542/403 405/547/405 149/197/149
f 496/684/495 7/12/7 5/10/5
f 305/403/305 7/12/7 496/684/495
f 205/263/205 507/696/506 80/109/80
f 207/265/207 507/696/506 205/263/205
f 388/514/388 467/647/467 386/508/386
f 203/261/203 467/647/467 388/514/388
f 201/258/201 467/647/467 203/261/203
f 381/498/381 467/647/467 201/258/201
f 472/655/472 207/265/207 209/268/209
f 471/653/471 207/265/207 472/655/472
f 508/697/507 477/660/477 479/662/479
f 509/698/508 477/660/477 508/697/507
f 510/699/509 477/660/477 509/698/508
f 511/700/510 477/660/477 510/699/509
f 512/701/511 477/660/477 511/700/510
f 513/702/512 477/660/477 512/701/511
f 514/703/513 477/660/477 513/702/512
f 515/704/514 477/660/477 514/703/513
f 376/493/376 263/347/263 265/350/265
f 267/354/267 263/347/263 376/493/376
f 409/556/409 469/649/469 407/550/407
f 249/325/249 469/649/469 409/556/409
f 247/322/247 469/649/469 249/325/249
f 370/486/370 469/649/469 247/322/247
f 24/32/24 377/494/377 22/29/22
f 26/35/26 377/494/377 24/32/24
f 516/705/515 487/671/339 489/674/488
f 493/680/492 487/671/339 516/705/515
f 471/652/471 85/115/85 83/113/83
f 296/391/296 85/115/85 471/652/471
f 254/333/254 301/397/301 252/329/252
f 414/566/414 301/397/301 254/333/254
f 225/288/225 517/706/516 54/74/54
f 227/290/227 517/706/516 225/288/225
f 116/154/116 302/398/302 114/152/114
f 118/156/118 302/398/302 116/154/116
f 302/398/302 71/95/71 73/98/73
f 118/156/118 71/95/71 302/398/302
f 435/611/435 227/290/227 229/293/229
f 434/609/434 227/290/227 435/611/435
f 369/485/369 241/311/241 243/314/243
f 245/318/245 241/311/241 369/485/369
f 408/552/408 178/229/178 107/143/107
f 410/558/410 178/229/178 408/552/408
f 410/558/410 180/231/180 178/229/178
f 55/76/55 180/231/180 410/558/410
f 102/135/102 370/486/370 100/132/100
f 104/138/104 370/486/370 102/135/102
f 371/487/371 251/328/251 253/331/253
f 255/335/255 251/328/251 371/487/371
f 113/151/113 286/379/286 115/153/115
f 111/149/111 286/379/286 113/151/113
f 181/232/181 285/378/285 179/230/179
f 183/234/183 285/378/285 181/232/181
f 77/104/77 372/488/372 75/101/75
f 79/107/79 372/488/372 77/104/77
f 284/377/284 111/149/111 109/146/109
f 286/379/286 111/149/111 284/377/284
f 219/280/219 518/707/517 1/2/1
f 221/282/221 518/707/517 219/280/219
f 483/667/483 221/282/221 223/284/223
f 496/685/495 221/282/221 483/667/483
f 442/619/442 34/49/34 32/47/32
f 444/624/444 34/49/34 442/619/442
f 74/99/74 324/425/324 325/426/325
f 72/96/72 324/425/324 74/99/74
f 220/281/220 169/217/169 222/283/222
f 170/218/170 169/217/169 220/281/220
f 324/425/324 70/94/70 323/424/323
f 72/96/72 70/94/70 324/425/324
f 44/59/44 172/221/172 168/216/168
f 42/57/42 172/221/172 44/59/44
f 397/532/397 486/670/486 396/529/396
f 259/342/259 486/670/486 397/532/397
f 257/339/257 486/670/486 259/342/259
f 372/488/372 486/670/486 257/339/257
f 40/55/40 406/548/406 42/57/42
f 38/53/38 406/548/406 40/55/40
f 380/497/380 197/250/197 194/246/194
f 199/254/199 197/250/197 380/497/380
f 385/506/385 423/586/423 415/568/415
f 312/411/312 390/518/390 311/410/311
f 16/21/16 18/23/18 146/192/146
f 328/430/328 294/388/294 470/650/470
f 412/562/412 415/569/415 413/564/413
f 215/276/215 217/278/217 262/345/262
f 301/397/301 414/566/414 300/396/300
f 69/93/69 71/95/71 118/156/118
f 496/685/495 518/707/517 221/282/221
f 394/526/394 405/547/405 395/528/395
f 157/205/157 335/439/335 336/440/336
f 449/629/449 506/695/505 453/633/453
f 274/365/274 422/584/422 273/364/273
f 94/124/94 96/126/96 132/174/132
f 420/580/420 423/587/423 421/582/421
f 434/609/434 517/706/516 227/290/227
f 226/289/226 103/136/103 101/133/101
f 183/234/183 185/236/185 368/484/368
f 431/604/431 385/506/385 392/522/392
f 145/191/145 291/384/291 378/495/378
f 471/653/471 507/696/506 207/265/207
f 277/369/277 279/372/279 64/88/64
f 206/264/206 25/33/25 23/30/23
f 304/401/304 306/404/306 11/16/11
f 468/648/468 367/483/367 383/501/383
f 485/669/485 223/285/223 224/287/224
f 477/660/477 515/704/514 481/664/481
f 442/620/442 494/681/493 235/301/235
f 322/423/322 276/368/276 433/606/433
f 234/300/234 78/105/78 76/102/76
f 295/389/295 297/392/297 89/119/89
f 131/173/131 317/416/317 379/496/379
