# Blender 3.1.0
# www.blender.org
mtllib Boomerang.mtl
o ItemBoomerang
v 0.768067 -6.461426 1.818601
v 0.413239 -6.703126 2.686034
v 0.413575 -6.837403 2.672605
v 0.415254 -6.966310 2.635007
v 0.421632 -7.186524 2.489989
v 0.431367 -7.336915 2.269772
v 0.453858 -7.347656 1.746092
v 0.463258 -7.175781 1.533933
v 0.442445 -7.395998 2.009274
v 1.049378 -1.207153 -1.883759
v 0.417268 -6.434571 2.592039
v 0.131760 -7.240235 3.083494
v 0.131760 -7.583985 2.857909
v 0.131760 -6.832033 3.161375
v 0.131760 -7.820313 2.516844
v 0.131760 -7.906250 2.111326
v 0.131760 -7.600099 1.359373
v 0.131760 -7.825685 1.705808
v 0.555573 -1.109131 -0.607788
v 0.131760 -1.031250 0.154907
v 0.131760 -6.429201 3.075437
v 0.000001 -7.267090 3.153319
v 0.000001 -7.637696 2.911619
v 0.000001 -7.890138 2.546383
v 0.000001 -6.832033 3.236570
v 0.000001 -7.981445 2.111326
v 0.000001 -7.900879 1.676268
v 0.000001 -7.653809 1.305663
v 0.562958 -0.794922 -0.771607
v 0.000001 -6.402346 3.145261
v 0.000000 -1.430053 -3.992920
v 0.667359 -1.285033 -3.184570
v 1.064820 -0.856689 -2.088112
v 0.000000 -0.996338 0.222047
v 0.131760 -1.383055 -3.933837
v 0.000000 -0.956054 -4.293701
v 0.677765 -0.890258 -3.426270
v 0.131760 -0.923827 -4.225219
v 1.076233 -0.338211 -2.241167
v 0.131760 -0.789551 0.035400
v 0.000000 -0.760681 0.105225
v 0.000000 -0.420958 -4.468261
v 0.684479 -0.386382 -3.585388
v 0.131760 -0.406859 -4.393067
v 0.131760 -0.269562 -0.104248
v 0.000000 -0.258148 -0.029053
v 0.568665 -0.313202 -0.905884
v 0.000000 -0.000436 -4.503174
v 0.686157 -0.000436 -3.616943
v 0.131760 0.000001 -4.427978
v 0.131760 -0.000438 -0.132447
v 0.000000 -0.000438 -0.057250
v 0.569672 -0.007165 -0.929382
v 0.131760 0.405854 -4.393067
v 0.000000 0.420289 -4.468261
v 1.078247 -0.000438 -2.265285
v 1.076233 0.337372 -2.241167
v 0.684479 0.385377 -3.585388
v 0.131760 0.268723 -0.104248
v 0.568665 0.312363 -0.905884
v 0.000000 0.257309 -0.029053
v 0.000000 0.955384 -4.293701
v 0.131759 0.923158 -4.225219
v 1.064819 0.856018 -2.088112
v 0.562958 0.794251 -0.771607
v 0.677765 0.889589 -3.426270
v 0.131760 0.788208 0.035400
v 0.000000 0.759338 0.105225
v 0.000000 1.428713 -3.992920
v 0.131759 1.381715 -3.933837
v 0.667358 1.284364 -3.184570
v 1.049377 1.206482 -1.883759
v 0.555572 1.107788 -0.607788
v 0.131760 1.030579 0.154907
v 0.000000 0.995667 0.222047
v 0.131759 7.600098 1.359377
v 0.000000 7.653808 1.305667
v 0.463257 7.170410 1.533937
v 0.768066 6.461424 1.818605
v 0.416931 6.450682 2.600100
v 0.131759 6.429197 3.075441
v 0.000000 6.396972 3.145265
v 0.000000 7.895505 1.676272
v 0.131759 7.825683 1.705812
v 0.453857 7.347654 1.746096
v 0.413238 6.703124 2.686038
v 0.131759 6.832029 3.161379
v 0.000000 6.832029 3.236574
v 0.000000 7.981443 2.111331
v 0.131759 7.906250 2.111331
v 0.442443 7.395996 2.009279
v 0.415252 6.966307 2.635011
v 0.131759 7.240232 3.083498
v 0.000000 7.267087 3.153323
v 0.000000 7.890134 2.546388
v 0.131759 7.820311 2.516849
v 0.431366 7.336913 2.269777
v 0.421631 7.186522 2.489993
v 0.131759 7.583982 2.857914
v 0.000000 7.637693 2.911624
v 0.000000 0.759338 0.105225
v -0.131760 0.788208 0.035400
v -0.131760 0.268723 -0.104248
v 0.000000 0.257309 -0.029053
v -0.131760 1.030579 0.154907
v 0.000000 0.995667 0.222047
v -0.562958 0.794250 -0.771607
v -0.569672 -0.007165 -0.929382
v -0.131760 -0.000438 -0.132447
v -0.568664 0.312363 -0.905884
v 0.000000 -0.000438 -0.057250
v 0.000000 6.396972 3.145265
v -0.131760 6.429197 3.075441
v -0.555572 1.107788 -0.607788
v -0.417267 6.434568 2.592043
v -0.131760 -0.269562 -0.104248
v -1.076233 0.337372 -2.241167
v 0.000000 -0.258148 -0.029053
v 0.000000 6.832029 3.236574
v -0.131760 6.832029 3.161379
v -1.049378 1.206482 -1.883759
v -0.413239 6.703124 2.686038
v -0.768067 6.461424 1.818605
v -0.131759 -0.789551 0.035400
v 0.000000 -0.760681 0.105225
v 0.000000 7.267087 3.153323
v -0.131760 7.240232 3.083498
v -0.415253 6.966307 2.635011
v -1.064820 0.856018 -2.088112
v -0.667359 1.284364 -3.184570
v -0.463257 7.170410 1.533937
v -0.131759 -1.031250 0.154907
v -0.562958 -0.794922 -0.771607
v -0.555572 -1.109131 -0.607788
v 0.000000 -0.996338 0.222047
v 0.000000 7.637693 2.911624
v -0.421631 7.186522 2.489993
v -0.677765 0.889588 -3.426270
v -0.568664 -0.313202 -0.905884
v -1.076233 -0.338211 -2.241167
v -1.064819 -0.856690 -2.088112
v 0.000001 -6.402346 3.145261
v -0.131760 7.583982 2.857914
v 0.000000 7.890134 2.546388
v -0.684479 0.385377 -3.585388
v -0.131760 0.923158 -4.225219
v -1.078247 -0.000437 -2.265284
v -0.686157 -0.000437 -3.616943
v -0.684479 -0.386382 -3.585388
v -0.131759 -6.429201 3.075437
v -0.131759 -6.832033 3.161375
v 0.000001 -6.832033 3.236570
v -0.131760 7.820311 2.516849
v 0.000000 7.981443 2.111331
v -0.131760 1.381715 -3.933837
v -0.417266 -6.434571 2.592039
v -0.131759 -7.240235 3.083494
v 0.000001 -7.267090 3.153319
v -0.431366 7.336913 2.269777
v -0.131760 7.906250 2.111331
v 0.000000 7.895505 1.676272
v -0.453858 7.347654 1.746096
v -0.131760 7.600098 1.359377
v -0.131759 -7.583985 2.857909
v 0.000001 -7.637696 2.911619
v -1.049377 -1.207153 -1.883759
v -0.442444 7.395996 2.009279
v -0.131760 7.825683 1.705812
v 0.000000 7.653808 1.305667
v -0.131760 0.405854 -4.393067
v -0.131760 -0.000436 -4.427978
v -0.131759 -7.820313 2.516844
v 0.000001 -7.890138 2.546383
v -0.677765 -0.890258 -3.426270
v 0.000000 1.428713 -3.992920
v 0.000000 0.420289 -4.468261
v 0.000000 0.955384 -4.293701
v 0.000000 -0.000436 -4.503174
v -0.131760 -0.406859 -4.393067
v -0.131760 -0.923827 -4.225219
v -0.131759 -7.906250 2.111326
v 0.000001 -7.981445 2.111326
v -0.667358 -1.285033 -3.184570
v 0.000000 -0.420958 -4.468261
v 0.000000 -0.956054 -4.293701
v -0.131760 -1.383055 -3.933837
v 0.000000 -1.430053 -3.992920
v -0.442443 -7.395998 2.009274
v -0.131759 -7.825685 1.705808
v -0.431365 -7.336915 2.269772
v 0.000001 -7.900879 1.676268
v -0.463256 -7.175781 1.533933
v -0.768066 -6.461426 1.818601
v -0.131759 -7.600099 1.359373
v 0.000001 -7.653809 1.305663
v -0.453857 -7.347656 1.746092
v -0.421630 -7.186524 2.489989
v -0.413238 -6.703126 2.686034
v -0.413573 -6.837403 2.672605
v -0.415252 -6.966310 2.635007
vn 0.9934 -0.0753 0.0869
vn 0.8818 0.0489 0.4691
vn -0.2033 -0.1989 0.9587
vn 0.9038 -0.1511 0.4004
vn 0.9119 -0.2686 0.3104
vn 0.9096 -0.3699 0.1891
vn 0.8804 -0.4414 -0.1732
vn 0.8602 -0.3740 -0.3466
vn 0.8987 -0.4369 0.0367
vn 0.9987 -0.0358 0.0359
vn 0.8698 0.1929 0.4540
vn 0.6954 -0.2718 0.6652
vn 0.7000 -0.4981 0.5117
vn 0.6879 0.0050 0.7258
vn 0.6964 -0.6584 0.2855
vn 0.6861 -0.7274 0.0143
vn 0.6489 -0.5750 -0.4983
vn 0.6761 -0.6850 -0.2713
vn 0.8944 0.2015 0.3993
vn 0.7020 0.3291 0.6316
vn 0.6818 0.2467 0.6887
vn 0.4938 -0.3245 0.8068
vn 0.4987 -0.6057 0.6200
vn 0.4990 -0.7962 0.3422
vn 0.4958 0.0086 0.8684
vn 0.4961 -0.8682 0.0103
vn 0.5196 -0.7904 -0.3244
vn 0.5013 -0.6475 -0.5740
vn 0.9033 0.1442 0.4041
vn 0.4938 0.3009 0.8159
vn 0.4969 -0.5156 -0.6980
vn 0.8670 -0.3050 -0.3940
vn 0.9992 -0.0348 0.0187
vn 0.4980 0.3989 0.7700
vn 0.6458 -0.4487 -0.6178
vn 0.4981 -0.3696 -0.7844
vn 0.8832 -0.2128 -0.4180
vn 0.6584 -0.3152 -0.6835
vn 0.9997 -0.0133 0.0193
vn 0.7151 0.2524 0.6518
vn 0.4978 0.3054 0.8118
vn 0.5018 -0.1702 -0.8481
vn 0.8972 -0.0938 -0.4316
vn 0.6701 -0.1444 -0.7281
vn 0.7206 0.1266 0.6817
vn 0.4997 0.1601 0.8513
vn 0.9091 0.0660 0.4114
vn 0.4970 -0.0001 -0.8677
vn 0.9012 -0.0000 -0.4334
vn 0.6720 0.0002 -0.7406
vn 0.7228 0.0010 0.6910
vn 0.4977 -0.0000 0.8674
vn 0.9095 0.0013 0.4157
vn 0.6701 0.1446 -0.7281
vn 0.5024 0.1707 -0.8476
vn 0.9997 -0.0000 0.0263
vn 0.9997 0.0136 0.0191
vn 0.8972 0.0938 -0.4315
vn 0.7214 -0.1277 0.6807
vn 0.9086 -0.0663 0.4123
vn 0.4994 -0.1607 0.8513
vn 0.4985 0.3693 -0.7843
vn 0.6582 0.3152 -0.6837
vn 0.9992 0.0356 0.0180
vn 0.9033 -0.1440 0.4042
vn 0.8834 0.2127 -0.4175
vn 0.7158 -0.2512 0.6515
vn 0.4975 -0.3046 0.8122
vn 0.4969 0.5157 -0.6979
vn 0.6457 0.4490 -0.6177
vn 0.8674 0.3045 -0.3936
vn 0.9987 0.0355 0.0356
vn 0.8941 -0.2022 0.3996
vn 0.7023 -0.3291 0.6313
vn 0.4980 -0.3986 0.7701
vn 0.6497 0.5740 -0.4984
vn 0.4987 0.6491 -0.5744
vn 0.8605 0.3710 -0.3491
vn 0.9934 0.0753 0.0864
vn 0.8703 -0.1904 0.4543
vn 0.6851 -0.2450 0.6860
vn 0.5022 -0.3014 0.8105
vn 0.4985 0.8028 -0.3271
vn 0.6661 0.6946 -0.2716
vn 0.8805 0.4401 -0.1760
vn 0.8856 -0.0395 0.4628
vn 0.6881 -0.0041 0.7256
vn 0.4955 -0.0075 0.8686
vn 0.4959 0.8684 0.0045
vn 0.6850 0.7284 0.0112
vn 0.8987 0.4369 0.0367
vn 0.9053 0.1448 0.3994
vn 0.6952 0.2726 0.6651
vn 0.4944 0.3253 0.8061
vn 0.4983 0.7965 0.3426
vn 0.6967 0.6581 0.2855
vn 0.9096 0.3699 0.1891
vn 0.9119 0.2686 0.3104
vn 0.6998 0.4976 0.5124
vn 0.4991 0.6046 0.6207
vn -0.4978 -0.3050 0.8119
vn -0.7152 -0.2521 0.6519
vn -0.7205 -0.1266 0.6818
vn -0.4997 -0.1602 0.8513
vn -0.7020 -0.3289 0.6316
vn -0.4980 -0.3986 0.7701
vn -0.9033 -0.1443 0.4040
vn -0.9099 0.0006 0.4148
vn -0.7219 -0.0001 0.6920
vn -0.9091 -0.0654 0.4114
vn -0.4977 -0.0000 0.8674
vn -0.5029 -0.3003 0.8105
vn -0.6855 -0.2436 0.6861
vn -0.8944 -0.2017 0.3993
vn -0.8698 -0.1929 0.4540
vn -0.7207 0.1268 0.6815
vn -0.9997 0.0134 0.0193
vn -0.4994 0.1606 0.8514
vn -0.4964 -0.0083 0.8680
vn -0.6879 -0.0050 0.7258
vn -0.9987 0.0359 0.0359
vn -0.8852 -0.0418 0.4634
vn -0.9934 0.0757 0.0862
vn -0.7159 0.2515 0.6514
vn -0.4975 0.3050 0.8121
vn -0.4938 0.3245 0.8068
vn -0.6954 0.2718 0.6652
vn -0.9053 0.1448 0.3994
vn -0.9992 0.0348 0.0187
vn -0.8669 0.3052 -0.3940
vn -0.8605 0.3710 -0.3491
vn -0.7022 0.3294 0.6312
vn -0.9033 0.1439 0.4043
vn -0.8941 0.2021 0.3996
vn -0.4980 0.3989 0.7700
vn -0.4987 0.6057 0.6200
vn -0.9119 0.2686 0.3104
vn -0.8832 0.2128 -0.4180
vn -0.9091 0.0660 0.4114
vn -0.9997 -0.0136 0.0191
vn -0.9992 -0.0356 0.0180
vn -0.4936 0.3011 0.8159
vn -0.7000 0.4981 0.5117
vn -0.4990 0.7962 0.3422
vn -0.8972 0.0937 -0.4316
vn -0.6583 0.3154 -0.6835
vn -0.9997 -0.0000 0.0263
vn -0.9012 -0.0000 -0.4334
vn -0.8972 -0.0939 -0.4315
vn -0.6819 0.2469 0.6886
vn -0.6884 0.0047 0.7253
vn -0.4955 0.0085 0.8686
vn -0.6964 0.6584 0.2855
vn -0.4961 0.8682 0.0055
vn -0.6457 0.4490 -0.6177
vn -0.8698 0.1929 0.4540
vn -0.6954 -0.2723 0.6650
vn -0.4944 -0.3253 0.8061
vn -0.9096 0.3699 0.1891
vn -0.6850 0.7285 0.0119
vn -0.4984 0.8026 -0.3277
vn -0.8805 0.4401 -0.1760
vn -0.6496 0.5742 -0.4983
vn -0.6998 -0.4976 0.5124
vn -0.4991 -0.6046 0.6207
vn -0.9987 -0.0354 0.0357
vn -0.8987 0.4369 0.0367
vn -0.6662 0.6944 -0.2720
vn -0.4989 0.6491 -0.5742
vn -0.6702 0.1443 -0.7280
vn -0.6720 -0.0000 -0.7406
vn -0.6967 -0.6581 0.2855
vn -0.4983 -0.7965 0.3426
vn -0.8834 -0.2128 -0.4175
vn -0.4969 0.5157 -0.6979
vn -0.5020 0.1702 -0.8479
vn -0.4981 0.3699 -0.7843
vn -0.4970 -0.0000 -0.8677
vn -0.6700 -0.1447 -0.7282
vn -0.6582 -0.3150 -0.6837
vn -0.6850 -0.7284 0.0112
vn -0.4988 -0.8667 0.0057
vn -0.8675 -0.3043 -0.3935
vn -0.5021 -0.1706 -0.8478
vn -0.4984 -0.3691 -0.7844
vn -0.6458 -0.4487 -0.6178
vn -0.4969 -0.5156 -0.6980
vn -0.8987 -0.4369 0.0367
vn -0.6759 -0.6870 -0.2669
vn -0.9096 -0.3699 0.1891
vn -0.5202 -0.7928 -0.3176
vn -0.8602 -0.3740 -0.3466
vn -0.9934 -0.0753 0.0869
vn -0.6501 -0.5728 -0.4993
vn -0.4988 -0.6463 -0.5774
vn -0.8804 -0.4414 -0.1732
vn -0.9119 -0.2686 0.3104
vn -0.8816 0.0483 0.4695
vn 0.2034 -0.1989 0.9587
vn -0.9035 -0.1507 0.4013
vt 0.101930 0.094270
vt 0.086961 0.039078
vt 0.078752 0.039918
vt 0.070863 0.042359
vt 0.057176 0.051667
vt 0.047913 0.065614
vt 0.047364 0.098787
vt 0.058106 0.112368
vt 0.044480 0.082139
vt 0.425666 0.329366
vt 0.103517 0.045136
vt 0.054002 0.013901
vt 0.032700 0.028260
vt 0.079011 0.009049
vt 0.018341 0.049943
vt 0.013123 0.075639
vt 0.031769 0.123400
vt 0.017838 0.101427
vt 0.431724 0.248310
vt 0.436500 0.199908
vt 0.103929 0.014420
vt 0.052262 0.009430
vt 0.029419 0.024826
vt 0.014038 0.048051
vt 0.079057 0.004227
vt 0.008453 0.075578
vt 0.013504 0.103227
vt 0.028412 0.126757
vt 0.451057 0.258717
vt 0.105745 0.009979
vt 0.411933 0.463401
vt 0.420859 0.412024
vt 0.447257 0.342367
vt 0.438636 0.195636
vt 0.414832 0.459617
vt 0.441123 0.482475
vt 0.445182 0.427344
vt 0.443107 0.478111
vt 0.479194 0.352087
vt 0.451392 0.207492
vt 0.453178 0.203037
vt 0.474083 0.493522
vt 0.476234 0.437430
vt 0.474968 0.488792
vt 0.483421 0.216327
vt 0.484123 0.211566
vt 0.480736 0.267292
vt 0.500008 0.495766
vt 0.500008 0.439475
vt 0.500008 0.490959
vt 0.500008 0.218143
vt 0.500008 0.213336
vt 0.499580 0.268772
vt 0.525032 0.488792
vt 0.525918 0.493522
vt 0.500008 0.353613
vt 0.520806 0.352087
vt 0.523766 0.437430
vt 0.516579 0.216327
vt 0.519265 0.267292
vt 0.515877 0.211566
vt 0.558877 0.482475
vt 0.556893 0.478111
vt 0.552743 0.342367
vt 0.548943 0.258717
vt 0.554818 0.427344
vt 0.548608 0.207492
vt 0.546822 0.203037
vt 0.588068 0.463401
vt 0.585168 0.459617
vt 0.579141 0.412024
vt 0.574334 0.329366
vt 0.568277 0.248310
vt 0.563500 0.199908
vt 0.561364 0.195636
vt 0.968231 0.123400
vt 0.971588 0.126757
vt 0.941894 0.112368
vt 0.898070 0.094270
vt 0.896483 0.045136
vt 0.896071 0.014420
vt 0.894255 0.009979
vt 0.986496 0.103227
vt 0.982162 0.101427
vt 0.952636 0.098787
vt 0.913039 0.039078
vt 0.920989 0.009049
vt 0.920943 0.004227
vt 0.991547 0.075578
vt 0.986877 0.075639
vt 0.955520 0.082139
vt 0.929137 0.042359
vt 0.945998 0.013901
vt 0.947738 0.009430
vt 0.985962 0.048051
vt 0.981659 0.049943
vt 0.952087 0.065614
vt 0.942824 0.051667
vt 0.967300 0.028260
vt 0.970581 0.024826
vt 0.546822 0.703044
vt 0.548608 0.707484
vt 0.516579 0.716335
vt 0.515877 0.711574
vt 0.563500 0.699916
vt 0.561364 0.695628
vt 0.548943 0.758709
vt 0.499580 0.768765
vt 0.500008 0.718151
vt 0.519265 0.767300
vt 0.500008 0.713329
vt 0.894255 0.509987
vt 0.896071 0.514427
vt 0.568277 0.748303
vt 0.897414 0.544549
vt 0.483421 0.716335
vt 0.520806 0.852079
vt 0.484123 0.711574
vt 0.920943 0.504219
vt 0.920989 0.509041
vt 0.574334 0.829374
vt 0.913039 0.539086
vt 0.898070 0.594263
vt 0.451392 0.707484
vt 0.453178 0.703044
vt 0.947738 0.509438
vt 0.945998 0.513909
vt 0.929137 0.542367
vt 0.552743 0.842359
vt 0.579141 0.912032
vt 0.941894 0.612360
vt 0.436500 0.699916
vt 0.451057 0.758709
vt 0.431724 0.748303
vt 0.438636 0.695628
vt 0.970581 0.524834
vt 0.942824 0.551675
vt 0.554818 0.927352
vt 0.480736 0.767300
vt 0.479194 0.852079
vt 0.447257 0.842359
vt 0.105745 0.509987
vt 0.967300 0.528267
vt 0.985962 0.548058
vt 0.523766 0.937438
vt 0.556893 0.978119
vt 0.500008 0.853620
vt 0.500008 0.939467
vt 0.476234 0.937438
vt 0.103929 0.514427
vt 0.079011 0.509041
vt 0.079057 0.504219
vt 0.981659 0.549950
vt 0.991547 0.575586
vt 0.585168 0.959609
vt 0.103517 0.545129
vt 0.054002 0.513909
vt 0.052262 0.509438
vt 0.952087 0.565621
vt 0.986877 0.575631
vt 0.986496 0.603220
vt 0.952636 0.598795
vt 0.968231 0.623392
vt 0.032700 0.528267
vt 0.029419 0.524834
vt 0.425666 0.829374
vt 0.955520 0.582147
vt 0.982162 0.601419
vt 0.971588 0.626749
vt 0.525032 0.988785
vt 0.500008 0.990951
vt 0.018341 0.549950
vt 0.014038 0.548058
vt 0.445182 0.927352
vt 0.588068 0.963394
vt 0.525918 0.993515
vt 0.558877 0.982467
vt 0.500008 0.995758
vt 0.474968 0.988785
vt 0.443107 0.978119
vt 0.013123 0.575631
vt 0.008453 0.575586
vt 0.420859 0.912032
vt 0.474083 0.993515
vt 0.441123 0.982467
vt 0.414832 0.959609
vt 0.411933 0.963394
vt 0.044480 0.582147
vt 0.017838 0.601419
vt 0.047913 0.565621
vt 0.013504 0.603220
vt 0.058106 0.612360
vt 0.101930 0.594263
vt 0.031769 0.623392
vt 0.028412 0.626749
vt 0.047364 0.598795
vt 0.057176 0.551675
vt 0.086961 0.539086
vt 0.078752 0.539910
vt 0.070863 0.542367
s 1
usemtl mt_ItemBoomerang
f 1/1/1 2/2/2 3/3/3
f 1/1/1 3/3/3 4/4/4
f 1/1/1 4/4/4 5/5/5
f 1/1/1 5/5/5 6/6/6
f 1/1/1 7/7/7 8/8/8
f 1/1/1 9/9/9 7/7/7
f 1/1/1 6/6/6 9/9/9
f 1/1/1 10/10/10 11/11/11
f 1/1/1 8/8/8 10/10/10
f 1/1/1 11/11/11 2/2/2
f 3/3/3 2/2/2 4/4/4
f 5/5/5 4/4/4 12/12/12
f 5/5/5 12/12/12 13/13/13
f 5/5/5 13/13/13 6/6/6
f 4/4/4 2/2/2 14/14/14
f 4/4/4 14/14/14 12/12/12
f 2/2/2 11/11/11 14/14/14
f 6/6/6 13/13/13 15/15/15
f 6/6/6 16/16/16 9/9/9
f 6/6/6 15/15/15 16/16/16
f 7/7/7 17/17/17 8/8/8
f 7/7/7 18/18/18 17/17/17
f 7/7/7 9/9/9 18/18/18
f 9/9/9 16/16/16 18/18/18
f 11/11/11 19/19/19 20/20/20
f 11/11/11 20/20/20 21/21/21
f 11/11/11 10/10/10 19/19/19
f 11/11/11 21/21/21 14/14/14
f 12/12/12 14/14/14 22/22/22
f 12/12/12 23/23/23 13/13/13
f 12/12/12 22/22/22 23/23/23
f 13/13/13 24/24/24 15/15/15
f 13/13/13 23/23/23 24/24/24
f 14/14/14 21/21/21 25/25/25
f 14/14/14 25/25/25 22/22/22
f 15/15/15 26/26/26 16/16/16
f 15/15/15 24/24/24 26/26/26
f 16/16/16 27/27/27 18/18/18
f 16/16/16 26/26/26 27/27/27
f 18/18/18 28/28/28 17/17/17
f 18/18/18 27/27/27 28/28/28
f 19/19/19 10/10/10 29/29/29
f 19/19/19 29/29/29 20/20/20
f 21/21/21 30/30/30 25/25/25
f 21/21/21 20/20/20 30/30/30
f 28/28/28 31/31/31 17/17/17
f 10/10/10 32/32/32 33/33/33
f 10/10/10 33/33/33 29/29/29
f 10/10/10 8/8/8 32/32/32
f 30/30/30 20/20/20 34/34/34
f 31/31/31 35/35/35 17/17/17
f 31/31/31 36/36/36 35/35/35
f 17/17/17 35/35/35 8/8/8
f 32/32/32 37/37/37 33/33/33
f 32/32/32 38/38/38 37/37/37
f 32/32/32 35/35/35 38/38/38
f 32/32/32 8/8/8 35/35/35
f 33/33/33 37/37/37 39/39/39
f 33/33/33 39/39/39 29/29/29
f 20/20/20 40/40/40 41/41/41
f 20/20/20 41/41/41 34/34/34
f 20/20/20 29/29/29 40/40/40
f 35/35/35 36/36/36 38/38/38
f 36/36/36 42/42/42 38/38/38
f 37/37/37 43/43/43 39/39/39
f 37/37/37 38/38/38 43/43/43
f 38/38/38 44/44/44 43/43/43
f 38/38/38 42/42/42 44/44/44
f 40/40/40 45/45/45 41/41/41
f 40/40/40 29/29/29 45/45/45
f 41/41/41 45/45/45 46/46/46
f 29/29/29 39/39/39 47/47/47
f 29/29/29 47/47/47 45/45/45
f 42/42/42 48/48/48 44/44/44
f 43/43/43 49/49/49 39/39/39
f 43/43/43 44/44/44 50/50/50
f 43/43/43 50/50/50 49/49/49
f 44/44/44 48/48/48 50/50/50
f 45/45/45 51/51/51 52/52/52
f 45/45/45 52/52/52 46/46/46
f 45/45/45 47/47/47 53/53/53
f 45/45/45 53/53/53 51/51/51
f 47/47/47 39/39/39 53/53/53
f 48/48/48 54/54/54 50/50/50
f 48/48/48 55/55/55 54/54/54
f 49/49/49 56/56/56 39/39/39
f 49/49/49 57/57/57 56/56/56
f 49/49/49 58/58/58 57/57/57
f 49/49/49 50/50/50 58/58/58
f 50/50/50 54/54/54 58/58/58
f 51/51/51 59/59/59 52/52/52
f 51/51/51 53/53/53 60/60/60
f 51/51/51 60/60/60 59/59/59
f 52/52/52 59/59/59 61/61/61
f 53/53/53 39/39/39 56/56/56
f 53/53/53 56/56/56 57/57/57
f 53/53/53 57/57/57 60/60/60
f 54/54/54 62/62/62 63/63/63
f 54/54/54 55/55/55 62/62/62
f 54/54/54 63/63/63 58/58/58
f 57/57/57 58/58/58 64/64/64
f 57/57/57 65/65/65 60/60/60
f 57/57/57 64/64/64 65/65/65
f 58/58/58 66/66/66 64/64/64
f 58/58/58 63/63/63 66/66/66
f 59/59/59 60/60/60 65/65/65
f 59/59/59 65/65/65 67/67/67
f 59/59/59 67/67/67 61/61/61
f 61/61/61 67/67/67 68/68/68
f 62/62/62 69/69/69 63/63/63
f 63/63/63 69/69/69 70/70/70
f 63/63/63 71/71/71 66/66/66
f 63/63/63 70/70/70 71/71/71
f 64/64/64 66/66/66 72/72/72
f 64/64/64 73/73/73 65/65/65
f 64/64/64 72/72/72 73/73/73
f 65/65/65 73/73/73 67/67/67
f 66/66/66 71/71/71 72/72/72
f 67/67/67 73/73/73 74/74/74
f 67/67/67 74/74/74 68/68/68
f 68/68/68 74/74/74 75/75/75
f 69/69/69 76/76/76 70/70/70
f 69/69/69 77/77/77 76/76/76
f 70/70/70 78/78/78 71/71/71
f 70/70/70 76/76/76 78/78/78
f 71/71/71 78/78/78 72/72/72
f 72/72/72 79/79/79 80/80/80
f 72/72/72 80/80/80 73/73/73
f 72/72/72 78/78/78 79/79/79
f 73/73/73 80/80/80 74/74/74
f 74/74/74 81/81/81 82/82/82
f 74/74/74 82/82/82 75/75/75
f 74/74/74 80/80/80 81/81/81
f 76/76/76 83/83/83 84/84/84
f 76/76/76 77/77/77 83/83/83
f 76/76/76 85/85/85 78/78/78
f 76/76/76 84/84/84 85/85/85
f 78/78/78 85/85/85 79/79/79
f 80/80/80 79/79/79 86/86/86
f 80/80/80 86/86/86 87/87/87
f 80/80/80 87/87/87 81/81/81
f 81/81/81 87/87/87 82/82/82
f 82/82/82 87/87/87 88/88/88
f 83/83/83 89/89/89 84/84/84
f 84/84/84 89/89/89 90/90/90
f 84/84/84 91/91/91 85/85/85
f 84/84/84 90/90/90 91/91/91
f 85/85/85 91/91/91 79/79/79
f 86/86/86 79/79/79 92/92/92
f 86/86/86 92/92/92 87/87/87
f 87/87/87 93/93/93 88/88/88
f 87/87/87 92/92/92 93/93/93
f 88/88/88 93/93/93 94/94/94
f 89/89/89 95/95/95 90/90/90
f 90/90/90 95/95/95 96/96/96
f 90/90/90 97/97/97 91/91/91
f 90/90/90 96/96/96 97/97/97
f 91/91/91 97/97/97 79/79/79
f 92/92/92 79/79/79 98/98/98
f 92/92/92 98/98/98 93/93/93
f 93/93/93 99/99/99 94/94/94
f 93/93/93 98/98/98 99/99/99
f 94/94/94 99/99/99 100/100/100
f 95/95/95 100/100/100 96/96/96
f 96/96/96 100/100/100 99/99/99
f 96/96/96 99/99/99 97/97/97
f 97/97/97 98/98/98 79/79/79
f 97/97/97 99/99/99 98/98/98
f 101/101/101 102/102/102 103/103/103
f 101/101/101 103/103/103 104/104/104
f 101/101/101 105/105/105 102/102/102
f 101/101/101 106/106/106 105/105/105
f 102/102/102 107/107/107 103/103/103
f 102/102/102 105/105/105 107/107/107
f 103/103/103 108/108/108 109/109/109
f 103/103/103 110/110/110 108/108/108
f 103/103/103 107/107/107 110/110/110
f 103/103/103 109/109/109 111/111/111
f 103/103/103 111/111/111 104/104/104
f 106/106/106 112/112/112 105/105/105
f 105/105/105 112/112/112 113/113/113
f 105/105/105 114/114/114 107/107/107
f 105/105/105 115/115/115 114/114/114
f 105/105/105 113/113/113 115/115/115
f 109/109/109 116/116/116 111/111/111
f 109/109/109 108/108/108 116/116/116
f 110/110/110 117/117/117 108/108/108
f 110/110/110 107/107/107 117/117/117
f 111/111/111 116/116/116 118/118/118
f 112/112/112 119/119/119 113/113/113
f 113/113/113 119/119/119 120/120/120
f 113/113/113 120/120/120 115/115/115
f 114/114/114 121/121/121 107/107/107
f 114/114/114 115/115/115 121/121/121
f 115/115/115 120/120/120 122/122/122
f 115/115/115 122/122/122 123/123/123
f 115/115/115 123/123/123 121/121/121
f 118/118/118 116/116/116 124/124/124
f 118/118/118 124/124/124 125/125/125
f 119/119/119 126/126/126 120/120/120
f 120/120/120 126/126/126 127/127/127
f 120/120/120 128/128/128 122/122/122
f 120/120/120 127/127/127 128/128/128
f 107/107/107 129/129/129 117/117/117
f 107/107/107 121/121/121 129/129/129
f 121/121/121 130/130/130 129/129/129
f 121/121/121 131/131/131 130/130/130
f 121/121/121 123/123/123 131/131/131
f 122/122/122 128/128/128 123/123/123
f 124/124/124 132/132/132 125/125/125
f 124/124/124 116/116/116 133/133/133
f 124/124/124 133/133/133 134/134/134
f 124/124/124 134/134/134 132/132/132
f 125/125/125 132/132/132 135/135/135
f 126/126/126 136/136/136 127/127/127
f 128/128/128 137/137/137 123/123/123
f 128/128/128 127/127/127 137/137/137
f 129/129/129 138/138/138 117/117/117
f 129/129/129 130/130/130 138/138/138
f 116/116/116 139/139/139 133/133/133
f 116/116/116 108/108/108 139/139/139
f 133/133/133 139/139/139 140/140/140
f 133/133/133 140/140/140 141/141/141
f 133/133/133 141/141/141 134/134/134
f 135/135/135 132/132/132 142/142/142
f 136/136/136 143/143/143 127/127/127
f 136/136/136 144/144/144 143/143/143
f 138/138/138 145/145/145 117/117/117
f 138/138/138 146/146/146 145/145/145
f 138/138/138 130/130/130 146/146/146
f 139/139/139 108/108/108 140/140/140
f 108/108/108 117/117/117 147/147/147
f 108/108/108 147/147/147 140/140/140
f 140/140/140 147/147/147 148/148/148
f 140/140/140 148/148/148 149/149/149
f 140/140/140 149/149/149 141/141/141
f 142/142/142 150/150/150 151/151/151
f 142/142/142 151/151/151 152/152/152
f 142/142/142 132/132/132 150/150/150
f 127/127/127 143/143/143 137/137/137
f 144/144/144 153/153/153 143/143/143
f 144/144/144 154/154/154 153/153/153
f 130/130/130 155/155/155 146/146/146
f 130/130/130 131/131/131 155/155/155
f 147/147/147 117/117/117 148/148/148
f 150/150/150 156/156/156 151/151/151
f 150/150/150 132/132/132 156/156/156
f 152/152/152 151/151/151 157/157/157
f 152/152/152 157/157/157 158/158/158
f 132/132/132 134/134/134 156/156/156
f 137/137/137 159/159/159 123/123/123
f 137/137/137 143/143/143 159/159/159
f 143/143/143 153/153/153 159/159/159
f 153/153/153 154/154/154 160/160/160
f 153/153/153 160/160/160 159/159/159
f 154/154/154 161/161/161 160/160/160
f 131/131/131 123/123/123 162/162/162
f 131/131/131 162/162/162 163/163/163
f 131/131/131 163/163/163 155/155/155
f 117/117/117 145/145/145 148/148/148
f 158/158/158 157/157/157 164/164/164
f 158/158/158 164/164/164 165/165/165
f 134/134/134 141/141/141 166/166/166
f 134/134/134 166/166/166 156/156/156
f 123/123/123 167/167/167 162/162/162
f 123/123/123 159/159/159 167/167/167
f 159/159/159 160/160/160 167/167/167
f 160/160/160 161/161/161 168/168/168
f 160/160/160 168/168/168 167/167/167
f 161/161/161 169/169/169 168/168/168
f 162/162/162 168/168/168 163/163/163
f 162/162/162 167/167/167 168/168/168
f 145/145/145 146/146/146 170/170/170
f 145/145/145 170/170/170 171/171/171
f 145/145/145 171/171/171 148/148/148
f 148/148/148 171/171/171 149/149/149
f 165/165/165 164/164/164 172/172/172
f 165/165/165 172/172/172 173/173/173
f 141/141/141 149/149/149 174/174/174
f 141/141/141 174/174/174 166/166/166
f 168/168/168 169/169/169 163/163/163
f 169/169/169 175/175/175 163/163/163
f 146/146/146 176/176/176 170/170/170
f 146/146/146 177/177/177 176/176/176
f 146/146/146 155/155/155 177/177/177
f 170/170/170 178/178/178 171/171/171
f 170/170/170 176/176/176 178/178/178
f 171/171/171 179/179/179 149/149/149
f 171/171/171 178/178/178 179/179/179
f 149/149/149 180/180/180 174/174/174
f 149/149/149 179/179/179 180/180/180
f 173/173/173 172/172/172 181/181/181
f 173/173/173 181/181/181 182/182/182
f 174/174/174 183/183/183 166/166/166
f 174/174/174 180/180/180 183/183/183
f 163/163/163 175/175/175 155/155/155
f 175/175/175 177/177/177 155/155/155
f 178/178/178 184/184/184 179/179/179
f 179/179/179 185/185/185 180/180/180
f 179/179/179 184/184/184 185/185/185
f 180/180/180 186/186/186 183/183/183
f 180/180/180 187/187/187 186/186/186
f 180/180/180 185/185/185 187/187/187
f 181/181/181 188/188/188 189/189/189
f 181/181/181 190/190/190 188/188/188
f 181/181/181 172/172/172 190/190/190
f 181/181/181 189/189/189 182/182/182
f 182/182/182 189/189/189 191/191/191
f 183/183/183 186/186/186 192/192/192
f 183/183/183 192/192/192 166/166/166
f 166/166/166 193/193/193 156/156/156
f 166/166/166 192/192/192 193/193/193
f 186/186/186 194/194/194 192/192/192
f 186/186/186 187/187/187 194/194/194
f 187/187/187 195/195/195 194/194/194
f 188/188/188 193/193/193 196/196/196
f 188/188/188 190/190/190 193/193/193
f 188/188/188 196/196/196 189/189/189
f 189/189/189 196/196/196 194/194/194
f 189/189/189 194/194/194 191/191/191
f 190/190/190 197/197/197 193/193/193
f 190/190/190 164/164/164 197/197/197
f 190/190/190 172/172/172 164/164/164
f 191/191/191 194/194/194 195/195/195
f 192/192/192 196/196/196 193/193/193
f 192/192/192 194/194/194 196/196/196
f 193/193/193 198/198/198 156/156/156
f 193/193/193 199/199/199 198/198/198
f 193/193/193 200/200/200 199/199/199
f 193/193/193 197/197/197 200/200/200
f 156/156/156 198/198/198 151/151/151
f 197/197/197 157/157/157 200/200/200
f 197/197/197 164/164/164 157/157/157
f 198/198/198 199/199/199 200/200/200
f 198/198/198 200/200/200 157/157/157
f 198/198/198 157/157/157 151/151/151
